<?xml version="1.0" encoding="utf-8"?><svg xmlns="http://www.w3.org/2000/svg" xmlns:xlink="http://www.w3.org/1999/xlink"><symbol viewBox="0 0 11 16" id="contacts-address"><path d="M5.501 0C2.463 0 0 2.417 0 5.4c0 1.525 1.515 4.258 1.515 4.258L5.298 16l3.948-6.268S11 7.124 11 5.399C11 2.417 8.538 0 5.501 0zm-.026 8.373c-1.74 0-3.149-1.392-3.149-3.113 0-1.719 1.409-3.11 3.15-3.11 1.738 0 3.15 1.391 3.15 3.11 0 1.72-1.412 3.113-3.15 3.113z"/></symbol><symbol viewBox="0 0 13 10" id="contacts-email"><path d="M11.35 9.162c.266 0 .496-.082.691-.244L8.695 5.78l-.231.156c-.25.173-.454.308-.61.405a3.855 3.855 0 0 1-.623.296c-.26.101-.5.152-.725.152h-.013c-.224 0-.466-.05-.725-.152-.26-.1-.467-.2-.623-.296a16.341 16.341 0 0 1-.61-.405l-.23-.157L.958 8.918c.196.162.426.244.691.244h9.701zM1.26 3.803a3.442 3.442 0 0 1-.665-.537V8.04l2.949-2.766c-.59-.386-1.35-.876-2.284-1.47zm10.486 0c-.898.57-1.66 1.06-2.29 1.472l2.949 2.765V3.266a3.578 3.578 0 0 1-.66.537z"/><path d="M11.352.46H1.65c-.339 0-.599.107-.781.32-.183.215-.274.483-.274.804 0 .26.121.541.363.844.241.303.498.54.77.714.15.099.6.392 1.352.88a439.372 439.372 0 0 1 1.726 1.129l.099.065.182.123a7.345 7.345 0 0 0 .698.436c.134.074.26.13.38.167.118.037.228.056.329.056h.013c.1 0 .21-.019.33-.056.118-.037.244-.093.378-.167a7.11 7.11 0 0 0 .699-.436 44.675 44.675 0 0 1 .28-.188l.667-.435 2.417-1.574c.321-.21.59-.464.804-.76a1.57 1.57 0 0 0 .323-.934.92.92 0 0 0-.313-.698 1.054 1.054 0 0 0-.741-.29z"/></symbol><symbol viewBox="0 0 14 15" id="contacts-tel"><path d="M5.794 7.552c.337.397.64.687.637.684a9.763 9.763 0 0 0 1.626 1.549c.415.313 1.065.354 1.417.138.353-.216 1.03-.653 1.538-.542.426.094.992.408 1.673 1.214 1.605 1.902.167 2.495-.83 3.262-.997.767-4.288-1.132-7.301-4.225C1.54 6.54.404 3.34 1.239 2.398c.835-.942 1.53-2.337 3.304-.593.751.74 1.022 1.329 1.084 1.762.074.516-.41 1.163-.65 1.5-.24.337-.247.99.034 1.428.248.387.512.738.783 1.057z"/></symbol><symbol viewBox="0 0 100 29" id="dorohovdesign"><path d="M36.916 11.343V3.084h3.482c2.587 0 4.378 1.493 4.378 4.18 0 2.487-1.89 4.179-4.378 4.179l-3.483-.1zm5.671-4.18c0-1.293-.796-2.288-2.288-2.288h-1.393v4.478h1.393c1.492.1 2.288-.896 2.288-2.19zm2.985 0c0-2.487 1.89-4.278 4.378-4.278 2.488 0 4.378 1.692 4.378 4.279 0 2.587-1.89 4.279-4.378 4.279-2.487 0-4.378-1.692-4.378-4.28zm6.667 0c0-1.392-.896-2.387-2.289-2.387-1.393 0-2.288.995-2.288 2.388 0 1.293.895 2.388 2.288 2.388 1.393 0 2.289-.995 2.289-2.388zm7.96 4.18l-1.393-2.786h-1.094v2.786h-2.09V3.084h4.18c1.79 0 2.785 1.194 2.785 2.786 0 1.493-.895 2.19-1.691 2.488l1.691 3.085H60.2v-.1zm.299-5.473c0-.597-.398-.895-.995-.895H57.81v1.691h1.692c.497 0 .995-.298.995-.796zm2.985 1.294c0-2.488 1.89-4.279 4.378-4.279 2.487 0 4.378 1.692 4.378 4.279 0 2.587-1.89 4.279-4.378 4.279-2.488 0-4.378-1.692-4.378-4.28zm6.567 0c0-1.393-.896-2.388-2.289-2.388-1.393 0-2.288.995-2.288 2.388 0 1.293.895 2.388 2.288 2.388 1.393 0 2.289-.995 2.289-2.388zm9.055 4.179V7.96h-3.383v3.383h-2.19V3.084h2.19V6.17h3.383V3.084h2.09v8.259h-2.09zm3.283-4.18c0-2.487 1.89-4.278 4.378-4.278 2.488 0 4.378 1.692 4.378 4.279 0 2.587-1.89 4.279-4.378 4.279-2.487 0-4.378-1.692-4.378-4.28zm6.667 0c0-1.392-.896-2.387-2.289-2.387-1.393 0-2.288.995-2.288 2.388 0 1.293.895 2.388 2.288 2.388 1.493 0 2.289-.995 2.289-2.388zm5.273 4.18l-3.084-8.259h2.388l1.99 5.97 1.99-5.97H100l-3.085 8.259h-2.587zM36.915 25.074v-8.358h3.483c2.587 0 4.478 1.493 4.478 4.18 0 2.586-1.89 4.178-4.478 4.178h-3.483zm5.871-4.179c0-1.293-.796-2.288-2.288-2.288h-1.393v4.577h1.393c1.393 0 2.288-.995 2.288-2.289zm3.383 4.18v-8.359h6.07v1.89h-3.88V19.9h3.78v1.791h-3.78v1.393h3.88v1.89h-6.07v.1zm7.065-1.195l1.094-1.592c.597.597 1.493 1.095 2.587 1.095.697 0 1.194-.299 1.194-.697 0-1.094-4.676-.199-4.676-3.482 0-1.393 1.194-2.587 3.284-2.587 1.293 0 2.487.398 3.383 1.194l-1.194 1.492a3.758 3.758 0 0 0-2.389-.895c-.597 0-.895.199-.895.597 0 .995 4.677.298 4.677 3.383 0 1.691-1.294 2.786-3.483 2.786-1.592 0-2.687-.498-3.582-1.294zm8.358-7.164h2.09v8.259h-2.09v-8.259zm3.483 4.18c0-2.588 2.09-4.28 4.477-4.28 1.791 0 2.985.996 3.483 2.09l-1.791.995c-.299-.497-.995-.995-1.791-.995-1.393 0-2.388.995-2.388 2.388 0 1.393.995 2.388 2.388 2.388.597 0 1.293-.199 1.492-.497v-.697h-1.89v-1.89h3.98v3.283c-.896.995-2.09 1.592-3.682 1.592-2.288-.1-4.278-1.79-4.278-4.378zm15.323 4.178L76.915 20.2v4.875h-2.09v-8.358h2.19l3.383 4.577v-4.577h2.09v8.358h-2.09zM11.244 0H0v28.458h11.343c9.552 0 15.622-5.572 15.622-14.23C26.965 5.573 20.796 0 11.244 0zm-.2 22.786H5.97V6.07h5.075c5.97 0 9.95 2.388 9.95 8.06.1 4.775-3.682 8.656-9.95 8.656zm1.095-11.94h-1.293v6.766h1.293c2.587 0 4.08-1.493 4.08-3.483 0-2.288-1.692-3.283-4.08-3.283z"/></symbol><symbol viewBox="0 0 96.124 96.123" id="fb"><path d="M72.089.02L59.624 0C45.62 0 36.57 9.285 36.57 23.656v10.907H24.037a1.96 1.96 0 0 0-1.96 1.961v15.803a1.96 1.96 0 0 0 1.96 1.96H36.57v39.876a1.96 1.96 0 0 0 1.96 1.96h16.352a1.96 1.96 0 0 0 1.96-1.96V54.287h14.654a1.96 1.96 0 0 0 1.96-1.96l.006-15.803a1.963 1.963 0 0 0-1.961-1.961H56.842v-9.246c0-4.444 1.059-6.7 6.848-6.7l8.397-.003a1.96 1.96 0 0 0 1.959-1.96V1.98A1.96 1.96 0 0 0 72.089.02z"/></symbol><symbol viewBox="0 0 14 17" id="form-name"><path d="M6.94 9.16h.109c.999-.018 1.807-.38 2.403-1.074 1.312-1.527 1.094-4.147 1.07-4.397C10.437 1.813 9.578.915 8.87.496 8.341.183 7.724.014 7.036 0h-.058c-.379 0-1.122.063-1.834.482C4.428.902 3.556 1.8 3.471 3.69c-.024.25-.242 2.87 1.07 4.397.593.694 1.4 1.056 2.4 1.074zM4.38 3.777c0-.01.004-.02.004-.028C4.496 1.225 6.231.954 6.974.954h.041c.92.021 2.485.408 2.59 2.795 0 .01 0 .021.004.028.003.025.242 2.419-.842 3.68-.43.5-1.002.746-1.755.753h-.034c-.75-.007-1.326-.254-1.752-.754-1.08-1.253-.849-3.657-.845-3.679z"/><path d="M14 13.504v-.01c0-.028-.004-.056-.004-.088-.02-.697-.065-2.327-1.544-2.848-.01-.004-.024-.007-.034-.01-1.538-.406-2.816-1.32-2.83-1.331a.45.45 0 0 0-.64.116.485.485 0 0 0 .112.662c.058.042 1.415 1.017 3.112 1.468.794.292.883 1.168.907 1.971 0 .032 0 .06.003.088.004.317-.017.806-.071 1.088-.552.324-2.717 1.443-6.01 1.443-3.278 0-5.456-1.123-6.012-1.447a6.245 6.245 0 0 1-.071-1.088c0-.028.003-.056.003-.088.024-.802.113-1.679.907-1.97 1.697-.452 3.054-1.43 3.112-1.469a.485.485 0 0 0 .112-.662.45.45 0 0 0-.64-.116c-.014.01-1.286.926-2.83 1.33a.42.42 0 0 0-.034.011C.07 11.08.025 12.71.004 13.402c0 .032 0 .06-.003.088v.01c-.003.184-.007 1.124.174 1.596a.448.448 0 0 0 .177.221C.454 15.387 2.905 17 7.005 17s6.551-1.616 6.653-1.683a.468.468 0 0 0 .178-.221c.17-.469.166-1.409.163-1.592z"/></symbol><symbol viewBox="0 0 14 14" id="form-tel"><path d="M13.999 11.28a2.12 2.12 0 0 0-.604-1.422c-.727-.737-1.336-1.162-1.916-1.338-.8-.243-1.54-.022-2.202.657a.295.295 0 0 0-.003.003l-.703.733c-.44-.26-1.294-.832-2.217-1.803l-.069-.072a11.046 11.046 0 0 1-1.715-2.33l.698-.74.003-.003c.646-.695.856-1.474.625-2.315-.168-.61-.572-1.25-1.273-2.014A1.928 1.928 0 0 0 3.269.001c-.515-.02-1.01.17-1.393.531L1.86.547a.55.55 0 0 0-.02.02C1.077 1.37.677 2.493.683 3.817c.01 2.248 1.186 4.82 3.144 6.878.37.388.789.772 1.247 1.141a.504.504 0 0 0 .73-.1.566.566 0 0 0-.097-.768 11.84 11.84 0 0 1-1.144-1.047c-1.769-1.859-2.83-4.143-2.84-6.11-.005-1.019.287-1.87.844-2.46l.004-.005a.903.903 0 0 1 1.303.05c1.347 1.468 1.25 2.161.654 2.803L3.564 5.22a.568.568 0 0 0-.106.608c.024.058.617 1.433 2.092 2.984l.068.072c1.475 1.55 2.783 2.173 2.838 2.198a.501.501 0 0 0 .578-.11l.972-1.015c.61-.625 1.27-.728 2.666.688.366.37.387.973.047 1.37l-.003.004c-.558.58-1.359.887-2.318.887h-.024c-.766-.004-1.654-.225-2.566-.639a.51.51 0 0 0-.684.286c-.114.277.008.6.272.719 1.055.478 2.055.723 2.973.728h.03c1.246 0 2.304-.42 3.062-1.217a.485.485 0 0 0 .02-.021l.013-.016a2.14 2.14 0 0 0 .505-1.465z"/></symbol><symbol viewBox="0 0 40 34" id="icon-adv1"><path d="M14.167 21.366v-.067a.832.832 0 0 0-.834-.83.832.832 0 0 0-.833.83v.067c0 .459.373.83.833.83.46 0 .834-.371.834-.83zm16.69-9.506a.829.829 0 0 0-.381 1.11 11.652 11.652 0 0 1 1.19 5.12v2.809c0 .458.374.83.834.83.46 0 .834-.372.834-.83v-2.81c0-2.018-.471-4.041-1.361-5.85a.835.835 0 0 0-1.116-.38zm-.248-1.818l-.054-.07a.835.835 0 0 0-1.168-.154.828.828 0 0 0-.155 1.165l.048.06a.833.833 0 0 0 1.33-1zM40 21.155a3.906 3.906 0 0 0-3.352-3.856 16.485 16.485 0 0 0-2.669-8.255A16.678 16.678 0 0 0 27.5 3.258V1.965a.83.83 0 0 0-.516-.768A18.306 18.306 0 0 0 22.618.008a.83.83 0 0 0-.952.822v.737a16.96 16.96 0 0 0-3.333 0V.83a.829.829 0 0 0-.951-.822 18.308 18.308 0 0 0-4.367 1.19.83.83 0 0 0-.515.767v1.293a16.678 16.678 0 0 0-6.478 5.786 16.485 16.485 0 0 0-2.67 8.256A3.905 3.905 0 0 0 0 21.155v3.079l.003.036a.79.79 0 0 0 .022.15l.003.015c1.031 3.832 2.934 6.087 6.172 7.31 3.144 1.187 7.61 1.426 13.8 1.426 6.189 0 10.656-.239 13.8-1.426 3.238-1.223 5.14-3.478 6.172-7.31l.003-.016a.861.861 0 0 0 .023-.15l.001-.035.001-.014v-3.065zM27.5 5.145C32.097 7.798 35 12.744 35 18.09v5.3h-7.5V5.146zm-9.166-1.908a15.265 15.265 0 0 1 3.334 0v6.709c0 .916-.748 1.66-1.667 1.66a1.666 1.666 0 0 1-1.667-1.66V3.237zM5 18.09c0-5.347 2.904-10.293 7.5-12.945V18.89c0 .459.373.83.833.83.46 0 .834-.371.834-.83V2.53c.812-.302 1.649-.54 2.5-.713v8.129A3.331 3.331 0 0 0 20 13.267a3.331 3.331 0 0 0 3.333-3.321v-8.13a16.7 16.7 0 0 1 2.5.715V23.39H5v-5.3zm-3.333 3.065a2.24 2.24 0 0 1 1.666-2.16v4.395H1.667v-2.235zm31.542 9.037C30.303 31.29 26 31.51 20 31.51s-10.302-.22-13.209-1.318c-2.456-.928-3.908-2.45-4.834-5.142h36.087c-.925 2.691-2.378 4.214-4.834 5.142zm5.124-6.802h-1.666v-4.395a2.24 2.24 0 0 1 1.666 2.16v2.235z"/></symbol><symbol viewBox="0 0 40 36" id="icon-adv2"><path d="M21.936 15.603l-1.302-4.033a.667.667 0 0 0-1.267 0l-1.305 4.033h-4.218a.672.672 0 0 0-.392 1.213l3.414 2.492-1.303 4.033a.671.671 0 0 0 .242.75c.234.17.55.17.784 0l3.41-2.493 3.413 2.492c.233.171.55.171.784 0a.672.672 0 0 0 .242-.749l-1.305-4.033 3.411-2.492a.672.672 0 0 0-.39-1.213h-4.218zm.023 2.907a.673.673 0 0 0-.242.75l.816 2.533-2.142-1.565a.664.664 0 0 0-.783 0l-2.142 1.565.819-2.534a.673.673 0 0 0-.242-.75l-2.147-1.565h2.65c.29 0 .545-.187.634-.463l.82-2.535.819 2.534a.666.666 0 0 0 .634.464h2.65l-2.145 1.566zM20 6.89c-5.89 0-10.666 4.802-10.666 10.724 0 5.922 4.775 10.724 10.666 10.724 5.89 0 10.666-4.802 10.666-10.724C30.66 11.694 25.888 6.897 20 6.89zm0 20.107c-5.154 0-9.333-4.2-9.333-9.383 0-5.182 4.179-9.383 9.333-9.383s9.333 4.2 9.333 9.383c-.006 5.18-4.18 9.378-9.333 9.383zm17.434-8.713l2.477-4.356a.676.676 0 0 0 0-.671.667.667 0 0 0-.579-.335h-4.666v-5.8a.67.67 0 0 0-.389-.61l-14-6.45a.662.662 0 0 0-.555 0L5.723 6.511a.67.67 0 0 0-.389.61v5.8H.668a.666.666 0 0 0-.578.335.675.675 0 0 0 0 .67l2.477 4.357L.089 22.64a.675.675 0 0 0 0 .67c.12.208.34.335.579.335h5.651a17.463 17.463 0 0 0 9.148 10.12l4.258 1.962a.66.66 0 0 0 .556 0l4.252-1.961a17.463 17.463 0 0 0 9.148-10.121h5.651a.667.667 0 0 0 .579-.334.676.676 0 0 0 0-.671l-2.477-4.357zM1.817 22.305l2.096-3.686a.673.673 0 0 0 0-.665l-2.096-3.691h3.517v3.632c.004 1.49.198 2.971.579 4.41H1.817zM23.98 32.55L20 34.383l-3.98-1.834c-5.692-2.635-9.342-8.354-9.352-14.654V7.552L20 1.407l13.333 6.145v10.343c-.01 6.3-3.66 12.02-9.353 14.654zm10.107-10.244a17.38 17.38 0 0 0 .579-4.41v-3.632h3.517l-2.096 3.686a.673.673 0 0 0 0 .665l2.096 3.691h-4.096z"/></symbol><symbol viewBox="0 0 40 39" id="icon-adv3"><path d="M15.625 8.75a.624.624 0 0 0-.625.625V26.25a.624.624 0 1 0 1.25 0V9.375a.624.624 0 0 0-.625-.625zm8.75 0a.624.624 0 0 0-.625.625V26.25a.624.624 0 1 0 1.25 0V9.375a.624.624 0 0 0-.625-.625zm0 0h-8.75a.624.624 0 1 0 0 1.25h8.75a.624.624 0 1 0 0-1.25zm-5.625 3.125a.624.624 0 0 0-.625.625v11.25a.624.624 0 1 0 1.25 0V12.5a.624.624 0 0 0-.625-.625zm2.5 0a.624.624 0 0 0-.625.625v11.25a.624.624 0 1 0 1.25 0V12.5a.624.624 0 0 0-.625-.625zM18.125 6.25a.624.624 0 0 0-.625.625v2.5a.624.624 0 1 0 1.25 0v-2.5a.624.624 0 0 0-.625-.625zm3.75 0h-3.75a.624.624 0 1 0 0 1.25h3.75a.624.624 0 1 0 0-1.25zm0 0a.624.624 0 0 0-.625.625v2.5a.624.624 0 1 0 1.25 0v-2.5a.624.624 0 0 0-.625-.625zM20 2.5a.624.624 0 0 0-.625.625v3.75a.624.624 0 1 0 1.25 0v-3.75A.624.624 0 0 0 20 2.5zm6.875 13.125a.624.624 0 0 0-.625.625v10a.624.624 0 1 0 1.25 0v-10a.624.624 0 0 0-.625-.625zm6.25 0h-6.25a.624.624 0 1 0 0 1.25h6.25a.624.624 0 1 0 0-1.25zm0 0a.624.624 0 0 0-.625.625v10a.624.624 0 1 0 1.25 0v-10a.624.624 0 0 0-.625-.625zm-1.875 2.5h-2.5a.624.624 0 1 0 0 1.25h2.5a.624.624 0 1 0 0-1.25zm0 2.5h-2.5a.624.624 0 1 0 0 1.25h2.5a.624.624 0 1 0 0-1.25zm0 2.5h-2.5a.624.624 0 1 0 0 1.25h2.5a.624.624 0 1 0 0-1.25zm-24.375-7.5a.624.624 0 0 0-.625.625v10a.624.624 0 1 0 1.25 0v-10a.624.624 0 0 0-.625-.625zm6.25 0h-6.25a.624.624 0 1 0 0 1.25h6.25a.624.624 0 1 0 0-1.25zm0 0a.624.624 0 0 0-.625.625v10a.624.624 0 1 0 1.25 0v-10a.624.624 0 0 0-.625-.625zm-1.875 2.5h-2.5a.624.624 0 1 0 0 1.25h2.5a.624.624 0 1 0 0-1.25zm0 2.5h-2.5a.624.624 0 1 0 0 1.25h2.5a.624.624 0 1 0 0-1.25zm0 2.5h-2.5a.624.624 0 1 0 0 1.25h2.5a.624.624 0 1 0 0-1.25zm24.375 2.5H4.375a.624.624 0 1 0 0 1.25h31.25a.624.624 0 1 0 0-1.25zm.246.05a.624.624 0 0 0-.82.329l-1.875 4.375a.625.625 0 1 0 1.149.492l1.875-4.375a.625.625 0 0 0-.329-.82zM6.825 30.38L4.95 26.004a.624.624 0 1 0-1.15.492l1.876 4.375a.624.624 0 1 0 1.149-.492zm13.474 7.198l-13.75-7.5a.624.624 0 1 0-.598 1.097l13.75 7.5a.622.622 0 0 0 .848-.25.624.624 0 0 0-.25-.847zm14-7.25a.624.624 0 0 0-.848-.25l-13.75 7.5a.624.624 0 1 0 .598 1.097l13.75-7.5a.624.624 0 0 0 .25-.848zm-9.609-.242a.627.627 0 0 0-.855.225l-4.375 7.5a.626.626 0 0 0 1.08.63l4.375-7.5a.625.625 0 0 0-.225-.855zm-.315-4.46a.624.624 0 0 0-.625.625v4.375a.624.624 0 1 0 1.25 0V26.25a.624.624 0 0 0-.625-.625zm9.688 10a.313.313 0 0 1-.313-.313c0-.171.14-.312.313-.312a.624.624 0 1 0 0-1.25 1.564 1.564 0 0 0 0 3.125.624.624 0 1 0 0-1.25zm3.437-3.75a2.502 2.502 0 0 0-2.5 2.5.624.624 0 1 0 1.25 0 1.251 1.251 0 0 1 2.5 0c0 .69-.56 1.25-1.25 1.25a.624.624 0 1 0 0 1.25c1.379 0 2.5-1.121 2.5-2.5s-1.121-2.5-2.5-2.5zm0 3.75h-3.438a.624.624 0 1 0 0 1.25H37.5a.624.624 0 1 0 0-1.25zm-1.875-1.875h-1.563a.624.624 0 1 0 0 1.25h1.563a.624.624 0 1 0 0-1.25zM8.437 35.625a.624.624 0 1 0 0 1.25.313.313 0 0 1 0 .625.624.624 0 1 0 0 1.25 1.564 1.564 0 0 0 0-3.125zM3.75 33.75a2.502 2.502 0 0 0-2.5 2.5c0 1.379 1.121 2.5 2.5 2.5a.624.624 0 1 0 0-1.25 1.251 1.251 0 0 1 0-2.5c.69 0 1.25.56 1.25 1.25a.624.624 0 1 0 1.25 0c0-1.379-1.121-2.5-2.5-2.5zm4.688 3.75H3.75a.624.624 0 1 0 0 1.25h4.688a.624.624 0 1 0 0-1.25zm0-1.875H5.624a.624.624 0 1 0 0 1.25h2.813a.624.624 0 1 0 0-1.25zm-2.813-32.5a2.503 2.503 0 0 0-2.5 2.5c0 1.379 1.121 2.5 2.5 2.5s2.5-1.121 2.5-2.5-1.121-2.5-2.5-2.5zm0 3.75a1.25 1.25 0 1 1 0-2.5 1.25 1.25 0 0 1 0 2.5zm0-6.875A.624.624 0 0 0 5 .625v1.25a.624.624 0 1 0 1.25 0V.625A.624.624 0 0 0 5.625 0zm0 8.75A.624.624 0 0 0 5 9.375v1.25a.624.624 0 1 0 1.25 0v-1.25a.624.624 0 0 0-.625-.625zm-2.21-6.218l-.883-.885a.624.624 0 1 0-.884.884l.884.885a.623.623 0 0 0 .884 0 .624.624 0 0 0 0-.884zm6.188 6.186l-.884-.884a.624.624 0 1 0-.883.884l.883.884a.623.623 0 0 0 .884 0 .624.624 0 0 0 0-.884zM1.876 5H.625a.624.624 0 1 0 0 1.25h1.25a.624.624 0 1 0 0-1.25zm8.749 0h-1.25a.624.624 0 1 0 0 1.25h1.25a.624.624 0 1 0 0-1.25zM3.416 7.833a.624.624 0 0 0-.883 0l-.885.885a.624.624 0 1 0 .884.883l.884-.884a.624.624 0 0 0 0-.884zm6.186-6.187a.624.624 0 0 0-.884 0l-.884.884a.624.624 0 1 0 .883.883l.885-.883a.624.624 0 0 0 0-.884zm26.02 2.103a3.13 3.13 0 0 0-3.063 2.5h-3.18a1.877 1.877 0 0 0-1.875 1.875c0 1.034.841 1.875 1.875 1.875h6.242a3.129 3.129 0 0 0 3.125-3.125 3.129 3.129 0 0 0-3.125-3.125zm0 5h-6.243a.625.625 0 0 1 0-1.25h3.742c.346 0 .625-.28.625-.625 0-1.034.842-1.875 1.875-1.875 1.034 0 1.875.841 1.875 1.875a1.877 1.877 0 0 1-1.875 1.875z"/></symbol><symbol viewBox="0 0 50 50" id="icon-bus"><path d="M11.667 19.584c0-.785-.318-1.537-.881-2.084a2.912 2.912 0 0 0-2.035-5H7.5c-.92 0-1.667.746-1.667 1.667v6.667c0 .92.746 1.666 1.667 1.666h1.25a2.917 2.917 0 0 0 2.916-2.916zm-4.166-5.417h1.25a1.25 1.25 0 0 1 0 2.5H7.5v-2.5zm0 4.167h1.25a1.25 1.25 0 0 1 0 2.5H7.5v-2.5zm40.832 7.5a2.5 2.5 0 0 0-2.5-2.5h-2.5v-4.167a.808.808 0 0 0-.028-.143c-.325-6.513-6.382-7.357-11.638-7.357-5.28 0-11.374.848-11.64 7.372a.786.786 0 0 0-.026.128v4.166h-2.5a2.5 2.5 0 0 0-2.5 2.5c-.92 0-1.667.747-1.667 1.667v5c0 .92.746 1.667 1.667 1.667h1.666c.92 0 1.667-.747 1.667-1.667v-5c0-.92-.746-1.667-1.667-1.667 0-.46.373-.833.833-.833H20v17.5a2.5 2.5 0 0 0 1.667 2.347V47.5c.003.284.055.566.153.833h-5.153V47.5a2.5 2.5 0 0 0-2.5-2.5h-3.333V25.45a8.334 8.334 0 1 0-5 0V45H2.501A2.5 2.5 0 0 0 0 47.5v1.667c0 .46.373.833.833.833h48.333a.833.833 0 1 0 0-1.667h-7.653c.098-.267.15-.549.153-.833v-2.653a2.5 2.5 0 0 0 1.666-2.347V25h2.5c.46 0 .834.373.834.833-.92 0-1.667.747-1.667 1.667v5c0 .92.746 1.667 1.667 1.667h1.666c.92 0 1.667-.747 1.667-1.667v-5c0-.92-.746-1.667-1.667-1.667zM16.667 32.5H15v-5h1.667v5zm25-12.5v1.667h-20V20h20zm-20 3.333h20v10h-20v-10zm10-10c6.388 0 9.34 1.451 9.893 5H21.767c.526-3.534 3.476-5 9.9-5zm-30 4.167a6.666 6.666 0 1 1 6.667 6.667A6.674 6.674 0 0 1 1.667 17.5zm5.834 8.29a8.131 8.131 0 0 0 1.666 0V45H7.501V25.79zM1.667 48.334V47.5c0-.46.373-.833.834-.833h11.666c.46 0 .834.373.834.833v.833H1.667zm22.5 0a.833.833 0 0 1-.833-.833V45h2.5v2.5c0 .46-.373.833-.834.833h-.833zM35.834 45v2.5c.002.284.054.566.153.833h-8.64c.099-.267.15-.549.154-.833V45h8.333zm2.5 3.333a.833.833 0 0 1-.834-.833V45H40v2.5c0 .46-.373.833-.833.833h-.834zm2.5-5H22.5a.833.833 0 0 1-.833-.833V35h20v7.5c0 .46-.373.833-.834.833zM46.666 32.5v-5h1.666v5h-1.666zM29.31 37.59a1.655 1.655 0 0 0-1.491-.922H25c-.92 0-1.667.746-1.667 1.667V40c0 .92.746 1.667 1.667 1.667h3.651a1.667 1.667 0 0 0 1.491-2.417l-.833-1.661zM25 40v-1.666h2.819L28.656 40h-3.655zm13.333-3.333h-2.818a1.656 1.656 0 0 0-1.49.916l-.834 1.667a1.666 1.666 0 0 0 1.49 2.417h3.652c.92 0 1.667-.746 1.667-1.667v-1.666c0-.92-.746-1.667-1.667-1.667zm0 3.333h-3.651l.833-1.666h2.818V40zm-9.166-23.333h5a.833.833 0 1 0 0-1.667h-5a.833.833 0 1 0 0 1.667zm-1.911 8.577a.833.833 0 0 0-1.178 0l-2.5 2.5a.833.833 0 1 0 1.178 1.179l2.5-2.5a.833.833 0 0 0 0-1.179zm3.822 0l-5 5a.833.833 0 1 0 1.178 1.178l5-5a.833.833 0 0 0-1.178-1.178zm5.678-20.972c.48-.464.748-1.104.744-1.772A2.5 2.5 0 0 0 35 0H11.667a2.436 2.436 0 0 0-1.755.73 2.445 2.445 0 0 0-.744 1.77 2.5 2.5 0 0 0 2.5 2.5h9.166v.151a2.38 2.38 0 0 0-.923.578 2.446 2.446 0 0 0-.744 1.771 2.5 2.5 0 0 0 2.5 2.5H45a2.514 2.514 0 0 0 2.5-2.5A2.5 2.5 0 0 0 45 5h-9.166v-.15a2.38 2.38 0 0 0 .922-.578zM45.834 7.5c0 .224-.093.44-.255.593a.796.796 0 0 1-.579.24H21.667a.833.833 0 0 1-.833-.833c0-.224.092-.439.255-.593a.798.798 0 0 1 .578-.24c.46 0 .833-.373.833-.833V4.167a.833.833 0 0 0-.833-.833h-10a.833.833 0 0 1-.833-.834c0-.224.092-.439.255-.593a.797.797 0 0 1 .578-.24H35c.46 0 .834.373.834.833 0 .225-.092.44-.256.594a.796.796 0 0 1-.578.24.833.833 0 0 0-.833.833v1.667c0 .46.373.833.833.833h10c.46 0 .834.373.834.833z"/></symbol><symbol viewBox="0 0 50 50" id="icon-church"><path d="M50 39.082V33.32l-14.516-5.645V25.78l2.42 1.452v-5.914l-10.485-6.29V8.065h3.226v-4.84H27.42V0h-4.838v3.226h-3.226v4.839h3.226v6.962l-10.484 6.29v5.915l2.42-1.452v1.895L0 33.32v5.763l3.226-1.255v10.56H0V50h50v-1.613h-3.226v-10.56L50 39.082zm-38.71 9.305H8.065v-6.452h3.225v6.452zm3.226 0h-1.613v-8.064H6.452v8.064H4.839V37.201l9.677-3.764v14.95zm0-16.68L1.613 36.724v-2.301l12.903-5.018v2.301zm6.452-25.255V4.839h3.226V1.613h1.613v3.226h3.225v1.613h-3.226v8.064h-1.613V6.452h-3.225zm-7.258 17.93V22.23l10.169-6.102h2.242l10.17 6.102v2.15L25 17.607l-11.29 6.774zm10.483 24.005h-3.225V37.903a4.04 4.04 0 0 1 3.226-3.95v14.434zm4.84 0h-3.227V33.952a4.04 4.04 0 0 1 3.226 3.951v10.484zm4.838 0h-3.226V37.903A5.652 5.652 0 0 0 25 32.258a5.652 5.652 0 0 0-5.645 5.645v10.484h-3.226V24.811L25 19.49l8.871 5.322v23.576zm8.064 0H38.71v-6.452h3.225v6.452zm3.226 0h-1.613v-8.064h-6.451v8.064h-1.613v-14.95l9.677 3.764v11.186zm-9.677-16.68v-2.302l12.903 5.018v2.301l-12.903-5.017zm-16.129-7.513v4.838h11.29v-4.838h-11.29zm4.839 3.225h-3.226v-1.613h3.226v1.613zm4.838 0h-3.225v-1.613h3.225v1.613z"/></symbol><symbol viewBox="0 0 35 45" id="icon-docs"><path d="M0 5.25v39c0 .414.34.75.761.75h28.913c.42 0 .76-.336.76-.75v-31.5c0-.017-.008-.03-.01-.047a.698.698 0 0 0-.038-.193c-.008-.024-.014-.047-.025-.07a.742.742 0 0 0-.152-.22L22.6 4.72a.739.739 0 0 0-.294-.175.763.763 0 0 0-.197-.04c-.013.003-.028-.005-.044-.005H.761A.755.755 0 0 0 0 5.25zM27.837 12h-5.011V7.06L27.837 12zM1.522 6h19.782v6.75c0 .414.341.75.761.75h6.848v30H1.522V6z"/><path d="M31.956 39v1.5h2.283c.42 0 .76-.336.76-.75v-39c0-.414-.34-.75-.76-.75H5.326a.756.756 0 0 0-.761.75V3h1.522V1.5h27.391V39h-1.522z"/><path d="M6.087 15h18.26v1.5H6.088V15zm0-4.5h6.087V12H6.087v-1.5zm0 9H18.26V21H6.087v-1.5zm13.695 0h4.566V21h-4.566v-1.5zM6.087 24h18.26v1.5H6.088V24zm0 9h18.26v1.5H6.088V33zm6.848-4.5h11.413V30H12.935v-1.5zm-6.848 0h5.326V30H6.087v-1.5zm0 9H9.13V39H6.087v-1.5zm4.565 0h13.696V39H10.652v-1.5z"/></symbol><symbol viewBox="0 0 22 20" id="icon-gallery"><path d="M6.784 2.8a1.27 1.27 0 0 0-1.26-1.279H3.276a1.27 1.27 0 0 0-1.26 1.28v1.418h4.767V2.8zm7.699 6.806c-1.655 0-3 1.366-3 3.045 0 1.68 1.346 3.046 3 3.046 1.656 0 3.001-1.367 3.001-3.046 0-1.679-1.345-3.045-3-3.045z"/><path d="M20.35 5.302h-.71l-.994-4.034A1.654 1.654 0 0 0 17.046 0h-5.49c-.758 0-1.418.523-1.601 1.268L8.96 5.302H1.65c-.911 0-1.65.75-1.65 1.675v11.349C0 19.25.739 20 1.65 20h2.842V8.49c0-.41.328-.744.733-.744.405 0 .733.333.733.744V20H20.35c.911 0 1.65-.75 1.65-1.674V6.976c0-.924-.739-1.674-1.65-1.674zm-8.892-3.16c0-.155.124-.28.275-.28h5.226c.151 0 .274.125.274.28V3.94a.277.277 0 0 1-.274.279h-5.226a.277.277 0 0 1-.275-.28V2.142zm3.025 16.055c-3.013 0-5.465-2.488-5.465-5.546 0-3.058 2.452-5.546 5.465-5.546 3.014 0 5.465 2.488 5.465 5.546 0 3.058-2.451 5.546-5.465 5.546z"/></symbol><symbol viewBox="0 0 50 50" id="icon-garage"><path d="M49.439 8.379L25.272.046a.833.833 0 0 0-.543 0L.561 8.379A.833.833 0 0 0 0 9.166v40c0 .46.373.834.833.834H5c.46 0 .833-.373.833-.833V23.333h38.334v25.834c0 .46.373.833.833.833h4.167c.46 0 .833-.373.833-.833v-40a.833.833 0 0 0-.561-.788zM4.167 48.333h-2.5V16.667h2.5v31.666zm40-26.666H5.833V20h38.334v1.666zm0-3.334H5.833v-1.666h38.334v1.666zm4.167 30h-2.5V16.667h2.5v31.666zm0-33.333H1.667V9.76L25 1.716 48.334 9.76V15zm-7.128 20.917l-3.083-1.542-2.75-5.5a2.487 2.487 0 0 0-2.236-1.375H16.863a2.487 2.487 0 0 0-2.235 1.382l-2.75 5.5-3.084 1.541a.833.833 0 0 0-.46.744v11.666C8.334 49.253 9.08 50 10 50h3.334c.92 0 1.666-.746 1.666-1.667v-2.5h20v2.5c0 .92.746 1.667 1.667 1.667H40c.92 0 1.667-.746 1.667-1.667V36.667a.833.833 0 0 0-.46-.75zm-25.088-6.29a.828.828 0 0 1 .745-.46h16.274a.828.828 0 0 1 .745.46l2.27 4.54H13.849l2.27-4.54zm-2.784 18.706H10v-2.5h3.334v2.5zm26.666 0h-3.333v-2.5H40v2.5zm0-4.166H10v-6.985l2.697-1.349h24.607L40 37.182v6.985zM15.834 37.5h-2.5c-.92 0-1.667.746-1.667 1.667v1.666c0 .92.746 1.667 1.667 1.667h2.5c.92 0 1.666-.746 1.666-1.667v-1.666c0-.921-.746-1.667-1.666-1.667zm0 3.333h-2.5v-1.666h2.5v1.666zM36.667 37.5h-2.5c-.92 0-1.666.746-1.666 1.667v1.666c0 .92.746 1.667 1.666 1.667h2.5c.92 0 1.667-.746 1.667-1.667v-1.666c0-.921-.746-1.667-1.667-1.667zm0 3.333h-2.5v-1.666h2.5v1.666zm-7.5-3.333h-8.333c-.92 0-1.667.746-1.667 1.667v1.666c0 .92.746 1.667 1.667 1.667h8.333c.92 0 1.667-.746 1.667-1.667v-1.666c0-.921-.746-1.667-1.667-1.667zm0 3.333h-8.333v-1.666h8.333v1.666z"/></symbol><symbol viewBox="0 0 47 50" id="icon-hospital"><path d="M36.429 21.667v5h6.623v-5H36.43zM41.396 25h-3.311v-1.667h3.311V25zm-4.967 3.333v5h6.623v-5H36.43zm4.967 3.334h-3.311V30h3.311v1.667zM36.43 35v5h6.623v-5H36.43zm4.967 3.333h-3.311v-1.666h3.311v1.666zm-4.967 3.334v5h6.623v-5H36.43zM41.396 45h-3.311v-1.667h3.311V45zM26.494 8.333v-5H19.87v5h-4.967V15h4.967v5h6.624v-5h4.967V8.333h-4.967zm3.311 5h-4.967v5h-3.312v-5H16.56V10h4.967V5h3.312v5h4.967v3.333zm4.968 5V0H11.59v18.333H0V50h46.364V18.333H34.773zm-23.182 30H1.656V20h9.935v28.333zm10.763 0h-4.14v-15h4.14v15zm5.795 0h-4.14v-15h4.14v15zm4.968 0h-3.312V31.667H16.558v16.666h-3.311V1.667h19.87v46.666zm11.59 0h-9.934V20h9.935v28.333zM3.313 21.667v5h6.623v-5H3.312zM8.279 25H4.967v-1.667H8.28V25zm-4.967 3.333v5h6.623v-5H3.312zm4.967 3.334H4.967V30H8.28v1.667zM3.312 35v5h6.623v-5H3.312zm4.967 3.333H4.967v-1.666H8.28v1.666zm-4.967 3.334v5h6.623v-5H3.312zM8.279 45H4.967v-1.667H8.28V45z"/></symbol><symbol viewBox="0 0 50 50" id="icon-kindergarten"><path d="M34.374 23.243a.977.977 0 0 0-.976.976v1.632a.977.977 0 0 0 1.953 0V24.22a.977.977 0 0 0-.977-.976zm5.079 0a.977.977 0 0 0-.977.976v1.632a.977.977 0 1 0 1.953 0V24.22a.977.977 0 0 0-.976-.976zm-10.157 0a.977.977 0 0 0-.976.976v1.632a.977.977 0 0 0 1.953 0V24.22a.977.977 0 0 0-.977-.976zM9.375 36.289a4.34 4.34 0 0 0-4.336 4.336 4.34 4.34 0 0 0 4.336 4.336 4.34 4.34 0 0 0 4.336-4.336 4.34 4.34 0 0 0-4.336-4.336zm0 6.719a2.385 2.385 0 0 1-2.383-2.383 2.385 2.385 0 0 1 2.383-2.382 2.385 2.385 0 0 1 2.383 2.382 2.385 2.385 0 0 1-2.383 2.383zm40.593 1.084l-3.125-12.109a.977.977 0 0 0-.946-.733h-1.171v-2.154a4.206 4.206 0 0 0 3.222-4.083 4.206 4.206 0 0 0-3.222-4.083v-2.765a.977.977 0 0 0-.977-.977h-.778l1.736-8.795a.977.977 0 0 0-.09-.635L42.61 3.852a.976.976 0 0 0-.868-.53h-6.044c-.36 0-.69.197-.86.513l-2.105 3.906h.002a.976.976 0 0 0-.098.662l1.821 8.786h-8.482V8.107A4.108 4.108 0 0 0 29.2 4.101 4.106 4.106 0 0 0 25.097 0H4.102A4.106 4.106 0 0 0 0 4.101a4.108 4.108 0 0 0 2.93 3.93v23.22H.977a.977.977 0 0 0-.977.976v8.398C0 45.795 4.206 50 9.375 50a9.38 9.38 0 0 0 8.116-4.687h4.079A5.672 5.672 0 0 0 27.148 50a5.672 5.672 0 0 0 5.578-4.687h2.906A5.672 5.672 0 0 0 41.21 50a5.672 5.672 0 0 0 5.578-4.687h2.234a.976.976 0 0 0 .946-1.22zm-5.242-21.101a2.249 2.249 0 0 1 1.27 2.022c0 .889-.52 1.659-1.27 2.022v-4.044zM36.28 5.275h4.865l1.003 1.953h-6.92l1.052-1.953zm6.28 3.906l-1.58 8.007h-4.528l-1.66-8.007h7.768zm-16.585 9.96h16.797v12.11H25.976V19.14zM1.953 4.101a2.15 2.15 0 0 1 2.149-2.148h20.995a2.15 2.15 0 0 1 2.149 2.148 2.15 2.15 0 0 1-2.149 2.149H4.102A2.15 2.15 0 0 1 1.953 4.1zm22.07 4.103V31.25H4.883V8.204h19.14zm-22.07 25h1.701a9.457 9.457 0 0 0-1.7 1.7v-1.7zm7.422 14.843c-4.092 0-7.422-3.33-7.422-7.422 0-3.987 3.162-7.25 7.11-7.414h.624c3.948.165 7.11 3.427 7.11 7.414 0 4.093-3.33 7.422-7.422 7.422zm17.773-2.734h3.58a3.717 3.717 0 0 1-3.58 2.734 3.715 3.715 0 0 1-3.71-3.711 3.715 3.715 0 0 1 3.71-3.71c1.708 0 3.15 1.16 3.58 2.733h-3.58a.977.977 0 0 0 0 1.954zm14.062 2.734a3.717 3.717 0 0 1-3.58-2.734h3.58a.977.977 0 0 0 0-1.954h-3.58a3.717 3.717 0 0 1 3.58-2.734 3.715 3.715 0 0 1 3.71 3.711 3.715 3.715 0 0 1-3.71 3.71zm5.578-4.687a5.672 5.672 0 0 0-5.578-4.688 5.672 5.672 0 0 0-5.578 4.688h-2.906a5.672 5.672 0 0 0-5.578-4.688 5.672 5.672 0 0 0-5.578 4.688h-3.227a9.364 9.364 0 0 0-3.237-10.148l30.035-.008 2.621 10.156h-.974zM9.375 15.297a.977.977 0 0 0-.977.976v9.062a.977.977 0 0 0 1.954 0v-9.062a.977.977 0 0 0-.977-.976zm0-3.34a.977.977 0 0 0-.977.976v.011a.977.977 0 0 0 1.954 0v-.011a.977.977 0 0 0-.977-.977zm25.954 23.33h-9.061a.977.977 0 1 0 0 1.953h9.061a.977.977 0 0 0 0-1.953zm3.34 0h-.01a.977.977 0 1 0 0 1.953h.01a.977.977 0 0 0 0-1.953z"/></symbol><symbol viewBox="0 0 50 50" id="icon-market"><path d="M47.702 18.053H36.489L28.606 3.212a2.27 2.27 0 0 0-1.346-1.106 2.333 2.333 0 0 0-2.26.497 2.333 2.333 0 0 0-2.26-.497 2.27 2.27 0 0 0-1.346 1.106l-8.309 15.643a2.181 2.181 0 0 0 .114 2.255H2.3a.824.824 0 0 1-.834-.814c0-.448.374-.813.833-.813h8.35c.405 0 .733-.32.733-.715a.724.724 0 0 0-.733-.715h-8.35C1.031 18.053 0 19.059 0 20.296c0 1.027.71 1.893 1.674 2.16l4.242 22.09C6.189 45.968 7.462 47 8.944 47h32.112c1.482 0 2.755-1.032 3.028-2.454l4.242-22.09c.965-.267 1.674-1.133 1.674-2.16 0-1.237-1.031-2.243-2.298-2.243zm-21.52-14.53a.846.846 0 0 1 1.124.348l8.308 15.643a.791.791 0 0 1 .055.62.812.812 0 0 1-.41.476.845.845 0 0 1-1.124-.347L25.826 4.62a.805.805 0 0 1 .356-1.097zm9.753 19.017l-.693 6.978h-9.51V22.54h10.203zM25 6.17l7.835 14.751c.034.065.072.128.112.189H17.053c.04-.06.078-.124.112-.189l.764-1.438h11.148c.405 0 .733-.32.733-.715a.724.724 0 0 0-.733-.715H18.69L25 6.17zM14.386 19.515L22.694 3.87a.823.823 0 0 1 .488-.4.852.852 0 0 1 .636.053.805.805 0 0 1 .356 1.097l-8.31 15.643a.845.845 0 0 1-1.123.348.812.812 0 0 1-.41-.477.791.791 0 0 1 .055-.62zM3.18 22.54h9.412l.693 6.978H4.52L3.18 22.54zm1.614 8.408h8.633l.693 6.978H6.135l-1.34-6.978zm4.15 14.622a1.607 1.607 0 0 1-1.588-1.287l-.946-4.927h7.853l.617 6.214H8.944zm15.324 0h-7.916l-.617-6.214h8.533v6.214zm0-7.644h-8.675l-.693-6.978h9.368v6.978zm0-8.408h-9.51l-.693-6.978h10.203v6.978zm9.38 16.052h-7.916v-6.214h8.533l-.617 6.214zm.76-7.644h-8.676v-6.978H35.1l-.693 6.978zm8.236 6.357a1.607 1.607 0 0 1-1.588 1.287H35.12l.617-6.214h7.853l-.946 4.927zm1.22-6.357H35.88l.693-6.978h8.633l-1.34 6.978zm1.616-8.408h-8.766l.693-6.978h9.412l-1.34 6.978zm2.222-8.408H36.801a2.182 2.182 0 0 0 .335-1.627h10.566c.46 0 .833.365.833.814a.825.825 0 0 1-.833.813z"/></symbol><symbol viewBox="0 0 54 37" id="icon-next"><path d="M53.264 16.732l-16.07-16a2.519 2.519 0 0 0-3.55 0c-.98.977-.98 2.56 0 3.536L45.427 16H2.511A2.506 2.506 0 0 0 0 18.5C0 19.88 1.124 21 2.51 21h42.917L33.644 32.732c-.98.977-.98 2.56 0 3.536A2.51 2.51 0 0 0 35.42 37a2.51 2.51 0 0 0 1.775-.732l16.07-16c.98-.977.98-2.56 0-3.536z"/></symbol><symbol viewBox="0 0 20 27" id="icon-objacts"><path d="M9.643.645C4.663.825.526 4.841.048 9.965a10.736 10.736 0 0 0 .2 3.293c.154.712.386 1.403.673 2.05 1.003 2.454 3.32 6.56 8.522 11.026a.848.848 0 0 0 1.11 0c5.202-4.461 7.52-8.567 8.527-11.03.293-.649.52-1.334.673-2.05A10.725 10.725 0 0 0 20 10.97C20 5.138 15.328.438 9.643.645zm.355 15.465c-2.683 0-4.857-2.246-4.857-5.018 0-2.773 2.174-5.02 4.857-5.02 2.683 0 4.857 2.247 4.857 5.02 0 2.772-2.174 5.018-4.857 5.018z"/></symbol><symbol viewBox="0 0 50 50" id="icon-palace"><path d="M.92 13.812a2.023 2.023 0 0 0-.032.299v2.057c.003.847.53 1.605 1.324 1.903v3.026a1.903 1.903 0 0 0 1.812 1.894v17.485a1.903 1.903 0 0 0-1.812 1.894v3.018a2.062 2.062 0 0 0-1.324 1.92v2.013a.68.68 0 0 0 .68.679h45.835a.68.68 0 0 0 .68-.68v-2.01a2.062 2.062 0 0 0-1.323-1.921v-3.036a1.903 1.903 0 0 0-1.813-1.894V22.991a1.903 1.903 0 0 0 1.813-1.894v-3.026a2.04 2.04 0 0 0 1.322-1.903v-2.044c-.003-.1-.013-.2-.031-.299a.676.676 0 0 0 .548-1.237L24.8.078a.68.68 0 0 0-.635 0L.363 12.576a.68.68 0 0 0 .557 1.237zm2.65 5.437v-1.047h7.84v1.038l-7.84.009zm17.454 3.747v17.48a1.903 1.903 0 0 0-1.813 1.894v2.89H12.76v-2.89a1.903 1.903 0 0 0-1.812-1.894V22.99a1.903 1.903 0 0 0 1.812-1.894v-2.895h6.443v2.891c.002 1.015.8 1.85 1.813 1.898l.009.005zm-.453-3.747v-1.047h7.838v1.038l-7.838.009zm17.453 3.747v17.48a1.903 1.903 0 0 0-1.813 1.894v2.89H29.76v-2.89a1.904 1.904 0 0 0-1.812-1.894V22.99a1.903 1.903 0 0 0 1.812-1.894v-2.895h6.443v2.891a1.903 1.903 0 0 0 1.813 1.898l.009.005zm-.453-3.747v-1.047h7.838v1.038l-7.838.009zm7.838 24.974v1.038h-7.847v-1.038h7.847zm-17 0v1.038h-7.847v-1.038h7.847zm-7.303-22.577a.543.543 0 0 1-.544-.544v-.494H28.4v.494c0 .3-.243.544-.543.544h-6.752zm5.486 1.359v17.462h-4.218V23.005h4.218zm1.265 18.821c.3 0 .543.243.543.544v.494h-7.838v-.494c0-.3.243-.544.543-.544h6.752zM11.4 44.223v1.038H3.562v-1.038H11.4zM3.562 21.116v-.508H11.4v.494c0 .3-.243.544-.544.544H4.092a.544.544 0 0 1-.53-.549v.018zm6.026 1.902v17.449H5.374V23.005l4.214.013zM3.562 42.384c0-.3.243-.544.543-.544h6.751c.301 0 .544.243.544.544v.493H3.562v-.493zm43.161 6.284H2.24v-1.332c0-.388.314-.703.702-.703h43.08c.382 0 .695.307.702.69v1.345zm-1.323-5.79h-7.838v-.494c0-.3.243-.544.543-.544h6.765c.29.007.523.24.53.53v.508zm-6.026-2.397V23.005h4.218v17.462l-4.218.014zM45.4 21.115c0 .3-.243.544-.543.544H38.11a.543.543 0 0 1-.544-.543v-.508h7.838l-.004.508zM24.481 1.439l20.24 10.638H4.24L24.48 1.439zM2.239 14.124a.68.68 0 0 1 .68-.68h43.125a.68.68 0 0 1 .68.68v2.057a.68.68 0 0 1-.68.68H2.918a.68.68 0 0 1-.68-.68v-2.057z"/></symbol><symbol viewBox="0 0 50 50" id="icon-park"><path d="M49.153 43.329H38.486v-5.13c2.33-.318 4.394-1.794 5.594-4.031 1.595-.37 3.044-1.306 4.116-2.67 1.163-1.48 1.804-3.37 1.804-5.324 0-2.973-1.5-5.724-3.862-7.153-.246-4.958-4.013-8.91-8.601-8.91a8.05 8.05 0 0 0-4.133 1.153.842.842 0 0 0-.29 1.144.817.817 0 0 0 1.128.295 6.418 6.418 0 0 1 3.295-.921c3.834 0 6.96 3.472 6.967 7.74 0 .315.175.602.451.744 2.064 1.06 3.397 3.379 3.397 5.908 0 3.192-2.13 5.955-4.957 6.428a.825.825 0 0 0-.608.462c-.883 1.859-2.48 3.115-4.3 3.443v-7.395l4.054-3.781a.844.844 0 0 0 .048-1.181.816.816 0 0 0-1.164-.05l-2.939 2.742v-5.578a.83.83 0 0 0-.823-.836.83.83 0 0 0-.824.836v10.114l-2.94-2.742a.815.815 0 0 0-1.163.05.844.844 0 0 0 .048 1.18l4.055 3.782v2.898c-1.943-.254-3.656-1.558-4.575-3.53a.826.826 0 0 0-.574-.461c-2.733-.59-4.717-3.273-4.717-6.381 0-2.451 1.218-4.67 3.18-5.79a.838.838 0 0 0 .418-.807l-.001-.04c0-1.74.506-3.385 1.464-4.756a.843.843 0 0 0-.195-1.165.816.816 0 0 0-1.149.198c-1.091 1.562-1.697 3.412-1.762 5.37-2.234 1.478-3.603 4.11-3.603 6.99 0 3.745 2.344 7.007 5.629 7.919 1.236 2.362 3.423 3.89 5.885 4.135v5.1h-.522c-.121-2.186-1.595-4.089-3.647-4.731a4.894 4.894 0 0 0-3.366-2.724c-.482-2.223-2.455-3.881-4.754-3.881a4.847 4.847 0 0 0-4.238 2.505 5.018 5.018 0 0 0-4.077 2.397c-.543-1.517-1.935-2.62-3.564-2.739v-2.197c2.224-.314 4.193-1.725 5.344-3.86 1.528-.357 2.916-1.257 3.944-2.564 1.119-1.422 1.735-3.24 1.735-5.12 0-2.852-1.437-5.492-3.698-6.869C19.75 8.789 16.132 5 11.726 5c-1.69 0-3.315.553-4.7 1.599a.844.844 0 0 0-.17 1.17.816.816 0 0 0 1.153.17c1.1-.83 2.384-1.268 3.717-1.268 3.652 0 6.628 3.309 6.635 7.375 0 .315.175.602.452.744 1.964 1.009 3.233 3.216 3.233 5.624 0 3.039-2.028 5.67-4.716 6.12a.825.825 0 0 0-.608.461c-.835 1.755-2.337 2.947-4.051 3.27v-7.022l3.87-3.61a.844.844 0 0 0 .049-1.18.815.815 0 0 0-1.164-.05l-2.755 2.57v-5.26a.83.83 0 0 0-.824-.835.83.83 0 0 0-.824.836v9.601l-2.755-2.57a.816.816 0 0 0-1.164.05.844.844 0 0 0 .049 1.18l3.87 3.61v2.719c-1.832-.254-3.445-1.49-4.313-3.355a.825.825 0 0 0-.574-.46c-2.6-.56-4.489-3.116-4.489-6.075 0-2.334 1.16-4.446 3.027-5.511a.838.838 0 0 0 .418-.806v-.037a8.05 8.05 0 0 1 .557-2.97 7.74 7.74 0 0 1 .378-.814.842.842 0 0 0-.33-1.133.817.817 0 0 0-1.117.334 9.424 9.424 0 0 0-.46.991 9.697 9.697 0 0 0-.67 3.235C1.31 15.126 0 17.653 0 20.414c0 3.596 2.248 6.729 5.4 7.612 1.185 2.254 3.272 3.716 5.623 3.961v2.39a4.102 4.102 0 0 0-2.17 1.8c-2 .116-3.617 1.615-3.93 3.591a5.364 5.364 0 0 0-2.976 3.56H.824a.83.83 0 0 0-.824.836.83.83 0 0 0 .824.836h48.329a.83.83 0 0 0 .824-.836.83.83 0 0 0-.824-.835zm-45.478 0a3.678 3.678 0 0 1 2.272-2.171.834.834 0 0 0 .57-.77c.041-1.428 1.177-2.546 2.585-2.546.057 0 .118.002.194.008a.823.823 0 0 0 .82-.51 2.45 2.45 0 0 1 2.263-1.525c1.272 0 2.346 1.007 2.445 2.292a.83.83 0 0 0 .757.768c.225.018.442.068.648.144l.002.001a2.364 2.364 0 0 1 .24.105l.035.017c.047.025.093.05.138.078l.074.045.053.037a2.35 2.35 0 0 1 .218.17l.026.022a2.476 2.476 0 0 1 .335.368l.016.022c.064.088.122.182.175.279l.02.039a2.412 2.412 0 0 1 .132.3.828.828 0 0 0 .603.538c.073.016.146.036.216.058l.069.023c.047.017.094.033.14.051l.079.035c.041.018.082.037.122.057l.08.043a2.523 2.523 0 0 1 .466.324c.022.02.045.038.066.058.034.031.066.063.098.096l.056.057c.036.039.07.08.104.12l.038.045a2.7 2.7 0 0 1 .128.175c.009.013.016.026.024.04.031.047.062.096.09.146.013.023.024.046.036.07.022.04.043.082.063.125a2.676 2.676 0 0 1 .084.203l.03.086a2.769 2.769 0 0 1 .108.434l.005.043H3.674zm18.384 0l-.003-.024c-.01-.1-.021-.199-.037-.297l-.004-.017a4.38 4.38 0 0 0-.06-.297l-.003-.012a4.461 4.461 0 0 0-.08-.287l-.01-.03a4.12 4.12 0 0 0-.097-.27l-.015-.038a4.435 4.435 0 0 0-.113-.256l-.02-.04a4.473 4.473 0 0 0-.13-.245l-.022-.037a4.476 4.476 0 0 0-.15-.238 4.48 4.48 0 0 0-.19-.262l-.011-.015a4.442 4.442 0 0 0-.195-.23l-.002-.002a4.454 4.454 0 0 0-.208-.214l-.018-.018a4.569 4.569 0 0 0-.213-.19l-.03-.024a4.355 4.355 0 0 0-.221-.17l-.035-.025a4.278 4.278 0 0 0-.515-.312l-.034-.017a4.25 4.25 0 0 0-.263-.122l-.024-.01a4.207 4.207 0 0 0-.285-.106l-.014-.025a4.2 4.2 0 0 0-.105-.2c-.018-.033-.039-.066-.058-.099a4.268 4.268 0 0 0-.3-.438l-.054-.065a4.119 4.119 0 0 0-.218-.245l-.039-.041a4.036 4.036 0 0 0-.298-.272l-.085-.069c-.036-.028-.071-.056-.108-.083a4.206 4.206 0 0 0-.158-.11l-.043-.03a3.375 3.375 0 0 1 3.168-1.671.823.823 0 0 0 .82-.51 3.215 3.215 0 0 1 2.97-2.003c1.67 0 3.08 1.322 3.21 3.01a.83.83 0 0 0 .758.768 3.23 3.23 0 0 1 2.775 2.143.828.828 0 0 0 .6.533c1.52.332 2.648 1.658 2.775 3.212H22.059z"/></symbol><symbol viewBox="0 0 54 37" id="icon-prev"><path d="M.736 20.268l16.069 16c.98.976 2.57.976 3.55 0a2.49 2.49 0 0 0 0-3.536L8.574 21H51.49c1.386 0 2.51-1.12 2.51-2.5S52.876 16 51.49 16H8.572L20.356 4.268c.98-.977.98-2.56 0-3.536A2.51 2.51 0 0 0 18.58 0a2.51 2.51 0 0 0-1.775.732l-16.07 16c-.98.977-.98 2.56 0 3.536z"/></symbol><symbol viewBox="0 0 50 50" id="icon-school"><path d="M18.333 30.833c0 .46.373.834.833.834H22.5c.46 0 .833-.374.833-.834v-5A.834.834 0 0 0 22.5 25h-3.334a.834.834 0 0 0-.833.833v5zM20 26.667h1.666V30H20v-3.333zm-.833-5H22.5c.46 0 .833-.374.833-.834v-5A.834.834 0 0 0 22.5 15h-3.333a.834.834 0 0 0-.834.833v5c0 .46.374.834.834.834zm.833-5h1.667V20H20v-3.333zm-7.07-.953L25 8.472l12.07 7.242a.832.832 0 0 0 1.143-.285.833.833 0 0 0-.284-1.143L25.833 7.028V1.667H30v1.666h-2.5A.834.834 0 0 0 27.5 5h3.333c.46 0 .834-.373.834-.833V.833A.834.834 0 0 0 30.832 0H25a.834.834 0 0 0-.833.833v6.195L12.07 14.286a.833.833 0 1 0 .858 1.428zM9.166 31.667c.46 0 .833-.374.833-.834v-5A.834.834 0 0 0 9.167 25H5.833a.834.834 0 0 0-.833.833V27.5a.834.834 0 0 0 1.667 0v-.833h1.666v4.166c0 .46.374.834.834.834zM15 42.5V18.333a.834.834 0 0 0-1.666 0V42.5a.834.834 0 0 0 1.666 0zm-4.167 4.167h28.334a.834.834 0 0 0 0-1.667h-7.5v-8.333h.833a.834.834 0 0 0 0-1.667h-15a.834.834 0 0 0 0 1.667h.833V45h-7.5a.834.834 0 0 0 0 1.667zm15-5a.834.834 0 0 0 0-1.667v-3.333H30V45h-4.167v-3.333zm-5.833-5h4.167V40a.834.834 0 0 0 0 1.667V45H20v-8.333zm24.167-.834h-3.334a.834.834 0 0 0-.833.834v5c0 .46.373.833.833.833h3.334c.46 0 .833-.373.833-.834v-5a.834.834 0 0 0-.833-.833zm-.834 5h-1.666V37.5h1.666v3.333zm.834-15h-3.334a.834.834 0 0 0-.833.834v5c0 .46.373.833.833.833h3.334c.46 0 .833-.373.833-.833v-5a.834.834 0 0 0-.833-.834zm-.834 5h-1.666V27.5h1.666v3.333zm-.833 17.5h-35A.834.834 0 0 0 7.5 50h35a.834.834 0 0 0 0-1.667zm6.667-30a.834.834 0 0 0-.834.834V20h-9.166a.834.834 0 0 0 0 1.666h9.166v27.5a.834.834 0 0 0 1.667 0v-30a.834.834 0 0 0-.833-.833zm-22.5 12.5c0 .46.373.834.833.834h3.333c.46 0 .833-.374.833-.834v-5a.834.834 0 0 0-.833-.833H27.5a.834.834 0 0 0-.834.833v5zm1.666-4.166H30V30h-1.667v-3.333zm-20 14.166C8.333 40.725 8.286 30 4.167 30 .047 30 0 40.725 0 40.833a4.174 4.174 0 0 0 3.333 4.083v4.25a.834.834 0 0 0 1.667 0v-4.25a4.174 4.174 0 0 0 3.333-4.083zm-4.166 2.5a2.503 2.503 0 0 1-2.5-2.5c0-4.151 1.115-9.166 2.5-9.166s2.5 5.015 2.5 9.166c0 1.379-1.122 2.5-2.5 2.5zm32.5-.833v-25a.834.834 0 0 0-1.667 0v25a.834.834 0 0 0 1.667 0zM27.5 21.667h3.333c.46 0 .833-.374.833-.834v-5a.834.834 0 0 0-.833-.833H27.5a.834.834 0 0 0-.834.833v5c0 .46.374.834.834.834zm.833-5H30V20h-1.667v-3.333zm-27.5 12.5c.46 0 .834-.374.834-.834v-6.666h9.166a.834.834 0 0 0 0-1.667H1.667v-.833a.834.834 0 0 0-1.667 0v9.166c0 .46.373.834.833.834z"/></symbol><symbol viewBox="0 0 16 18" id="icon-scroll"><path fill-rule="evenodd" clip-rule="evenodd" d="M15.071 11.343l-6.364 6.364a1 1 0 0 1-1.414 0L.929 11.343A1 1 0 1 1 2.343 9.93L7 14.586V0h2v14.586l4.657-4.657a1 1 0 0 1 1.414 1.414z"/></symbol><symbol viewBox="0 0 16 17" id="icon-search"><path d="M15.757 15.484l-3.944-4.208a6.949 6.949 0 0 0 1.57-4.412C13.382 3.079 10.38 0 6.69 0 3.001 0 0 3.08 0 6.864s3.002 6.863 6.691 6.863a6.505 6.505 0 0 0 3.834-1.242l3.974 4.24a.856.856 0 0 0 1.234.025.913.913 0 0 0 .024-1.266zM6.69 1.791c2.727 0 4.946 2.275 4.946 5.073 0 2.797-2.219 5.073-4.946 5.073S1.746 9.66 1.746 6.864c0-2.798 2.218-5.073 4.945-5.073z"/></symbol><symbol viewBox="0 0 50 50" id="icon-shop"><path d="M47.702 43.557h-.833V22.153C48.75 20.96 50 18.88 50 16.517a.714.714 0 0 0-.096-.357L44.092 6.14A2.31 2.31 0 0 0 42.096 5H7.904a2.31 2.31 0 0 0-1.996 1.14L.096 16.16a.714.714 0 0 0-.096.357c0 2.364 1.25 4.443 3.131 5.636v21.404h-.833a.727.727 0 0 0-.732.721c0 .399.328.722.732.722h45.404a.727.727 0 0 0 .732-.721.727.727 0 0 0-.732-.722zM1.515 17.239h2.348a.727.727 0 0 0 .733-.722.727.727 0 0 0-.733-.721H1.995l5.185-8.94a.837.837 0 0 1 .724-.413h34.192c.299 0 .576.158.724.414l5.185 8.939h-1.869a.727.727 0 0 0-.732.721c0 .399.327.722.732.722h2.349c-.358 2.557-2.591 4.533-5.284 4.533-2.693 0-4.925-1.976-5.283-4.533h5.087a.727.727 0 0 0 .733-.722.727.727 0 0 0-.733-.721H6.995a.727.727 0 0 0-.732.721c0 .399.328.722.732.722h5.087c-.358 2.557-2.59 4.533-5.283 4.533-2.693 0-4.926-1.976-5.284-4.533zm34.835 0c-.358 2.557-2.59 4.533-5.283 4.533-2.693 0-4.925-1.976-5.283-4.533H36.35zm-12.134 0c-.358 2.557-2.59 4.533-5.283 4.533-2.693 0-4.925-1.976-5.283-4.533h10.566zM41.49 43.557h-7.93v-2.413h7.93v2.413zm0-3.856h-7.93V26.493h7.93V39.7zm3.914 3.856h-2.45V25.771a.727.727 0 0 0-.732-.721h-9.394a.727.727 0 0 0-.732.721v17.786h-27.5V22.852a6.858 6.858 0 0 0 2.203.363 6.818 6.818 0 0 0 6.067-3.675 6.818 6.818 0 0 0 6.067 3.675A6.818 6.818 0 0 0 25 19.54a6.818 6.818 0 0 0 6.067 3.675 6.818 6.818 0 0 0 6.067-3.675 6.818 6.818 0 0 0 6.067 3.675 6.86 6.86 0 0 0 2.203-.363v20.705zM28.914 25.05H7.778a.727.727 0 0 0-.733.721v14.652c0 .398.328.721.733.721h21.136a.727.727 0 0 0 .733-.721V25.77a.727.727 0 0 0-.733-.721zm-.732 14.65H8.51V26.493h19.672V39.7z"/></symbol><symbol viewBox="0 0 97.395 97.395" id="inst"><path d="M12.501 0h72.393c6.875 0 12.5 5.09 12.5 12.5v72.395c0 7.41-5.625 12.5-12.5 12.5H12.501C5.624 97.395 0 92.305 0 84.895V12.5C0 5.09 5.624 0 12.501 0zm58.447 10.821a4.395 4.395 0 0 0-4.383 4.385v10.495a4.396 4.396 0 0 0 4.383 4.385h11.008a4.398 4.398 0 0 0 4.385-4.385V15.206a4.397 4.397 0 0 0-4.385-4.385H70.948zm15.439 30.367h-8.572a28.486 28.486 0 0 1 1.25 8.355c0 16.2-13.556 29.332-30.275 29.332-16.718 0-30.272-13.132-30.272-29.332 0-2.904.438-5.708 1.25-8.355h-8.945v41.141a3.884 3.884 0 0 0 3.872 3.872h67.822a3.883 3.883 0 0 0 3.872-3.872V41.188h-.002zM48.789 29.533c-10.802 0-19.56 8.485-19.56 18.953s8.758 18.953 19.56 18.953c10.803 0 19.562-8.485 19.562-18.953s-8.758-18.953-19.562-18.953z"/></symbol><symbol viewBox="0 0 99 76" id="logotip"><path d="M85.261 11.506c-.045-.546-.045-1.137-.09-1.683l-.047.045c1.69-.09 3.47-.454 5.021.91-.274 1 .64 1.319 1.37 1.774.502.318 1.095.59 1.551 1 1.507 1.183 3.104 1.82 5.021 1.5.64-.09.913.183.913.865 0 .728-.183.955-.959.955-2.19-.046-4.427 0-6.618 0-.365 0-.776.045-1.278.045v44.25c0 1.364 0 1.364 1.37 1.364.73 0 1.415.045 2.145 0 .776-.046 1.095.227.821 1.091H.091C.046 63.44 0 63.304 0 63.167c0-.136.046-.318.091-.59.959 0 1.872-.046 2.785 0 .958.09 1.278-.228 1.278-1.229-.046-7.958.09-15.871-.092-23.83-.045-2.592.64-4.274 2.784-5.775 2.876-2.001 5.523-4.366 8.262-6.594.274-.228.548-.41 1.004-.773v36.972c0 .364.091 1.046.274 1.092.593.136 1.232.045 1.826.045.09 0 .228-.318.228-.454.045-.319 0-.637 0-.956V24.104c.958.727 1.734 1.228 2.373 1.864.229.228.229.773.229 1.183v34.107c0 1.365 0 1.365 1.369 1.365.274 0 .502-.046.867-.046V27.832c.959.682 1.78 1.137 2.465 1.728.228.182.182.728.182 1.091v30.515c0 1.365.822 1.956 2.1 1.456.137-.046.274-.319.32-.5.045-.228 0-.5 0-.774V20.647c0-.91.228-1.501 1.004-2.092 3.605-2.684 7.165-5.458 10.726-8.186.228-.182.456-.319.867-.591v51.388c0 .5.046 1.32.274 1.41.593.182 1.323.091 2.008.046.137 0 .274-.319.32-.5.045-.319 0-.637 0-.956V9.186c1.323 1.501 2.556 2.502 2.51 4.639-.091 15.871-.046 31.697-.046 47.569 0 .41.092 1.137.274 1.182.594.137 1.278.091 1.917.046.092 0 .228-.364.228-.591.046-.364 0-.774 0-1.183V13.507c1.278 1.364 2.556 2.183 2.51 4.275-.136 8.049-.045 16.098-.045 24.102v1.41c1.187-.773 2.054-1.364 2.008-2.91-.09-7.231-.045-14.462-.045-21.693v-1.046c.091-.045.137-.045.228-.09.685.636 1.415 1.273 2.054 2 .228.227.228.728.228 1.091v19.056c2.008-1.683 3.788-3.184 5.843-4.867V61.53c0 .364.182 1.046.319 1.046.639.091 1.324.046 2.008-.045.092 0 .183-.591.183-.864V35.29c1.689.227 2.602 1.273 2.602 2.82v23.147c0 .455.045.91.045 1.32.183.045.274.09.365.09 1.643.137 1.643.137 1.643-1.546v-22.42c.959.773 1.735 1.319 2.42 2 .228.228.228.728.228 1.092V61.44c0 .41.091 1.092.228 1.137.639.137 1.278.091 1.917 0 .137 0 .228-.636.228-.955V42.84c.959.819 1.735 1.41 2.42 2.092.228.228.182.728.182 1.092V61.62c0 .637 0 1.092.913 1.092s.958-.41.958-1.137V39.11c0-2.638.046-5.275 0-7.958 0-.773.183-1.092 1.05-1.046 1.734.045 1.506-.046 1.506 1.546v29.833c0 1.228.046 1.228 1.233 1.228.639 0 .775-.273.775-.819v-43.43c0-.41.046-1.183.229-1.228.639-.137 1.323-.091 2.008-.091.091 0 .228.273.274.455.046.318.046.636.046.955v44.158c.684 0 1.323.045 1.917-.046.182 0 .456-.318.502-.546.09-.454.045-.909.045-1.364V18.691c0-2.046.137-1.637-1.643-1.683-.182 0-.365-.045-.684-.045-.046-.591-.138-1.183-.183-1.774l-.046.046c.594 0 1.233.045 1.826 0 .228 0 .593-.182.685-.364.32-.955.593-1.956.958-3.138-.958-.273-2.054-.273-3.104-.227zm9.22 3.501c.046-.09.046-.136.092-.227a432.971 432.971 0 0 0-4.29-2.683c0 .955-.046 1.683.045 2.365 0 .182.41.5.593.5 1.187.045 2.374.045 3.56.045z"/><path d="M78.278 14.962c-.137 1.864-.137 1.864-2.1 1.864H62.942c.639-1.136 1.232-2.091 2.693-1.819.274.046.593 0 .867-.09 2.465-1.046 4.93-2.092 7.394-3.32H53.174c.457-1.41 1.005-1.82 2.282-1.82h8.307c-.228-.545-.365-.954-.593-1.5h2.191c-.183.455-.365.864-.548 1.41.411.045.73.045 1.096.045 3.97 0 7.896-.045 11.867.046.867 0 1.278-.273 1.232-1.137 0-.819.366-1.274 1.233-1.092.182.046.456.319.502.546.137.5 0 1.228.274 1.5.273.274.958.137 1.46.183.457 1.41.32 1.637-1.05 1.728-.593.045-.684.272-.684.773 0 .91-.046 1.819-.046 2.728l.046-.045h-2.465c.046-1.091.137-2.183.228-3.456-1.552.09-2.966-.182-4.427.5-1.871.91-3.88 1.683-5.797 2.501-.228.091-.41.228-.821.455h10.817z"/><path d="M85.17 9.823c-.776-.045-1.506-.136-2.373-.182.045-.682.09-1.364.137-2-.183-.046-.32-.092-.457-.092-1.689-.136-1.689-.136-1.78-1.819.64 0 1.278.046 1.963 0 .228 0 .593-.227.593-.41.183-1.09.32-2.228.502-3.546-3.058 1.318-5.933 2.5-8.855 3.729 0 .09.046.136.046.227h4.336c-.41 1.82-.41 1.82-2.328 1.82H54.817c.457-1.729.548-1.865 2.1-1.774 4.062.227 8.033-.364 12.004-1.274 4.61-1.091 9.266-1.955 13.876-2.91.593-.137.958-.273 1.095-.955.046-.273.64-.41.959-.637 0 .136-.046.273-.046.455.502.545.958 1.182 1.506 1.591 1.324 1.001 2.784 1.91 4.108 2.911.822.637 1.643.955 2.693.819.502-.046 1.004 0 1.598 0v1.728c-.411.045-.776.09-1.142.09-2.464 0-4.929.046-7.394 0-.776 0-1.14.183-1.05 1.047.183.272.092.727.046 1.182zm-19.718-4.32v.227c.73 0 1.507-.045 2.237 0 4.062.41 7.896-.364 11.502-2.32.776-.409 1.643-.727 2.51-1.09 0-.046-.045-.137-.045-.183-5.478 1.092-10.818 2.229-16.204 3.366zm19.9.136h5.478c.046-.045.046-.136.091-.182-1.78-1.228-3.606-2.501-5.568-3.82V5.64zM26.564 69.58c-.273 1.046.457 2.274-.867 3.047 1.46.773.594 2.092.913 3.092-1.46.318-1.552.228-1.598-1.137 0-.455-.136-.955-.182-1.41-.137 0-.274.046-.41.046v2.592c-.412.046-.686.046-.96.091-.684.091-1.004-.136-.958-.91.046-.59 0-1.182 0-1.773-.137 0-.274-.046-.456-.046-.046.455-.183.955-.183 1.41-.046 1.319-.091 1.365-1.597 1.183.365-1-.502-2.32.913-3.138-1.37-.728-.594-2.047-.868-3.047 1.46-.273 1.552-.182 1.598 1.091 0 .455.091.91.182 1.364h.411c0-.363.046-.727.046-1.091 0-1.637 0-1.637 1.871-1.41v2.456c.137 0 .274.046.457.046.09-.455.182-.956.182-1.41-.046-1.274 0-1.365 1.506-1.046zm10.133 6.23h-1.78v-5.048c-.091 0-.228-.045-.32-.045-.09.227-.228.454-.228.682-.045.818 0 1.682 0 2.501 0 1.82-.41 2.137-2.373 1.91 0-.182-.137-.5-.046-.591 1.005-1.137.502-2.501.548-3.775.091-1.955 0-1.955 1.963-1.955 2.373 0 2.373 0 2.373 2.365 0 1.227 0 2.455-.046 3.683 0 .046-.045.137-.09.273zm19.307-3.229v1.274c-.045 1.455-.73 2.137-2.19 2.137-1.416 0-2.146-.682-2.192-2.137a29.011 29.011 0 0 1 0-2.82c.092-1.182.822-1.774 2.1-1.774 1.37 0 2.1.546 2.19 1.774.092.546.047 1.046.092 1.546zm-2.328-2.365v4.776c.594-.774.64-3.866 0-4.776zM4.61 72.672v1.273c-.091 1.41-.73 2.047-2.145 2.047S.32 75.355.274 73.9a24.554 24.554 0 0 1 0-2.592c.046-1.41.776-2.001 2.19-2.001 1.416 0 2.1.636 2.146 2.046.046.41 0 .864 0 1.32zm-2.282 2.365c.639-1 .593-4.047-.091-4.82-.092 1.682-.229 3.137.09 4.82zm64.63-1.592c-.136.41-.273.819-.456 1.228-.456 1.273-.456 1.273-2.008 1.092v-5.412c0-.546.045-.91.776-.91.684 0 .821.364.776.91-.046.5 0 1 .228 1.546.182-.41.365-.864.456-1.273.228-1.046.822-1.365 1.871-1v6.23h-1.414v-2.32c-.092-.09-.137-.09-.229-.09zm-57.282-.727c0 .409.046.818 0 1.273-.09 1.41-.821 2.092-2.236 2.001-1.37-.046-2.054-.728-2.054-2.137 0-.956-.046-1.865 0-2.82.091-1.137.822-1.774 2.1-1.774 1.323 0 2.054.546 2.19 1.683.046.591.046 1.137.092 1.728-.046.046-.092.046-.092.046zm-2.008-2.502c-.639.91-.639 3.957 0 4.776v-4.776zm7.075 2.411c0 .5.045.955 0 1.455-.092 1.319-.868 1.956-2.237 1.91-1.324-.046-2.008-.728-2.054-2.047a30.974 30.974 0 0 1 0-2.91c.046-1.137.822-1.774 2.1-1.774 1.323 0 2.054.546 2.19 1.683 0 .546-.045 1.137 0 1.683zm-2.328 2.41c.639-.864.639-3.957 0-4.775v4.775zm46.099-3.183c.229-.637.502-1.228.685-1.865.228-.728.776-.637 1.233-.5.228.045.456.545.502.818.045 1.683 0 3.366 0 5.048 0 .137-.046.228-.092.455h-1.415v-2.274c-.091 0-.182-.045-.228-.045l-.41 1.228c-.412 1.318-.412 1.318-2.055 1.137v-5.64c0-.545.229-.727.776-.727.502 0 .822.136.776.682v1.683c.091-.046.137-.046.228 0zM29.896 73.4c-.913 1-.365 3.047-2.647 2.32V70.171c0-.546.228-.728.73-.728s.776.182.776.728 0 1.137.229 1.728c.182-.455.41-.91.501-1.41.229-1.046.868-1.228 1.872-.955v6.276h-1.415c-.046-.773-.046-1.455-.046-2.41zm12.096-1.274h-1.735a95.369 95.369 0 0 1-.274-1.864c-.684.636-.776 3.547-.045 4.593.137-.5.228-1 .365-1.546h1.552c.274 1.637-.274 2.456-1.78 2.592-1.598.182-2.465-.5-2.51-2.046a27.17 27.17 0 0 1 0-2.73c.045-1.272.775-1.91 2.145-1.955 1.46 0 2.19.592 2.236 1.91.091.41.046.683.046 1.046zm35.648.91c1.003.5 1.094 1.182.866 2-.228.82-.958.774-1.597.82-2.51.136-2.51.136-2.51-2.32v-2.228c0-.5.182-.728.684-.682.593.045 1.233-.091 1.826.045.502.137 1.14.41 1.37.819.41.5.182 1.137-.64 1.546zm-4.017-2.456v5.185h-1.644c0-.319 0-.683-.091-1-.091-.274-.228-.547-.365-.865-.091.273-.274.5-.32.819-.045.318 0 .636 0 1.046H69.47c0-1.592-.046-3.184.046-4.775 0-.137.684-.364 1.004-.364.228 0 .502.318.639.545.182.364.274.819.365 1.228.137-.409.274-.818.365-1.228.274-1.137 1.095-.363 1.734-.59zm9.584 2.638c-.775.045-1.506.09-2.19.09v1.638c.09 0 .182.046.273.046.137-.364.274-.774.411-1.228h1.37c.228 1.182-.229 1.91-1.324 2.092-1.46.272-2.51-.273-2.602-1.41-.091-.637-.045-1.274-.045-1.956.045-1.455.593-2 2.008-2.046 1.37 0 2.1.636 2.145 2.046 0 .273-.046.455-.046.728zm-34.323.091v2.456h-1.826c0-1.91 0-3.866.046-5.822 0-.181.32-.454.547-.5.457-.09.913-.045 1.37-.045 1.78.045 2.145.364 2.1 2.183-.046 1.228-.229 1.455-1.461 1.591-.228.091-.411.091-.776.137zm.41-2.729c-.09 0-.228 0-.319.046v1.5h.32c.32-.545.365-1.046 0-1.546zm38.478 1.91h-1.415c-.091-.318-.228-.682-.32-1.091-.593.727-.547 2.956.092 3.683.137-.454.228-.864.32-1.273h1.277c.274 1.228-.182 1.91-1.323 2.138-1.415.227-2.328-.319-2.465-1.501-.091-.682-.046-1.41-.046-2.138.046-1.228.73-1.819 2.054-1.773 1.278 0 1.826.545 1.826 1.955zm-42.357 3.32c-.457 0-.73.046-1.004.046-.594.045-.822-.182-.776-.774.045-1.136-.046-2.273 0-3.365.045-.727-.183-1.182-1.05-1.091v-1.183c1.187 0 2.328-.045 3.469.046.228 0 .456.545.867 1.091-1.689-.09-1.506.819-1.506 1.592v3.638zm43.863-4.047c-.41-.091-.73-.182-.959-.228-.228-.727 0-1 .685-.955.959.046 1.917 0 3.24 0-.273.5-.41.955-.593 1-.593.092-.639.456-.639.865v3.32h-1.734v-4.002zm-4.017-56.801c-.867 0-1.688 0-2.556-.046l.046.046c0-.819.091-1.683.046-2.501-.046-.728.273-.955.958-.91.502.046 1.004-.045 1.552-.045h-.046a43.677 43.677 0 0 0 0 3.456zm-4.473 3.274c0 1.183 0 1.183-1.323 1.183-1.187 0-1.187 0-1.187-1.32 0-1.227 0-1.227 1.37-1.227 1.14 0 1.14 0 1.14 1.364zm-.091 11.006h-2.373v-1.729h2.373v1.729zm.183-7.413h-2.648c.046-.591-.045-1.546.229-1.592.639-.227 1.415-.273 2.054-.045.228.045.228.955.365 1.637zm-1.37 5.002c-1.232 0-1.369-.09-1.186-1.182.045-.227.365-.5.593-.637.228-.09.548 0 .867-.045.64-.046 1.05.045 1.05.91 0 .818-.32 1-1.05.954h-.274zm-1.369-4.274h2.647c-.045.59.046 1.5-.182 1.591-.593.228-1.415.273-2.054.046-.274-.046-.274-.955-.41-1.637zm2.556-7.55c.685 0 1.324 0 2.008-.045l-.045-.046c0 .364.045.728 0 1.046-.046.273-.183.728-.365.728-.457.091-.913 0-1.415-.09-.092 0-.092-.32-.137-.501a2.934 2.934 0 0 0-.046-1.092zM66 17.327c-.365.727-.684 1.41-1.14 2.274-.412-.819-.777-1.501-1.188-2.274H66zm-11.274-5.003h2.328c-.365.773-.685 1.41-1.141 2.32-.457-.864-.776-1.547-1.187-2.32zm7.988 61.394c-.274 0-.548.046-.776 0-.137-.045-.365-.318-.365-.455.045-.182.228-.5.365-.545.41-.091.822-.091 1.232 0 .228.045.457.318.685.454-.228.182-.456.41-.685.546-.137.091-.32.046-.456 0zm29.759-2.41c-.046-.41-.183-.773-.137-1.183.046-.272.32-.454.502-.682.183.228.594.5.548.637-.137.5-.41.955-.64 1.41a.953.953 0 0 0-.273-.182zm-75.448 0c-.046-1.228.046-1.365.959-1.774.136 1.956.136 1.956-.959 1.774zm77.045-.046c-.045-.409-.182-.864-.09-1.273.045-.227.41-.41.593-.591.182.227.502.455.456.636-.137.5-.456.91-.685 1.41-.045-.045-.137-.09-.273-.182zm-75.493.046c-.091-.864.091-1.5.958-1.82.229 2.047.229 2.047-.958 1.82zm39.162-3.32c.776.546 1.506.5 2.327-.227-.091.955-.456 1.273-1.05 1.364-.73.09-1.232-.182-1.277-1.137z"/></symbol><symbol viewBox="0 0 12 12" id="modal-close"><path d="M11.414 2.414a1.414 1.414 0 1 0-2-2l-3.5 3.5-3.5-3.5a1.414 1.414 0 1 0-2 2l3.5 3.5-3.5 3.5a1.414 1.414 0 0 0 2 2l3.5-3.5 3.5 3.5a1.414 1.414 0 1 0 2-2l-3.5-3.5 3.5-3.5z"/></symbol><symbol viewBox="0 0 7 4" id="navbar-dropdown"><path d="M3.5 4a.488.488 0 0 1-.347-.144L.143.84a.492.492 0 0 1 0-.695.49.49 0 0 1 .694 0L3.5 2.814 6.163.144a.49.49 0 0 1 .693 0 .492.492 0 0 1 0 .695l-3.01 3.017A.488.488 0 0 1 3.5 4z"/></symbol><symbol viewBox="0 0 11 17" id="pagin-next"><path fill-rule="evenodd" clip-rule="evenodd" d="M.9.98A1.5 1.5 0 0 0 .98 3.1l5.816 5.4-5.817 5.4a1.5 1.5 0 0 0 2.042 2.2l7-6.5a1.5 1.5 0 0 0 0-2.2l-7-6.5A1.5 1.5 0 0 0 .9.98z"/></symbol><symbol viewBox="0 0 11 17" id="pagin-prev"><path fill-rule="evenodd" clip-rule="evenodd" d="M10.1.98a1.5 1.5 0 0 1-.08 2.12L4.205 8.5l5.817 5.4a1.5 1.5 0 0 1-2.042 2.2l-7-6.5a1.5 1.5 0 0 1 0-2.2l7-6.5a1.5 1.5 0 0 1 2.12.08z"/></symbol><symbol viewBox="0 0 44 44" id="view"><path fill-rule="evenodd" clip-rule="evenodd" d="M43 22c0 11.598-9.402 21-21 21S1 33.598 1 22 10.402 1 22 1s21 9.402 21 21zm1 0c0 12.15-9.85 22-22 22S0 34.15 0 22 9.85 0 22 0s22 9.85 22 22zm-4.968 0c0 9.407-7.625 17.032-17.032 17.032S4.968 31.407 4.968 22 12.593 4.968 22 4.968 39.032 12.593 39.032 22zm-11.443.798h-4.79v4.79a.798.798 0 1 1-1.597 0v-4.79h-4.79a.798.798 0 1 1 0-1.597h4.79v-4.79a.798.798 0 0 1 1.596 0v4.79h4.79a.799.799 0 0 1 0 1.597z"/></symbol><symbol viewBox="0 0 304.36 304.36" id="vk"><path d="M261.945 175.576c10.096 9.857 20.752 19.131 29.807 29.982 4 4.822 7.787 9.798 10.684 15.394 4.105 7.955.387 16.709-6.746 17.184l-44.34-.02c-11.436.949-20.559-3.655-28.23-11.474-6.139-6.253-11.824-12.908-17.727-19.372-2.42-2.642-4.953-5.128-7.979-7.093-6.053-3.929-11.307-2.726-14.766 3.587-3.523 6.421-4.322 13.531-4.668 20.687-.475 10.441-3.631 13.186-14.119 13.664-22.414 1.057-43.686-2.334-63.447-13.641-17.422-9.968-30.932-24.04-42.691-39.971-22.895-31.021-40.428-65.108-56.186-100.15C-2.01 76.458.584 72.22 9.295 72.07c14.465-.281 28.928-.261 43.41-.02 5.879.086 9.771 3.458 12.041 9.012 7.826 19.243 17.402 37.551 29.422 54.521 3.201 4.518 6.465 9.036 11.113 12.216 5.142 3.521 9.057 2.354 11.476-3.374 1.535-3.632 2.207-7.544 2.553-11.434 1.146-13.383 1.297-26.743-.713-40.079-1.234-8.323-5.922-13.711-14.227-15.286-4.238-.803-3.607-2.38-1.555-4.799 3.564-4.172 6.916-6.769 13.598-6.769h50.111c7.889 1.557 9.641 5.101 10.721 13.039l.043 55.663c-.086 3.073 1.535 12.192 7.07 14.226 4.43 1.448 7.35-2.096 10.008-4.905 11.998-12.734 20.561-27.783 28.211-43.366 3.395-6.852 6.314-13.968 9.143-21.078 2.096-5.276 5.385-7.872 11.328-7.757l48.229.043c1.43 0 2.877.021 4.262.258 8.127 1.385 10.354 4.881 7.844 12.817-3.955 12.451-11.65 22.827-19.174 33.251-8.043 11.129-16.645 21.877-24.621 33.072-7.328 10.223-6.746 15.376 2.357 24.255zm0 0" fill-rule="evenodd" clip-rule="evenodd"/></symbol></svg>