<?xml version="1.0" standalone="no"?>
<!DOCTYPE svg PUBLIC "-//W3C//DTD SVG 20010904//EN"
 "http://www.w3.org/TR/2001/REC-SVG-20010904/DTD/svg10.dtd">
<svg version="1.0" xmlns="http://www.w3.org/2000/svg"
 width="700.000000pt" height="700.000000pt" viewBox="0 0 700.000000 700.000000"
 preserveAspectRatio="xMidYMid meet">
<metadata>
Created by potrace 1.11, written by Peter Selinger 2001-2013
</metadata>
<g transform="translate(0.000000,700.000000) scale(0.100000,-0.100000)"
fill="#000000" stroke="none">
<path d="M1 4033 c0 -1633 3 -2962 6 -2955 3 9 44 12 153 12 151 0 191 8 207
39 4 9 8 558 9 1221 0 879 3 1217 12 1251 38 150 96 222 313 385 96 73 287
226 424 340 276 231 330 274 339 274 3 0 6 -776 6 -1724 0 -1097 4 -1734 10
-1750 9 -25 12 -26 94 -26 74 0 87 3 96 19 7 13 10 581 10 1766 l0 1746 101
-77 c55 -43 108 -89 117 -103 16 -23 17 -160 20 -1681 2 -1535 4 -1656 19
-1667 10 -8 49 -13 100 -13 l83 0 0 1595 c0 877 3 1595 6 1595 6 0 161 -106
204 -139 l25 -20 5 -1485 5 -1485 21 -28 c11 -15 33 -34 48 -41 34 -17 101 -7
127 19 19 19 19 68 19 1958 0 1437 3 1947 12 1972 6 19 20 46 30 61 10 15 132
114 271 220 139 106 362 278 497 383 247 192 318 245 332 245 4 0 9 -1087 10
-2415 3 -1967 5 -2416 16 -2427 18 -18 175 -16 196 1 14 12 16 252 16 2460 l1
2446 46 -50 c66 -73 132 -164 157 -215 l21 -45 5 -2292 c4 -1744 8 -2295 17
-2304 16 -16 170 -16 186 0 9 9 13 550 17 2259 l5 2246 75 -83 c85 -93 115
-139 131 -196 8 -28 11 -395 10 -1249 l-2 -1209 28 18 c65 41 112 87 132 128
21 43 21 47 21 1130 0 771 3 1087 11 1087 16 0 121 -94 170 -153 l44 -52 5
-911 5 -912 260 219 260 218 5 -1252 c4 -1019 7 -1256 18 -1275 13 -23 18 -24
102 -20 49 1 92 7 97 11 4 5 9 569 11 1254 l2 1245 32 -6 c51 -10 119 -48 148
-84 57 -69 54 -11 58 -1263 l2 -1157 23 -6 c45 -12 125 -6 141 10 14 14 16
127 16 1100 0 596 4 1084 8 1084 13 0 199 -157 217 -183 13 -19 15 -136 16
-957 0 -852 4 -1028 21 -1045 11 -11 171 -6 182 5 8 8 12 275 14 905 1 492 5
895 8 895 15 0 217 -186 225 -207 5 -14 9 -349 9 -797 0 -602 3 -776 13 -789
6 -9 24 -19 40 -23 l27 -6 0 2961 0 2961 -3500 0 -3500 0 1 -2967z"/>
<path d="M0 503 l0 -503 3500 0 3500 0 0 500 0 500 -3500 2 -3500 3 0 -502z"/>
</g>
</svg>
