<svg width="14" height="15" viewBox="0 0 14 15" xmlns="http://www.w3.org/2000/svg">
<path d="M5.79374 7.55206C6.13063 7.94858 6.43393 8.23871 6.43108 8.23611C6.42827 8.23377 6.69414 8.55856 7.06375 8.92468C7.36092 9.21885 7.69124 9.5092 8.05726 9.78494C8.47243 10.098 9.12157 10.1385 9.47398 9.92268C9.82664 9.7071 10.5047 9.26976 11.012 9.38131C11.4382 9.47494 12.0041 9.78867 12.6849 10.5949C14.2902 12.4967 12.8521 13.0904 11.8555 13.8572C10.858 14.6236 7.56727 12.7252 4.55355 9.63228C1.53957 6.53957 0.404499 3.34004 1.2389 2.39815C2.07352 1.45627 2.76917 0.0605341 4.54253 1.80491C5.29437 2.54465 5.56495 3.13391 5.62702 3.5672C5.70107 4.08308 5.21726 4.72988 4.97719 5.06698C4.73716 5.4043 4.73034 6.05674 5.01129 6.49503C5.25867 6.88166 5.5229 7.23338 5.79374 7.55206Z"/>
</svg>
