<svg width="13" height="10" viewBox="0 0 13 10" xmlns="http://www.w3.org/2000/svg">
<path d="M11.3502 9.16234C11.6156 9.16234 11.8457 9.08013 12.0412 8.91781L8.69524 5.77965C8.61496 5.83357 8.53715 5.88599 8.46364 5.93584C8.21325 6.10886 8.01002 6.24388 7.85397 6.34062C7.69793 6.43759 7.49033 6.53643 7.23119 6.63733C6.97187 6.73836 6.73029 6.78872 6.50618 6.78872H6.49305C6.26892 6.78872 6.02733 6.73838 5.76804 6.63733C5.50874 6.53643 5.30114 6.43759 5.14526 6.34062C4.98923 6.24388 4.78611 6.10888 4.53558 5.93584C4.46577 5.88784 4.38834 5.83517 4.30463 5.77881L0.958008 8.91781C1.15354 9.08013 1.38371 9.16234 1.64916 9.16234H11.3502Z"/>
<path d="M1.26043 3.80343C1.01006 3.64688 0.788025 3.46758 0.594727 3.26562V8.04007L3.54386 5.27422C2.95387 4.88792 2.19369 4.39822 1.26043 3.80343Z"/>
<path d="M11.7457 3.80343C10.848 4.37324 10.0851 4.86379 9.45679 5.27533L12.4047 8.04019V3.26562C12.2157 3.46352 11.9961 3.64269 11.7457 3.80343Z"/>
<path d="M11.3516 0.459473H1.65059C1.31216 0.459473 1.05196 0.566655 0.869682 0.780799C0.687255 0.995043 0.596191 1.26298 0.596191 1.58431C0.596191 1.84386 0.717038 2.12509 0.958623 2.42807C1.20021 2.73094 1.45728 2.96883 1.72969 3.14187C1.87904 3.24083 2.3294 3.53447 3.08079 4.02268C3.4864 4.28629 3.83914 4.51606 4.14227 4.71434C4.40064 4.88318 4.62347 5.02939 4.80744 5.15073C4.82856 5.16462 4.86177 5.18691 4.90586 5.21647C4.95335 5.24846 5.01345 5.28906 5.0876 5.33927C5.23038 5.43612 5.34899 5.51441 5.44347 5.57421C5.53781 5.63404 5.65212 5.70086 5.78622 5.77506C5.92021 5.84916 6.04658 5.90489 6.1652 5.94195C6.28384 5.97899 6.39366 5.99757 6.4947 5.99757H6.50782C6.60883 5.99757 6.71868 5.97899 6.83734 5.94195C6.95593 5.90489 7.0822 5.84929 7.2163 5.77506C7.35027 5.70086 7.46443 5.63389 7.55907 5.57421C7.65354 5.51441 7.77216 5.43614 7.91496 5.33927C7.98896 5.28906 8.04906 5.24844 8.09655 5.21657C8.14066 5.18689 8.17385 5.16475 8.1951 5.15073C8.33842 5.0572 8.56176 4.91159 8.86203 4.71605C9.40841 4.36001 10.2131 3.83598 11.2794 3.14187C11.6001 2.93179 11.8681 2.67827 12.0834 2.38168C12.2984 2.08509 12.4061 1.77398 12.4061 1.44845C12.4061 1.17647 12.3016 0.943745 12.0931 0.749911C11.8844 0.556319 11.6372 0.459473 11.3516 0.459473Z"/>
</svg>
