<svg width="100" height="29" viewBox="0 0 100 29" xmlns="http://www.w3.org/2000/svg">
<path d="M36.9155 11.343V3.08426H40.3981C42.9852 3.08426 44.7762 4.5768 44.7762 7.26336C44.7762 9.75092 42.8857 11.4425 40.3981 11.4425L36.9155 11.343ZM42.5872 7.16387C42.5872 5.87034 41.7911 4.87531 40.2986 4.87531H38.9056V9.35292H40.2986C41.7911 9.45242 42.5872 8.4574 42.5872 7.16387ZM45.5722 7.16387C45.5722 4.67631 47.4628 2.88526 49.9503 2.88526C52.4379 2.88526 54.3284 4.57681 54.3284 7.16387C54.3284 9.75093 52.4379 11.4425 49.9503 11.4425C47.4628 11.4425 45.5722 9.75093 45.5722 7.16387ZM52.2389 7.16387C52.2389 5.77084 51.3434 4.7758 49.9503 4.7758C48.5573 4.7758 47.6618 5.77084 47.6618 7.16387C47.6618 8.4574 48.5573 9.55192 49.9503 9.55192C51.3434 9.55192 52.2389 8.5569 52.2389 7.16387ZM60.1991 11.343L58.8061 8.5569H57.7115V11.343H55.622V3.08426H59.8011C61.5921 3.08426 62.5871 4.2783 62.5871 5.87033C62.5871 7.36287 61.6916 8.05939 60.8956 8.35789L62.5871 11.4425H60.1991V11.343ZM60.4976 5.87033C60.4976 5.27332 60.0996 4.9748 59.5026 4.9748H57.811V6.66636H59.5026C60.0001 6.66636 60.4976 6.36785 60.4976 5.87033ZM63.4827 7.16387C63.4827 4.67631 65.3732 2.88526 67.8608 2.88526C70.3483 2.88526 72.2389 4.57681 72.2389 7.16387C72.2389 9.75093 70.3483 11.4425 67.8608 11.4425C65.3732 11.4425 63.4827 9.75093 63.4827 7.16387ZM70.0498 7.16387C70.0498 5.77084 69.1543 4.7758 67.7613 4.7758C66.3682 4.7758 65.4727 5.77084 65.4727 7.16387C65.4727 8.4574 66.3682 9.55192 67.7613 9.55192C69.1543 9.55192 70.0498 8.5569 70.0498 7.16387ZM79.1045 11.343V7.95988H75.7215V11.343H73.5324V3.08426H75.7215V6.16884H79.1045V3.08426H81.1941V11.343H79.1045ZM82.3881 7.16387C82.3881 4.67631 84.2787 2.88526 86.7662 2.88526C89.2538 2.88526 91.1443 4.57681 91.1443 7.16387C91.1443 9.75093 89.2538 11.4425 86.7662 11.4425C84.2787 11.4425 82.3881 9.75093 82.3881 7.16387ZM89.0548 7.16387C89.0548 5.77084 88.1593 4.7758 86.7662 4.7758C85.3732 4.7758 84.4777 5.77084 84.4777 7.16387C84.4777 8.4574 85.3732 9.55192 86.7662 9.55192C88.2588 9.55192 89.0548 8.5569 89.0548 7.16387ZM94.3284 11.343L91.2438 3.08426H93.6319L95.6219 9.05441L97.612 3.08426H100L96.9155 11.343H94.3284ZM36.9155 25.0743V16.7161H40.3981C42.9852 16.7161 44.8757 18.2086 44.8757 20.8952C44.8757 23.4822 42.9852 25.0743 40.3981 25.0743H36.9155ZM42.7862 20.8952C42.7862 19.6017 41.9901 18.6066 40.4976 18.6066H39.1046V23.1838H40.4976C41.8906 23.1838 42.7862 22.1887 42.7862 20.8952ZM46.1692 25.0743V16.7161H52.2389V18.6066H48.3583V19.9002H52.1394V21.6912H48.3583V23.0843H52.2389V24.9748H46.1692V25.0743ZM53.2339 23.8803L54.3284 22.2882C54.9255 22.8852 55.821 23.3827 56.9155 23.3827C57.612 23.3827 58.1095 23.0843 58.1095 22.6862C58.1095 21.5917 53.4329 22.4872 53.4329 19.2036C53.4329 17.8106 54.627 16.6166 56.7165 16.6166C58.01 16.6166 59.2041 17.0146 60.0996 17.8106L58.9056 19.3032C58.209 18.7061 57.3135 18.4076 56.5175 18.4076C55.9205 18.4076 55.622 18.6066 55.622 19.0046C55.622 19.9997 60.2986 19.3031 60.2986 22.3877C60.2986 24.0793 59.0051 25.1738 56.816 25.1738C55.224 25.1738 54.1294 24.6763 53.2339 23.8803ZM61.5921 16.7161H63.6817V24.9748H61.5921V16.7161ZM65.0747 20.8952C65.0747 18.3081 67.1642 16.6166 69.5523 16.6166C71.3434 16.6166 72.5374 17.6116 73.0349 18.7061L71.2439 19.7012C70.9453 19.2037 70.2488 18.7061 69.4528 18.7061C68.0598 18.7061 67.0647 19.7012 67.0647 21.0942C67.0647 22.4872 68.0598 23.4823 69.4528 23.4823C70.0498 23.4823 70.7463 23.2833 70.9454 22.9847V22.2882H69.0548V20.3977H73.0349V23.6813C72.1394 24.6763 70.9453 25.2733 69.3533 25.2733C67.0647 25.1738 65.0747 23.4822 65.0747 20.8952ZM80.3981 25.0743L76.9155 20.1987V25.0743H74.8259V16.7161H77.015L80.3981 21.2932V16.7161H82.4876V25.0743H80.3981Z M11.2438 0H0V28.4577H11.3433C20.8955 28.4577 26.9652 22.8856 26.9652 14.2288C26.9652 5.57214 20.796 0 11.2438 0ZM11.0448 22.786H5.97014V6.06965H11.0448C17.0149 6.06965 20.995 8.45772 20.995 14.1294C21.0945 18.9055 17.3134 22.786 11.0448 22.786ZM12.1393 10.8458H10.8458V17.6119H12.1393C14.7263 17.6119 16.2189 16.1194 16.2189 14.1294C16.2189 11.8408 14.5273 10.8458 12.1393 10.8458Z"/>
</svg>