<svg width="14" height="14" viewBox="0 0 14 14" xmlns="http://www.w3.org/2000/svg">
<path d="M13.9987 11.2808C13.9801 10.7392 13.7655 10.2338 13.3945 9.85773C12.668 9.12128 12.0593 8.69613 11.4789 8.51982C10.6793 8.27684 9.9385 8.49778 9.27743 9.17651C9.27644 9.17752 9.27545 9.17856 9.27446 9.1796L8.57115 9.91346C8.13161 9.65298 7.27692 9.08105 6.35351 8.11029L6.28505 8.03838C5.36149 7.06748 4.81749 6.16879 4.56995 5.70723L5.26806 4.96782C5.26905 4.96678 5.27004 4.96574 5.27102 4.96468C5.91662 4.26976 6.12678 3.49106 5.89568 2.65026C5.72794 2.04014 5.32356 1.40024 4.62301 0.636497C4.26527 0.246491 3.78458 0.0209043 3.26945 0.00138076C2.75401 -0.0181701 2.2594 0.170448 1.87581 0.532426L1.86088 0.546536C1.85396 0.553071 1.84719 0.559825 1.84059 0.566743C1.07696 1.36953 0.676665 2.49339 0.682934 3.81686C0.693624 6.06513 1.86899 8.63622 3.827 10.6946C4.19621 11.0828 4.61583 11.4669 5.07418 11.8364C5.30216 12.0201 5.62869 11.9748 5.8035 11.7351C5.97834 11.4954 5.93522 11.1522 5.70721 10.9684C5.28494 10.628 4.89986 10.2757 4.56267 9.92128C2.79409 8.062 1.73265 5.77797 1.72331 3.81142C1.7185 2.79215 2.01015 1.9414 2.56684 1.35006L2.57082 1.34629C2.94893 0.989479 3.52138 1.01119 3.87413 1.39573C5.2209 2.86404 5.12339 3.55723 4.52828 4.19878L3.56399 5.22013C3.41276 5.38031 3.37065 5.6217 3.45797 5.82787C3.48244 5.88567 4.07467 7.26143 5.54956 8.81196L5.61805 8.88385C7.09277 10.4342 8.40143 11.0568 8.45642 11.0825C8.65248 11.1744 8.88215 11.1301 9.03449 10.9711L10.006 9.95732C10.6164 9.33166 11.2757 9.2292 12.6724 10.645C13.0381 11.0158 13.0588 11.6177 12.7195 12.0151L12.7158 12.0194C12.1579 12.5999 11.3572 12.9062 10.3982 12.9062C10.3903 12.9062 10.3824 12.9062 10.3745 12.9062C9.60796 12.9022 8.72032 12.6813 7.8076 12.2674C7.54386 12.1477 7.23769 12.2756 7.12393 12.5529C7.01013 12.8303 7.13173 13.1521 7.39555 13.2717C8.45057 13.7501 9.45107 13.9951 10.3693 13.9999C10.3791 14 10.3888 14 10.3985 14C11.6448 14 12.7032 13.5795 13.4609 12.7829C13.4675 12.776 13.4739 12.7689 13.4801 12.7616L13.4936 12.7458C13.8379 12.3426 14.0173 11.8223 13.9987 11.2808Z"/>
</svg>
