<svg width="14" height="17" viewBox="0 0 14 17" xmlns="http://www.w3.org/2000/svg">
<path d="M6.94024 9.16008C6.95728 9.16008 6.97432 9.16008 6.99477 9.16008C7.00159 9.16008 7.0084 9.16008 7.01522 9.16008C7.02544 9.16008 7.03908 9.16008 7.0493 9.16008C8.04795 9.14247 8.85574 8.77987 9.4522 8.08635C10.7644 6.5585 10.5463 3.93933 10.5224 3.68938C10.4372 1.81301 9.57831 0.915304 8.86937 0.496376C8.34107 0.183061 7.72416 0.0140816 7.03567 0H7.01181C7.0084 0 7.00159 0 6.99818 0H6.97773C6.5994 0 5.85638 0.0633672 5.14403 0.482295C4.42827 0.901222 3.55573 1.79892 3.47052 3.68938C3.44666 3.93933 3.22853 6.5585 4.54075 8.08635C5.1338 8.77987 5.94158 9.14247 6.94024 9.16008ZM4.38055 3.77739C4.38055 3.76683 4.38396 3.75626 4.38396 3.74922C4.49644 1.2251 6.2313 0.954028 6.97432 0.954028H6.98795C6.99477 0.954028 7.00499 0.954028 7.01522 0.954028C7.93548 0.97515 9.49992 1.36239 9.60558 3.74922C9.60558 3.75979 9.60558 3.77035 9.60898 3.77739C9.61239 3.80203 9.85098 6.1959 8.76712 7.4562C8.33766 7.9561 7.76506 8.20253 7.01181 8.20957C7.00499 8.20957 7.00159 8.20957 6.99477 8.20957C6.98795 8.20957 6.98454 8.20957 6.97773 8.20957C6.22789 8.20253 5.65187 7.9561 5.22583 7.4562C4.14538 6.20294 4.37715 3.79851 4.38055 3.77739Z"/>
<path d="M13.9991 13.5044C13.9991 13.5009 13.9991 13.4974 13.9991 13.4938C13.9991 13.4657 13.9957 13.4375 13.9957 13.4058C13.9752 12.7088 13.9309 11.0789 12.4517 10.5578C12.4415 10.5543 12.4278 10.5508 12.4176 10.5473C10.8804 10.1424 9.6023 9.22713 9.58867 9.21656C9.38076 9.06519 9.09445 9.11799 8.94789 9.33274C8.80133 9.54748 8.85246 9.8432 9.06037 9.99457C9.11831 10.0368 10.4748 11.012 12.1722 11.4626C12.9664 11.7548 13.055 12.6314 13.0788 13.434C13.0788 13.4657 13.0788 13.4938 13.0822 13.522C13.0857 13.8388 13.0652 14.3282 13.0107 14.6098C12.4585 14.9337 10.2942 16.0532 7.00172 16.0532C3.72287 16.0532 1.54492 14.9302 0.989354 14.6063C0.93482 14.3247 0.910962 13.8353 0.917779 13.5185C0.917779 13.4903 0.921187 13.4622 0.921187 13.4305C0.945046 12.6278 1.03366 11.7513 1.82781 11.4591C3.52518 11.0084 4.88171 10.0298 4.93965 9.99105C5.14756 9.83967 5.19869 9.54396 5.05213 9.32922C4.90557 9.11447 4.61927 9.06167 4.41136 9.21304C4.39772 9.22361 3.1264 10.1389 1.58241 10.5438C1.56878 10.5473 1.55855 10.5508 1.54833 10.5543C0.0690949 11.0789 0.0247863 12.7088 0.00433608 13.4023C0.00433608 13.434 0.004336 13.4622 0.000927637 13.4903C0.000927637 13.4939 0.000927637 13.4974 0.000927637 13.5009C-0.00248073 13.684 -0.00588903 14.6239 0.174754 15.0956C0.208838 15.1872 0.270189 15.2646 0.35199 15.3174C0.454241 15.3878 2.90486 17.0002 7.00512 17.0002C11.1054 17.0002 13.556 15.3843 13.6583 15.3174C13.7366 15.2646 13.8014 15.1872 13.8355 15.0956C14.0059 14.6274 14.0025 13.6875 13.9991 13.5044Z"/>
</svg>
