<svg width="50" height="50" viewBox="0 0 50 50" xmlns="http://www.w3.org/2000/svg">
<path d="M47.702 43.557H46.8688V22.1526C48.7502 20.96 50 18.8805 50 16.5175C50 16.3919 49.9667 16.2685 49.9035 16.1595L44.0917 6.14063C43.6835 5.43713 42.9189 5 42.0964 5H7.90361C7.08105 5 6.3165 5.43703 5.9083 6.14063L0.0964844 16.1595C0.0333008 16.2685 0 16.392 0 16.5175C0 18.8805 1.2498 20.96 3.13125 22.1526V43.557H2.29805C1.89355 43.557 1.56562 43.8801 1.56562 44.2785C1.56562 44.677 1.89355 45 2.29805 45H47.702C48.1065 45 48.4344 44.677 48.4344 44.2785C48.4344 43.8801 48.1064 43.557 47.702 43.557ZM1.51533 17.2389H3.86338C4.26787 17.2389 4.5958 16.9159 4.5958 16.5175C4.5958 16.119 4.26787 15.796 3.86338 15.796H1.99453L7.18018 6.85653C7.32822 6.60142 7.60537 6.44298 7.90361 6.44298H42.0964C42.3946 6.44298 42.6719 6.60142 42.8198 6.85653L48.0054 15.796H46.1361C45.7315 15.796 45.4037 16.119 45.4037 16.5175C45.4037 16.9159 45.7315 17.2389 46.1361 17.2389H48.4846C48.1265 19.7963 45.8936 21.7723 43.2006 21.7723C40.5077 21.7723 38.2759 19.7961 37.9177 17.2389H43.0052C43.4098 17.2389 43.7376 16.9159 43.7376 16.5175C43.7376 16.119 43.4098 15.796 43.0052 15.796H6.99521C6.59072 15.796 6.26279 16.119 6.26279 16.5175C6.26279 16.9159 6.59072 17.2389 6.99521 17.2389H12.0822C11.724 19.7961 9.49209 21.7723 6.79932 21.7723C4.10635 21.7723 1.87344 19.7963 1.51533 17.2389ZM36.3498 17.2389C35.9916 19.7961 33.7597 21.7723 31.0669 21.7723C28.374 21.7723 26.1422 19.7961 25.784 17.2389H36.3498ZM24.216 17.2389C23.8578 19.7961 21.6259 21.7723 18.9331 21.7723C16.2403 21.7723 14.0084 19.7961 13.6502 17.2389H24.216ZM41.4896 43.5571H33.5606V41.1444H41.4896V43.5571ZM41.4896 39.7014H33.5606V26.4927H41.4896V39.7014ZM45.4039 43.5571H42.9546V25.7712C42.9546 25.3727 42.6268 25.0497 42.2222 25.0497H32.8283C32.4237 25.0497 32.0959 25.3727 32.0959 25.7712V43.557H4.59609V22.8523C5.2876 23.0864 6.02822 23.2153 6.79932 23.2153C9.44531 23.2153 11.7431 21.7188 12.8662 19.5398C13.9894 21.7187 16.2871 23.2153 18.9331 23.2153C21.5791 23.2153 23.8769 21.7188 25 19.5398C26.1231 21.7187 28.4209 23.2153 31.0669 23.2153C33.7129 23.2153 36.0106 21.7188 37.1338 19.5398C38.2569 21.7187 40.5547 23.2153 43.2007 23.2153C43.9718 23.2153 44.7124 23.0864 45.4039 22.8524V43.5571Z M28.9142 25.0497H7.77783C7.37334 25.0497 7.04541 25.3727 7.04541 25.7712V40.4229C7.04541 40.8213 7.37334 41.1444 7.77783 41.1444H28.9142C29.3188 41.1444 29.6466 40.8213 29.6466 40.4229V25.7712C29.6466 25.3726 29.3188 25.0497 28.9142 25.0497ZM28.1817 39.7014H8.51025V26.4927H28.1817V39.7014Z"/>
</svg>
