<svg width="47" height="50" viewBox="0 0 47 50" xmlns="http://www.w3.org/2000/svg">
<path d="M36.4287 21.6666V26.6666H43.0521V21.6666H36.4287ZM41.3962 25H38.0846V23.3333H41.3962V25Z M36.4287 28.3334V33.3334H43.0521V28.3334H36.4287ZM41.3962 31.6667H38.0846V30H41.3962V31.6667Z M36.4287 35V40H43.0521V35H36.4287ZM41.3962 38.3333H38.0846V36.6667H41.3962V38.3333Z M36.4287 41.6667V46.6667H43.0521V41.6667H36.4287ZM41.3962 45.0001H38.0846V43.3334H41.3962V45.0001Z M26.4937 8.33337V3.33337H19.8704V8.33337H14.9028V15H19.8704V20H26.4937V15H31.4613V8.33337H26.4937ZM29.8054 13.3334H24.8379V18.3334H21.5262V13.3334H16.5587V10H21.5262V5.00004H24.8379V10H29.8054V13.3334Z M34.7727 18.3333V0H11.5909V18.3333H0V50H46.3636V18.3333H34.7727ZM11.5909 48.3333H1.65584V20H11.5909V48.3333ZM22.3539 48.3333H18.2143V33.3333H22.3539V48.3333ZM28.1493 48.3333H24.0097V33.3333H28.1493V48.3333ZM33.1169 48.3333H29.8052V31.6667H16.5584V48.3333H13.2468V1.66667H33.1169V48.3333ZM44.7078 48.3333H34.7727V20H44.7078V48.3333Z M3.31152 21.6666V26.6666H9.9349V21.6666H3.31152ZM8.27906 25H4.96737V23.3333H8.27906V25Z M3.31152 28.3334V33.3334H9.9349V28.3334H3.31152ZM8.27906 31.6667H4.96737V30H8.27906V31.6667Z M3.31152 35V40H9.9349V35H3.31152ZM8.27906 38.3333H4.96737V36.6667H8.27906V38.3333Z M3.31152 41.6667V46.6667H9.9349V41.6667H3.31152ZM8.27906 45.0001H4.96737V43.3334H8.27906V45.0001Z"/>
</svg>
