<svg width="20" height="27" viewBox="0 0 20 27" xmlns="http://www.w3.org/2000/svg">
<path d="M9.64346 0.645234C4.66307 0.825802 0.525591 4.84078 0.0475969 9.96572C-0.0500579 10.9907 0.0064792 11.9838 0.18123 12.9345C0.18123 12.9345 0.196649 13.046 0.248046 13.2584C0.402238 13.9701 0.633525 14.6605 0.92135 15.3084C1.9236 17.762 4.24161 21.8673 9.44301 26.3337C9.76167 26.6098 10.2294 26.6098 10.5532 26.3337C15.7546 21.8726 18.0726 17.7673 19.08 15.3031C19.373 14.6552 19.5991 13.9701 19.7533 13.2531C19.7996 13.046 19.8201 12.9292 19.8201 12.9292C19.9383 12.2919 20 11.6386 20 10.9695C20 5.13818 15.328 0.438112 9.64346 0.645234ZM9.9981 16.1103C7.31517 16.1103 5.14106 13.8639 5.14106 11.0916C5.14106 8.31936 7.31517 6.07289 9.9981 6.07289C12.681 6.07289 14.8551 8.31936 14.8551 11.0916C14.8551 13.8639 12.681 16.1103 9.9981 16.1103Z"/>
</svg>
