<svg width="50" height="50" viewBox="0 0 50 50" xmlns="http://www.w3.org/2000/svg">
<path d="M50 39.0823V33.3194L35.4839 27.6742V25.779L37.9032 27.2306V21.3169L27.4194 15.0266V8.06452H30.6452V3.22581H27.4194V0H22.5806V3.22581H19.3548V8.06452H22.5806V15.0274L12.0968 21.3177V27.2315L14.5161 25.7798V27.675L0 33.3202V39.0831L3.22581 37.8282V48.3871H0V50H50V48.3871H46.7742V37.8274L50 39.0823ZM11.2903 48.3871H8.06452V41.9355H11.2903V48.3871ZM14.5161 48.3871H12.9032V40.3226H6.45161V48.3871H4.83871V37.2008L14.5161 33.4371V48.3871ZM14.5161 31.7065L1.6129 36.7242V34.4226L14.5161 29.4048V31.7065ZM20.9677 6.45161V4.83871H24.1935V1.6129H25.8065V4.83871H29.0323V6.45161H25.8065V14.5161H24.1935V6.45161H20.9677ZM13.7097 24.3815V22.2306L23.879 16.129H26.121L36.2903 22.2306V24.3815L25 17.6073L13.7097 24.3815ZM24.1935 48.3871H20.9677V37.9032C20.9677 35.9565 22.3556 34.3274 24.1935 33.9524V48.3871ZM29.0323 48.3871H25.8065V33.9524C27.6444 34.3274 29.0323 35.9556 29.0323 37.9032V48.3871ZM33.871 48.3871H30.6452V37.9032C30.6452 34.7903 28.1121 32.2581 25 32.2581C21.8879 32.2581 19.3548 34.7903 19.3548 37.9032V48.3871H16.129V24.8113L25 19.4887L33.871 24.8113V48.3871ZM41.9355 48.3871H38.7097V41.9355H41.9355V48.3871ZM45.1613 48.3871H43.5484V40.3226H37.0968V48.3871H35.4839V33.4371L45.1613 37.2008V48.3871ZM35.4839 31.7065V29.4048L48.3871 34.4226V36.7242L35.4839 31.7065Z M19.355 24.1936V29.0323H30.6453V24.1936H19.355ZM24.1937 27.4194H20.9679V25.8065H24.1937V27.4194ZM29.0324 27.4194H25.8066V25.8065H29.0324V27.4194Z"/>
</svg>