<svg width="50" height="50" viewBox="0 0 50 50" xmlns="http://www.w3.org/2000/svg">
<path d="M47.702 18.0526H36.4886L28.606 3.21204C28.3233 2.67997 27.8455 2.28721 27.2604 2.10604C26.6751 1.92487 26.0528 1.97712 25.5079 2.25307C25.3185 2.349 25.1489 2.46762 25 2.60331C24.851 2.46771 24.6814 2.349 24.492 2.25307C23.9472 1.97712 23.3247 1.92496 22.7395 2.10604C22.1544 2.28711 21.6766 2.67997 21.3939 3.21204L13.0852 18.855C12.8025 19.3871 12.749 19.9947 12.9346 20.5661C12.9979 20.7611 13.0883 20.9428 13.1992 21.11H2.29805C1.83857 21.11 1.46484 20.7451 1.46484 20.2964C1.46484 19.8479 1.83867 19.4829 2.29805 19.4829H10.6481C11.0526 19.4829 11.3806 19.1628 11.3806 18.7677C11.3806 18.3728 11.0526 18.0526 10.6481 18.0526H2.29805C1.03096 18.0526 0 19.0592 0 20.2964C0 21.3225 0.70918 22.1893 1.67393 22.4555L5.91602 44.5461C6.18896 45.968 7.4625 47 8.94414 47H41.056C42.5376 47 43.811 45.968 44.0841 44.5461L48.3262 22.4554C49.2908 22.1893 50 21.3225 50 20.2964C50 19.0591 48.969 18.0526 47.702 18.0526ZM26.1823 3.52289C26.3799 3.42287 26.6056 3.40389 26.8177 3.46959C27.0298 3.5352 27.2031 3.67765 27.3056 3.87055L35.6144 19.5136C35.7168 19.7065 35.7362 19.9268 35.6689 20.134C35.6018 20.3412 35.4559 20.5103 35.2582 20.6103C35.0607 20.7105 34.8351 20.7293 34.6229 20.6637C34.4106 20.5981 34.2374 20.4557 34.135 20.2628L25.8263 4.61965C25.6147 4.22145 25.7745 3.72943 26.1823 3.52289ZM35.9354 22.5404L35.2424 29.5182H25.7324V22.5404H35.9354ZM25 6.17067L32.8348 20.9211C32.8693 20.9863 32.907 21.0493 32.9474 21.11H17.0526C17.093 21.0493 17.1307 20.9863 17.1652 20.9212L17.9292 19.483H29.0771C29.4816 19.483 29.8096 19.1629 29.8096 18.7678C29.8096 18.3729 29.4816 18.0527 29.0771 18.0527H18.6889L25 6.17067ZM14.3855 19.5135L22.6944 3.87046C22.7969 3.67756 22.9701 3.5351 23.1823 3.4695C23.2653 3.44375 23.3504 3.43107 23.4351 3.43107C23.5668 3.43107 23.6975 3.46196 23.8177 3.5228C24.2255 3.72943 24.3853 4.22136 24.1737 4.61956L15.8648 20.2626C15.7624 20.4555 15.5892 20.5979 15.377 20.6635C15.1649 20.7292 14.9393 20.7103 14.7416 20.6101C14.544 20.5101 14.3981 20.341 14.331 20.1338C14.2637 19.9268 14.2831 19.7065 14.3855 19.5135ZM3.18057 22.5404H12.5929L13.2859 29.5182H4.52051L3.18057 22.5404ZM4.79522 30.9484H13.428L14.1211 37.9261H6.13506L4.79522 30.9484ZM8.94404 45.5698C8.16689 45.5698 7.49893 45.0285 7.35576 44.2826L6.40977 39.3564H14.2631L14.8803 45.5698H8.94404ZM24.2676 45.5698H16.3519L15.7348 39.3564H24.2676V45.5698ZM24.2676 37.9261H15.5927L14.8996 30.9484H24.2676V37.9261ZM24.2676 29.5182H14.7576L14.0646 22.5404H24.2676V29.5182ZM33.6481 45.5698H25.7324V39.3564H34.2652L33.6481 45.5698ZM34.4073 37.9262H25.7324V30.9485H35.1004L34.4073 37.9262ZM42.6442 44.2826C42.5011 45.0285 41.833 45.5698 41.0559 45.5698H35.1197L35.7369 39.3564H43.5902L42.6442 44.2826ZM43.8649 37.9262H35.879L36.5721 30.9485H45.2049L43.8649 37.9262ZM45.4795 29.5181H36.7142L37.4072 22.5403H46.8194L45.4795 29.5181ZM47.702 21.1101H36.8008C36.9117 20.9429 37.002 20.7612 37.0654 20.5662C37.181 20.2102 37.2037 19.8401 37.1361 19.483H47.702C48.1614 19.483 48.5352 19.848 48.5352 20.2965C48.5352 20.7451 48.1613 21.1101 47.702 21.1101Z"/>
</svg>
