<svg width="35" height="45" viewBox="0 0 35 45" xmlns="http://www.w3.org/2000/svg">
<path d="M0 5.24977V44.2497C0 44.664 0.340673 44.9998 0.760951 44.9998H29.674C30.0939 44.9998 30.4346 44.664 30.4346 44.2497V12.75C30.4346 12.7333 30.4265 12.7191 30.4249 12.7027C30.4211 12.6369 30.408 12.572 30.386 12.5099C30.3776 12.4858 30.3716 12.4627 30.361 12.4392C30.324 12.3576 30.2726 12.2832 30.2086 12.2195L22.6001 4.71965C22.5355 4.65632 22.4597 4.60565 22.3763 4.56951C22.3534 4.55993 22.3302 4.5519 22.3064 4.5448C22.2428 4.52317 22.1767 4.51019 22.1093 4.50587C22.0964 4.50803 22.0814 4.5 22.0654 4.5H0.760951C0.340673 4.5 0 4.8355 0 5.24977ZM27.8371 11.9999H22.826V7.06041L27.8371 11.9999ZM1.52159 5.99986H21.3044V12.75C21.3044 13.1639 21.6451 13.4998 22.0651 13.4998H28.913V43.5H1.52159V5.99986Z"/>
<path d="M31.9564 39V40.4998H34.2389C34.6592 40.4998 34.9999 40.1643 34.9999 39.75V0.750082C34.9999 0.335807 34.6592 0 34.2389 0H5.32589C4.90561 0 4.56494 0.335807 4.56494 0.750082V3.00002H6.08684V1.49986H33.478V39H31.9564Z"/>
<path d="M6.08691 15H24.3476V16.4999H6.08691V15Z"/>
<path d="M6.08691 10.5H12.1739V12.0002H6.08691V10.5Z"/>
<path d="M6.08691 19.5H18.2609V21.0002H6.08691V19.5Z"/>
<path d="M19.7825 19.5H24.3476V21.0002H19.7825V19.5Z"/>
<path d="M6.08691 24H24.3476V25.5002H6.08691V24Z"/>
<path d="M6.08691 33H24.3476V34.5002H6.08691V33Z"/>
<path d="M12.9346 28.5H24.3476V29.9999H12.9346V28.5Z"/>
<path d="M6.08691 28.5H11.4129V29.9999H6.08691V28.5Z"/>
<path d="M6.08691 37.5H9.13041V38.9999H6.08691V37.5Z"/>
<path d="M10.6521 37.5H24.3477V38.9999H10.6521V37.5Z"/>
</svg>
