<svg width="50" height="50" viewBox="0 0 50 50" xmlns="http://www.w3.org/2000/svg">
<path d="M34.3745 23.2428C33.8353 23.2428 33.3979 23.68 33.3979 24.2194V25.8511C33.3979 26.3905 33.8353 26.8277 34.3745 26.8277C34.9138 26.8277 35.3511 26.3905 35.3511 25.8511V24.2194C35.3511 23.68 34.9138 23.2428 34.3745 23.2428Z M39.4526 23.2428C38.9134 23.2428 38.4761 23.68 38.4761 24.2194V25.8511C38.4761 26.3905 38.9134 26.8277 39.4526 26.8277C39.9919 26.8277 40.4292 26.3905 40.4292 25.8511V24.2194C40.4291 23.68 39.9919 23.2428 39.4526 23.2428Z M29.2964 23.2428C28.7571 23.2428 28.3198 23.68 28.3198 24.2194V25.8511C28.3198 26.3905 28.7571 26.8277 29.2964 26.8277C29.8356 26.8277 30.2729 26.3905 30.2729 25.8511V24.2194C30.2729 23.68 29.8356 23.2428 29.2964 23.2428Z M9.3749 36.2894C6.98418 36.2894 5.03906 38.2344 5.03906 40.6253C5.03906 43.0161 6.98408 44.9611 9.3749 44.9611C11.7657 44.9611 13.7107 43.0161 13.7107 40.6253C13.7107 38.2344 11.7657 36.2894 9.3749 36.2894ZM9.3749 43.008C8.06104 43.008 6.99219 41.939 6.99219 40.6253C6.99219 39.3115 8.06113 38.2426 9.3749 38.2426C10.6888 38.2426 11.7576 39.3115 11.7576 40.6253C11.7576 41.939 10.6887 43.008 9.3749 43.008Z M49.968 44.0921L46.8431 31.983C46.7317 31.5518 46.3429 31.2505 45.8975 31.2505H44.7256V29.0964C46.5714 28.6549 47.9481 26.9924 47.9481 25.0131C47.9481 23.0339 46.5713 21.3713 44.7256 20.9298V18.1649C44.7256 17.6256 44.2883 17.1884 43.749 17.1884H42.9711L44.7071 8.39336C44.7501 8.17549 44.7169 7.95195 44.6173 7.75801C44.6172 7.75801 44.6174 7.75801 44.6173 7.75801L42.6103 3.85176C42.4431 3.52627 42.1078 3.32158 41.7417 3.32158H35.6977C35.3385 3.32158 35.0083 3.51875 34.8379 3.83496L32.7333 7.74111C32.7337 7.74121 32.7341 7.74141 32.7346 7.7415C32.6265 7.94209 32.5898 8.17559 32.6368 8.40254L34.458 17.1885H25.9761V8.10713C27.8165 7.70361 29.1986 6.06133 29.1986 4.10146C29.1985 1.83994 27.3587 0 25.0971 0H4.10156C1.84004 0 9.76563e-05 1.83994 9.76563e-05 4.10146C9.76563e-05 5.95586 1.2375 7.52588 2.92969 8.03144V31.2505H0.976562C0.437305 31.2505 0 31.6877 0 32.2271V40.6253C9.76562e-05 45.7945 4.20557 50 9.3749 50C12.8377 50 15.8679 48.1125 17.4912 45.3126H21.57C22.0343 47.9718 24.3579 50 27.1478 50C29.9378 50 32.2615 47.9718 32.7258 45.3126H35.632C36.0964 47.9718 38.4199 50 41.2099 50C43.9998 50 46.3235 47.9718 46.7878 45.3126H49.0222C49.3242 45.3126 49.6093 45.1729 49.7941 44.9341C49.9794 44.6953 50.0434 44.3844 49.968 44.0921ZM44.7256 22.9906C45.4763 23.3546 45.9951 24.1243 45.9951 25.013C45.9951 25.9017 45.4763 26.6715 44.7256 27.0353V22.9906ZM36.2809 5.27461H41.1457L42.1494 7.22764H35.2286L36.2809 5.27461ZM42.561 9.18076L40.9805 17.1884H36.4526L34.7928 9.18076H42.561ZM25.9761 19.1414H42.7726V31.2505H25.9761V19.1414ZM1.95322 4.10146C1.95322 2.9168 2.91699 1.95312 4.10166 1.95312H25.0973C26.2818 1.95312 27.2456 2.9168 27.2456 4.10146C27.2456 5.28613 26.2818 6.2498 25.0973 6.2498H4.10166C2.91709 6.2498 1.95322 5.28613 1.95322 4.10146ZM24.023 8.2042V31.2505H4.88291V8.2042H24.023ZM1.95322 33.2035H3.65449C3.01748 33.6956 2.44541 34.2678 1.95322 34.9048V33.2035ZM9.375 48.0469C5.28271 48.0469 1.95332 44.7176 1.95332 40.6252C1.95332 36.6375 5.11494 33.3757 9.06299 33.2114H9.68701C13.6351 33.3757 16.7967 36.6375 16.7967 40.6252C16.7967 44.7175 13.4673 48.0469 9.375 48.0469ZM27.1479 45.3126H30.7274C30.2977 46.8863 28.8562 48.0469 27.1479 48.0469C25.1019 48.0469 23.4371 46.3821 23.4371 44.336C23.4371 42.2899 25.1019 40.6252 27.1479 40.6252C28.8561 40.6252 30.2976 41.7857 30.7274 43.3595H27.1479C26.6087 43.3595 26.1714 43.7967 26.1714 44.336C26.1714 44.8754 26.6087 45.3126 27.1479 45.3126ZM41.2101 48.0469C39.5019 48.0469 38.0604 46.8863 37.6306 45.3126H41.2101C41.7493 45.3126 42.1866 44.8754 42.1866 44.336C42.1866 43.7967 41.7493 43.3595 41.2101 43.3595H37.6306C38.0604 41.7856 39.5019 40.6252 41.2101 40.6252C43.2561 40.6252 44.9209 42.2899 44.9209 44.336C44.9209 46.3821 43.2563 48.0469 41.2101 48.0469ZM46.7881 43.3596C46.3237 40.7005 44.0002 38.6722 41.2102 38.6722C38.4202 38.6722 36.0965 40.7004 35.6323 43.3596H32.7261C32.2617 40.7005 29.9382 38.6722 27.1481 38.6722C24.3582 38.6722 22.0345 40.7004 21.5702 43.3596H18.3428C18.6072 42.4941 18.7499 41.5761 18.7499 40.6253C18.7499 37.6127 17.3211 34.9277 15.106 33.2115L45.1411 33.2036L47.762 43.3596H46.7881Z M9.375 15.2966C8.83574 15.2966 8.39844 15.7338 8.39844 16.2732V25.3348C8.39844 25.8742 8.83574 26.3114 9.375 26.3114C9.91426 26.3114 10.3516 25.8742 10.3516 25.3348V16.2732C10.3515 15.7338 9.91416 15.2966 9.375 15.2966Z M9.375 11.9563C8.83574 11.9563 8.39844 12.3935 8.39844 12.9329V12.9444C8.39844 13.4837 8.83574 13.9209 9.375 13.9209C9.91426 13.9209 10.3516 13.4837 10.3516 12.9444V12.9329C10.3515 12.3935 9.91416 11.9563 9.375 11.9563Z M35.3292 35.2869H26.2676C25.7283 35.2869 25.291 35.7241 25.291 36.2634C25.291 36.8028 25.7283 37.24 26.2676 37.24H35.3292C35.8685 37.24 36.3058 36.8028 36.3058 36.2634C36.3058 35.7241 35.8685 35.2869 35.3292 35.2869Z M38.6697 35.2869H38.6582C38.1189 35.2869 37.6816 35.7241 37.6816 36.2634C37.6816 36.8028 38.1189 37.24 38.6582 37.24H38.6697C39.209 37.24 39.6463 36.8028 39.6463 36.2634C39.6463 35.7241 39.209 35.2869 38.6697 35.2869Z"/>
</svg>