<svg width="40" height="34" viewBox="0 0 40 34" xmlns="http://www.w3.org/2000/svg">
<path d="M14.1668 21.366V21.2986C14.1668 20.84 13.7937 20.4683 13.3334 20.4683C12.8731 20.4683 12.5 20.8401 12.5 21.2986V21.366C12.5 21.8246 12.8731 22.1963 13.3334 22.1963C13.7937 22.1963 14.1668 21.8246 14.1668 21.366Z M30.8572 11.8596C30.444 12.0615 30.2733 12.559 30.476 12.9708C31.255 14.5531 31.6667 16.3232 31.6667 18.0898V20.8988C31.6667 21.3574 32.0398 21.7292 32.5001 21.7292C32.9604 21.7292 33.3335 21.3574 33.3335 20.8988V18.0898C33.3335 16.071 32.8629 14.048 31.9726 12.2394C31.7697 11.8276 31.2703 11.6577 30.8572 11.8596ZM30.6093 10.0424L30.5555 9.97278C30.2757 9.60864 29.7525 9.5396 29.3871 9.81842C29.0218 10.0972 28.9525 10.6185 29.2323 10.9825L29.2796 11.0439C29.4435 11.26 29.6928 11.3736 29.945 11.3736C30.1202 11.3736 30.2967 11.3189 30.447 11.2056C30.8142 10.9291 30.8868 10.4083 30.6093 10.0424ZM39.9999 21.1549C39.9999 19.1953 38.5401 17.5699 36.6473 17.2995C36.5081 14.3547 35.593 11.5153 33.9783 9.04366C32.3632 6.57159 30.1308 4.58073 27.4999 3.25845V1.96489C27.4999 1.62862 27.2964 1.32551 26.9844 1.19723C25.586 0.622527 24.1171 0.222503 22.6182 0.00836326C22.379 -0.0256532 22.1368 0.045182 21.954 0.202888C21.7715 0.360593 21.6665 0.589523 21.6665 0.830284V1.56681C20.56 1.45737 19.4399 1.45737 18.3334 1.56681V0.830362C18.3334 0.589523 18.2285 0.360593 18.046 0.202965C17.8633 0.045182 17.6208 -0.0258089 17.3817 0.00844106C15.8829 0.222581 14.4139 0.622605 13.0155 1.1973C12.7036 1.32551 12.4999 1.62862 12.4999 1.96489V3.25845C9.86904 4.58081 7.63663 6.57159 6.02155 9.04374C4.40687 11.5155 3.49163 14.3547 3.35249 17.2997C1.45968 17.57 0 19.1955 0 21.1549V24.22C0 24.2248 0.000703124 24.2294 0.000781248 24.234C0.000937498 24.246 0.001875 24.2577 0.0025 24.2696C0.00367187 24.2886 0.00507812 24.3075 0.00757811 24.3261C0.00898436 24.3368 0.010625 24.3473 0.0125 24.3579C0.0159375 24.3786 0.0201562 24.399 0.0251562 24.4191C0.0264843 24.4243 0.0269531 24.4296 0.0284374 24.4349C1.05914 28.2675 2.96242 30.522 6.19968 31.7447C9.34365 32.9322 13.8109 33.1707 19.9999 33.1707C26.1889 33.1707 30.6561 32.9321 33.8001 31.7447C37.0375 30.5219 38.9408 28.2675 39.9716 24.4349C39.973 24.4296 39.9737 24.4241 39.9749 24.4189C39.9798 24.3989 39.984 24.3787 39.9875 24.3581C39.9893 24.3474 39.991 24.3368 39.9924 24.3261C39.9948 24.3075 39.9963 24.2886 39.9975 24.2697C39.9983 24.2577 39.9991 24.2459 39.9992 24.234C39.9993 24.2292 40 24.2246 40 24.22L39.9999 21.1549ZM27.4999 5.14555C32.0955 7.79688 34.9997 12.7427 34.9997 18.0899V23.3897H27.4999V5.14555ZM18.3334 3.2372C19.4388 3.11554 20.5609 3.11554 21.6665 3.2372V9.94583C21.6665 10.8616 20.9189 11.6066 19.9999 11.6066C19.0811 11.6066 18.3334 10.8616 18.3334 9.94583V3.2372ZM4.99999 18.0898C4.99999 12.7427 7.9042 7.79688 12.4999 5.14547V18.8903C12.4999 19.3489 12.873 19.7207 13.3333 19.7207C13.7937 19.7207 14.1667 19.3489 14.1667 18.8903V2.53064C14.9794 2.22799 15.8159 1.98918 16.6665 1.81668V9.94576C16.6665 11.7772 18.1618 13.2672 19.9998 13.2672C21.8378 13.2672 23.3332 11.7772 23.3332 9.94576V1.81668C24.1839 1.98918 25.0203 2.22799 25.8331 2.53064V23.3897H4.99999V18.0898ZM1.66679 21.1549C1.66679 20.1213 2.37492 19.2495 3.3332 18.9954V23.3896H1.66679V21.1549ZM33.2092 30.1919C30.303 31.2896 26.0003 31.5102 19.9998 31.5102C13.9993 31.5102 9.69662 31.2896 6.79046 30.1919C4.33429 29.2641 2.88164 27.7411 1.95632 25.0505H38.0433C37.1181 27.7411 35.6654 29.2641 33.2092 30.1919ZM38.3331 23.3897H36.6665V18.9953C37.6249 19.2494 38.3331 20.1212 38.3331 21.1549V23.3897Z"/>
</svg>
