<svg width="50" height="50" viewBox="0 0 50 50" xmlns="http://www.w3.org/2000/svg">
<path d="M18.333 30.8333C18.333 31.2933 18.7063 31.6666 19.1663 31.6666H22.4997C22.9597 31.6666 23.333 31.2933 23.333 30.8333V25.8333C23.333 25.3733 22.9597 25 22.4997 25H19.1664C18.7064 25 18.3331 25.3733 18.3331 25.8333L18.333 30.8333ZM19.9997 26.6667H21.6664V30H19.9997V26.6667Z M19.1668 21.6667H22.5001C22.9601 21.6667 23.3334 21.2934 23.3334 20.8334V15.8334C23.3334 15.3735 22.9601 15.0001 22.5001 15.0001H19.1668C18.7068 15.0001 18.3335 15.3735 18.3335 15.8334V20.8334C18.3334 21.2934 18.7067 21.6667 19.1668 21.6667ZM20.0001 16.6667H21.6668V20H20.0001V16.6667Z M12.9291 15.7142L24.9999 8.47168L37.0707 15.7142C37.2049 15.795 37.3532 15.8333 37.499 15.8333C37.7823 15.8333 38.0582 15.6892 38.214 15.4291C38.4515 15.0341 38.3232 14.5225 37.9291 14.2857L25.8332 7.02832V1.6667H29.9999V3.3334H27.4999C27.0399 3.3334 26.6666 3.70674 26.6666 4.1667C26.6666 4.62666 27.0399 5 27.4999 5H30.8332C31.2931 5 31.6665 4.62666 31.6665 4.1667V0.833301C31.6665 0.37334 31.2931 0 30.8332 0H24.9999C24.5399 0 24.1666 0.37334 24.1666 0.833301V7.02832L12.0708 14.2858C11.6766 14.5225 11.5483 15.0342 11.7858 15.4292C12.0216 15.8233 12.5348 15.9517 12.9291 15.7142Z M9.1667 31.6667C9.62666 31.6667 10 31.2934 10 30.8334V25.8334C10 25.3735 9.62666 25.0001 9.1667 25.0001H5.8333C5.37334 25.0001 5 25.3735 5 25.8334V27.5C5 27.96 5.37334 28.3333 5.8333 28.3333C6.29326 28.3333 6.6666 27.96 6.6666 27.5V26.6667H8.3333V30.8334C8.3333 31.2934 8.70664 31.6667 9.1667 31.6667Z M15.0001 42.5V18.3333C15.0001 17.8733 14.6268 17.5 14.1668 17.5C13.7068 17.5 13.3335 17.8733 13.3335 18.3333V42.5C13.3335 42.96 13.7068 43.3333 14.1668 43.3333C14.6268 43.3333 15.0001 42.96 15.0001 42.5Z M10.8333 46.6667H39.1666C39.6266 46.6667 39.9999 46.2934 39.9999 45.8334C39.9999 45.3735 39.6266 45.0001 39.1666 45.0001H31.6666V36.6668H32.4999C32.9599 36.6668 33.3332 36.2935 33.3332 35.8335C33.3332 35.3736 32.9599 35.0002 32.4999 35.0002H17.5C17.04 35.0002 16.6667 35.3736 16.6667 35.8335C16.6667 36.2935 17.04 36.6668 17.5 36.6668H18.3333V45H10.8333C10.3733 45 10 45.3734 10 45.8334C10 46.2933 10.3733 46.6667 10.8333 46.6667ZM25.8333 41.6667C26.2933 41.6667 26.6666 41.2934 26.6666 40.8334C26.6666 40.3735 26.2933 40.0001 25.8333 40.0001V36.6668H30V45H25.8333V41.6667ZM20 36.6667H24.1667V40C23.7067 40 23.3334 40.3734 23.3334 40.8333C23.3334 41.2933 23.7067 41.6666 24.1667 41.6666V45H20V36.6667Z M44.1666 35.8333H40.8333C40.3733 35.8333 40 36.2066 40 36.6666V41.6665C40 42.1265 40.3733 42.4999 40.8333 42.4999H44.1666C44.6266 42.4999 44.9999 42.1265 44.9999 41.6665V36.6666C44.9999 36.2066 44.6266 35.8333 44.1666 35.8333ZM43.3332 40.8333H41.6665V37.5H43.3332V40.8333Z M44.1666 25.8333H40.8333C40.3733 25.8333 40 26.2066 40 26.6666V31.6666C40 32.1265 40.3733 32.4999 40.8333 32.4999H44.1666C44.6266 32.4999 44.9999 32.1265 44.9999 31.6666V26.6666C44.9999 26.2066 44.6266 25.8333 44.1666 25.8333ZM43.3332 30.8333H41.6665V27.5H43.3332V30.8333Z M42.5003 48.3333H7.50029C7.04033 48.3333 6.66699 48.7066 6.66699 49.1666C6.66699 49.6265 7.04033 50 7.50029 50H42.5003C42.9603 50 43.3336 49.6266 43.3336 49.1666C43.3336 48.7067 42.9603 48.3333 42.5003 48.3333Z M49.1668 18.3333C48.7068 18.3333 48.3335 18.7066 48.3335 19.1666V19.9999H39.1668C38.7068 19.9999 38.3335 20.3732 38.3335 20.8332C38.3335 21.2931 38.7068 21.6665 39.1668 21.6665H48.3335V49.1665C48.3335 49.6264 48.7068 49.9998 49.1668 49.9998C49.6268 49.9998 50.0001 49.6264 50.0001 49.1665V19.1665C50.0001 18.7066 49.6268 18.3333 49.1668 18.3333Z M26.6665 30.8333C26.6665 31.2933 27.0398 31.6666 27.4998 31.6666H30.8331C31.2931 31.6666 31.6664 31.2933 31.6664 30.8333V25.8333C31.6664 25.3733 31.2931 25 30.8331 25H27.4998C27.0398 25 26.6665 25.3733 26.6665 25.8333V30.8333ZM28.3331 26.6667H29.9998V30H28.3331V26.6667Z M8.3333 40.8333C8.3333 40.725 8.28584 30 4.1666 30C0.047461 30 0 40.725 0 40.8333C0 42.8458 1.43418 44.5283 3.3333 44.9158V49.1667C3.3333 49.6267 3.70664 50 4.1666 50C4.62656 50 4.9999 49.6267 4.9999 49.1667V44.9158C6.89912 44.5283 8.3333 42.8458 8.3333 40.8333ZM4.1667 43.3333C2.78838 43.3333 1.6667 42.2116 1.6667 40.8333C1.6667 36.6816 2.78174 31.6666 4.1667 31.6666C5.55166 31.6666 6.6667 36.6816 6.6667 40.8333C6.6667 42.2116 5.54502 43.3333 4.1667 43.3333Z M36.6666 42.5001V17.5C36.6666 17.0401 36.2933 16.6667 35.8333 16.6667C35.3733 16.6667 35 17.0401 35 17.5V42.5001C35 42.96 35.3733 43.3334 35.8333 43.3334C36.2933 43.3334 36.6666 42.96 36.6666 42.5001Z M27.4998 21.6667H30.8331C31.2931 21.6667 31.6664 21.2934 31.6664 20.8334V15.8334C31.6664 15.3735 31.2931 15.0001 30.8331 15.0001H27.4998C27.0398 15.0001 26.6665 15.3735 26.6665 15.8334V20.8334C26.6665 21.2934 27.0398 21.6667 27.4998 21.6667ZM28.3331 16.6667H29.9998V20H28.3331V16.6667Z M0.833301 29.1667C1.29326 29.1667 1.6666 28.7934 1.6666 28.3334V21.6667H10.8333C11.2933 21.6667 11.6666 21.2934 11.6666 20.8334C11.6666 20.3734 11.2933 20.0001 10.8333 20.0001H1.6667V19.1668C1.6667 18.7068 1.29336 18.3335 0.833398 18.3335C0.373437 18.3335 0 18.7066 0 19.1667V28.3334C0 28.7934 0.37334 29.1667 0.833301 29.1667Z"/>
</svg>