<svg width="50" height="50" viewBox="0 0 50 50" xmlns="http://www.w3.org/2000/svg">
<path d="M49.1526 43.3289H38.4864V38.1984C40.8155 37.8806 42.8799 36.405 44.0803 34.1679C45.6751 33.7982 47.1239 32.8616 48.1957 31.4986C49.3592 30.0189 50 28.1279 50 26.1738C50 23.2011 48.4994 20.4497 46.1384 19.0206C45.8924 14.0633 42.1251 10.1107 37.5369 10.1107C36.0927 10.1107 34.6637 10.5094 33.4045 11.2637C33.0127 11.4984 32.8827 12.0107 33.114 12.4081C33.3454 12.8056 33.8506 12.9374 34.2422 12.7028C35.2479 12.1003 36.3871 11.7819 37.5369 11.7819C41.3712 11.7819 44.4964 15.2542 44.5036 19.5223C44.5042 19.8368 44.6787 20.1244 44.9554 20.2664C47.0191 21.3259 48.3523 23.6446 48.3523 26.1737C48.3523 29.3656 46.2214 32.1291 43.3954 32.6019C43.1308 32.6463 42.904 32.8184 42.7875 33.0635C41.9037 34.9227 40.3069 36.1795 38.4864 36.5066V29.1124L42.5406 25.3306C42.8755 25.0181 42.8974 24.4895 42.5894 24.1499C42.2813 23.8102 41.7603 23.7879 41.4254 24.1004L38.4864 26.8419V21.2637C38.4864 20.8022 38.1175 20.428 37.6625 20.428C37.2075 20.428 36.8387 20.8022 36.8387 21.2637V31.3776L33.8996 28.6362C33.5648 28.3236 33.0436 28.3459 32.7357 28.6856C32.4277 29.0253 32.4496 29.5539 32.7844 29.8663L36.8388 33.6481V36.5458C34.8962 36.2919 33.183 34.9881 32.2638 33.0152C32.1539 32.7793 31.9417 32.6091 31.6903 32.555C28.9567 31.9659 26.9727 29.2822 26.9727 26.1737C26.9727 23.7225 28.1913 21.5041 30.1528 20.3844C30.4153 20.2346 30.5762 19.9513 30.5725 19.6459C30.5723 19.6228 30.5715 19.5998 30.5707 19.5769C30.5703 19.5636 30.5698 19.5504 30.5698 19.5373C30.5698 17.7965 31.0762 16.1517 32.0343 14.7809C32.2975 14.4044 32.2099 13.8828 31.8388 13.616C31.4676 13.3489 30.9534 13.438 30.6904 13.8143C29.5989 15.3759 28.993 17.2258 28.9282 19.1845C26.694 20.6624 25.3252 23.2947 25.3252 26.1738C25.3252 29.9186 27.669 33.1806 30.9539 34.0928C32.1904 36.4548 34.3773 37.9834 36.839 38.2281V43.3289H36.3172C36.1958 41.1419 34.7221 39.2394 32.6699 38.597C32.0259 37.2073 30.7751 36.1997 29.3043 35.873C28.8221 33.6496 26.849 31.9916 24.5497 31.9916C22.7766 31.9916 21.1689 32.9582 20.3119 34.4968C18.6241 34.5619 17.1066 35.4765 16.2349 36.8935C15.6917 35.3775 14.3001 34.2736 12.6708 34.155V31.9579C14.8947 31.6443 16.8639 30.2333 18.0145 28.0988C19.5429 27.7406 20.931 26.8411 21.9586 25.5343C23.0776 24.1115 23.6938 22.2931 23.6938 20.4141C23.6938 17.5624 22.2574 14.9222 19.9958 13.545C19.7504 8.78902 16.1321 5 11.7264 5C10.0365 5 8.41102 5.55285 7.02557 6.59902C6.66073 6.8745 6.58505 7.39813 6.85663 7.76831C7.12821 8.1384 7.64432 8.21517 8.00936 7.93969C9.10819 7.10977 10.3935 6.67123 11.7264 6.67123C15.3779 6.67123 18.3543 9.97962 18.3612 14.0462C18.3618 14.3607 18.5363 14.6483 18.813 14.7903C20.777 15.7987 22.046 18.0062 22.046 20.4141C22.046 23.4528 20.0184 26.0835 17.3297 26.5333C17.0651 26.5777 16.8382 26.7498 16.7217 26.995C15.8873 28.7503 14.3854 29.9418 12.6706 30.2647V23.2434L16.5409 19.6334C16.8757 19.3209 16.8975 18.7923 16.5896 18.4527C16.2817 18.1129 15.7605 18.0907 15.4257 18.4032L12.6706 20.973V15.7136C12.6706 15.2521 12.3017 14.8779 11.8468 14.8779C11.3918 14.8779 11.0229 15.2521 11.0229 15.7136V25.3155L8.26795 22.7457C7.93299 22.4332 7.4119 22.4555 7.10399 22.7951C6.79598 23.1348 6.81786 23.6635 7.15272 23.9758L11.0228 27.5858V30.3038C9.19119 30.0497 7.57831 28.8133 6.70966 26.9492C6.59979 26.7133 6.38759 26.5431 6.13612 26.489C3.53525 25.9282 1.64746 23.3735 1.64746 20.4141C1.64746 18.0802 2.80712 15.9683 4.67401 14.9026C4.93632 14.7528 5.09726 14.4701 5.09374 14.1648C5.09354 14.1422 5.09286 14.1196 5.09208 14.0971C5.09179 14.0849 5.0912 14.0729 5.0912 14.0605C5.0912 13.0269 5.27899 12.0274 5.64931 11.0898C5.75946 10.8112 5.88632 10.5376 6.02665 10.2763C6.24423 9.87095 6.09677 9.36357 5.69716 9.14286C5.29755 8.92196 4.79726 9.07164 4.57978 9.47699C4.40878 9.79557 4.25409 10.129 4.12011 10.4682C3.71425 11.4955 3.48935 12.582 3.44999 13.703C1.31025 15.1262 0 17.6522 0 20.4141C0 24.0097 2.24785 27.1429 5.39999 28.0259C6.58534 30.28 8.67215 31.7425 11.0229 31.9873V34.3775C10.1214 34.697 9.34979 35.3288 8.8534 36.1775C6.85282 36.2929 5.23632 37.7916 4.92304 39.7683C3.44755 40.433 2.35058 41.7513 1.94668 43.3287H0.823827C0.368847 43.3287 0 43.7028 0 44.1643C0 44.6259 0.368847 45 0.823827 45H49.1526C49.6076 45 49.9765 44.6259 49.9765 44.1643C49.9765 43.7028 49.6075 43.3289 49.1526 43.3289ZM3.6745 43.3289C4.06747 42.313 4.89413 41.5038 5.94725 41.1578C6.2786 41.0489 6.50663 40.7405 6.51688 40.3875C6.55839 38.96 7.69403 37.8417 9.10233 37.8417C9.15877 37.8417 9.22049 37.8443 9.29637 37.85C9.6493 37.8758 9.97947 37.6714 10.1165 37.3403C10.5005 36.4137 11.3886 35.8149 12.3793 35.8149C13.6513 35.8149 14.7252 36.8216 14.824 38.1067C14.8556 38.5169 15.1768 38.8428 15.5813 38.8749C15.8059 38.8926 16.0231 38.9426 16.2288 39.0189C16.2297 39.0192 16.2304 39.0197 16.2313 39.02C16.2695 39.0342 16.3071 39.0496 16.3444 39.0657C16.3524 39.0691 16.3605 39.0726 16.3685 39.0761C16.4034 39.0915 16.4379 39.1077 16.4717 39.1246C16.4833 39.1304 16.4946 39.1365 16.506 39.1424C16.553 39.1668 16.599 39.1927 16.6441 39.22C16.6687 39.2349 16.6935 39.2494 16.7175 39.2653C16.7358 39.2771 16.7534 39.2899 16.7712 39.3021C16.7982 39.3208 16.8251 39.3398 16.8514 39.3597C16.8664 39.3709 16.8811 39.3822 16.8957 39.3938C16.9275 39.419 16.959 39.445 16.9895 39.4718C16.998 39.4791 17.0065 39.4862 17.0149 39.4936C17.0961 39.5665 17.1725 39.6451 17.2437 39.7285C17.2503 39.7362 17.2567 39.7439 17.2631 39.7517C17.2931 39.7877 17.322 39.8246 17.3501 39.8624C17.3554 39.8696 17.361 39.8767 17.3663 39.8841C17.4302 39.9724 17.4885 40.0656 17.5409 40.1627C17.5478 40.1756 17.5544 40.1888 17.5612 40.2019C17.5798 40.2378 17.5974 40.2745 17.6143 40.3116C17.6211 40.3263 17.6278 40.3409 17.6342 40.3557C17.655 40.4038 17.6748 40.4527 17.6926 40.5023C17.6933 40.5041 17.6939 40.5057 17.6946 40.5075C17.7912 40.7781 18.0183 40.9793 18.2957 41.0399C18.3693 41.056 18.4415 41.0756 18.5125 41.0977C18.5356 41.1049 18.5581 41.1137 18.581 41.1215C18.6283 41.1376 18.6754 41.1539 18.7214 41.1725C18.7479 41.1833 18.7738 41.1955 18.7999 41.2071C18.841 41.2253 18.8819 41.2439 18.9219 41.2641C18.9489 41.2776 18.9751 41.2923 19.0014 41.3068C19.0393 41.3275 19.0768 41.3489 19.1134 41.3714C19.1395 41.3873 19.1652 41.4038 19.1907 41.4207C19.2262 41.4442 19.2613 41.4686 19.2957 41.4938C19.3202 41.5117 19.3444 41.5297 19.3682 41.5484C19.4023 41.5751 19.4353 41.603 19.468 41.6312C19.4902 41.6503 19.5127 41.6693 19.5342 41.6891C19.5677 41.72 19.5998 41.7522 19.6317 41.7846C19.6505 41.8037 19.6701 41.8225 19.6883 41.8423C19.7243 41.881 19.7583 41.9214 19.792 41.962C19.8045 41.9772 19.8177 41.9915 19.8299 42.0068C19.8749 42.0637 19.9177 42.1221 19.9582 42.1825C19.9667 42.195 19.974 42.2085 19.9822 42.2212C20.0133 42.2693 20.0437 42.318 20.0719 42.368C20.0846 42.3907 20.0961 42.4143 20.1082 42.4373C20.13 42.4787 20.1515 42.5202 20.1713 42.5627C20.1837 42.5892 20.1946 42.6162 20.206 42.643C20.2234 42.6837 20.2402 42.7244 20.2556 42.766C20.2662 42.7945 20.2758 42.8234 20.2855 42.8523C20.2993 42.8935 20.3122 42.935 20.3241 42.977C20.3325 43.0067 20.3403 43.0366 20.3478 43.0667C20.3583 43.1093 20.3674 43.1521 20.3759 43.1953C20.3819 43.2255 20.3877 43.2556 20.3926 43.2861C20.395 43.3002 20.3962 43.3146 20.3982 43.3289H3.6745ZM22.0593 43.329C22.0586 43.321 22.057 43.3131 22.0564 43.3053C22.0469 43.2055 22.0347 43.1064 22.0186 43.0084C22.0176 43.0027 22.0164 42.9969 22.0154 42.9912C21.9986 42.8912 21.9786 42.7923 21.9551 42.6944C21.9542 42.6901 21.9534 42.6859 21.9523 42.6818C21.9288 42.5848 21.9015 42.4892 21.8718 42.3947C21.8686 42.3846 21.8657 42.3742 21.8624 42.3641C21.8331 42.2732 21.8004 42.1836 21.7654 42.0951C21.7603 42.0823 21.7554 42.0694 21.7503 42.0568C21.7151 41.9701 21.6771 41.8849 21.6367 41.801C21.6303 41.7877 21.624 41.7745 21.6174 41.7614C21.5762 41.6779 21.5327 41.5959 21.4866 41.5155C21.4795 41.5033 21.4725 41.4913 21.4654 41.4791C21.4179 41.398 21.3682 41.3184 21.3158 41.2406C21.3094 41.2311 21.3028 41.2219 21.2963 41.2126C21.2417 41.1327 21.1849 41.0544 21.1254 40.9784C21.1216 40.9736 21.1176 40.9691 21.1139 40.9642C21.0516 40.8854 20.987 40.8085 20.9195 40.7341C20.9187 40.7333 20.918 40.7324 20.9173 40.7316C20.8505 40.6581 20.7809 40.5871 20.7093 40.5182C20.7031 40.5121 20.697 40.5059 20.6908 40.4999C20.6219 40.4345 20.5506 40.3715 20.4776 40.3104C20.4678 40.3023 20.4582 40.294 20.4483 40.2858C20.3764 40.2268 20.3026 40.1703 20.2269 40.1159C20.2152 40.1075 20.2035 40.099 20.1918 40.0907C20.1162 40.0374 20.0387 39.9865 19.9596 39.9381C19.9472 39.9305 19.9347 39.923 19.9223 39.9156C19.8421 39.8675 19.7605 39.8219 19.6772 39.779C19.6658 39.773 19.6542 39.7676 19.6426 39.7618C19.5567 39.7187 19.4694 39.6778 19.3802 39.6404C19.3723 39.637 19.3643 39.6342 19.3564 39.6309C19.263 39.5923 19.1681 39.5564 19.0714 39.5244C19.0712 39.5243 19.0708 39.5241 19.0704 39.5239C19.0662 39.5153 19.0614 39.5073 19.0572 39.4987C19.0239 39.4311 18.989 39.3646 18.9523 39.2992C18.9336 39.2659 18.9135 39.2333 18.894 39.2004C18.8703 39.1608 18.8463 39.1214 18.8214 39.0827C18.7975 39.0453 18.7729 39.0087 18.7477 38.9722C18.7258 38.9406 18.7034 38.9095 18.6807 38.8785C18.6522 38.8394 18.6236 38.8005 18.5937 38.7624C18.5761 38.7401 18.5577 38.7187 18.5397 38.6969C18.4703 38.6123 18.3977 38.5305 18.3218 38.4517C18.3088 38.4381 18.2963 38.424 18.2831 38.4107C18.2454 38.3726 18.2064 38.3362 18.1673 38.2996C18.1448 38.2785 18.1223 38.2575 18.0993 38.2369C18.062 38.2036 18.0241 38.1709 17.9854 38.1388C17.9573 38.1155 17.9287 38.093 17.9 38.0703C17.8641 38.0423 17.8286 38.0139 17.7918 37.987C17.74 37.949 17.6871 37.9127 17.6336 37.8771C17.6193 37.8676 17.6057 37.8571 17.5913 37.8478C18.1917 36.819 19.2907 36.1649 20.5049 36.1649C20.5793 36.1649 20.6599 36.1684 20.7588 36.1757C21.1112 36.2023 21.4418 35.997 21.5788 35.666C22.0828 34.4494 23.249 33.6632 24.5497 33.6632C26.2199 33.6632 27.6297 34.9851 27.7594 36.6725C27.791 37.0827 28.1123 37.4086 28.5167 37.4406C29.7733 37.5399 30.8625 38.3814 31.2918 39.5845C31.3884 39.8552 31.6156 40.0563 31.8929 40.117C33.4128 40.4492 34.5404 41.775 34.667 43.3293L22.0593 43.329Z"/>
</svg>
