<svg width="50" height="50" viewBox="0 0 50 50" xmlns="http://www.w3.org/2000/svg">
<path d="M49.4386 8.37893L25.2718 0.0455471C25.0958 -0.0151824 24.9045 -0.0151824 24.7285 0.0455471L0.56167 8.37893C0.225626 8.49476 0.000104167 8.81101 0 9.16643V49.1667C0 49.6269 0.373127 50 0.833338 50H5.00003C5.46024 50 5.83337 49.6269 5.83337 49.1667V23.3332H44.1669V49.1667C44.1669 49.6269 44.54 50 45.0003 50H49.1669C49.6272 50 50.0003 49.6269 50.0003 49.1667V9.16643C50.0002 8.81101 49.7747 8.49476 49.4386 8.37893ZM4.16669 48.3333H1.66668V16.6665H4.16669V48.3333ZM44.1669 21.6665H5.83337V19.9998H44.1669V21.6665ZM44.1669 18.3332H5.83337V16.6665H44.1669V18.3332ZM48.3336 48.3333H45.8336V16.6665H48.3336V48.3333ZM48.3336 14.9998H1.66668V9.7606L25.0001 1.71472L48.3336 9.7606V14.9998Z M41.2062 35.9166L38.1228 34.3749L35.3728 28.8749C34.9498 28.0286 34.0831 27.4955 33.137 27.4999H16.8635C15.9158 27.4968 15.0488 28.0326 14.6277 28.8816L11.8777 34.3816L8.79433 35.9233C8.51256 36.0641 8.33433 36.3516 8.3335 36.6666V48.3334C8.3335 49.2539 9.07965 50 10.0002 50H13.3335C14.2541 50 15.0002 49.2539 15.0002 48.3334V45.8333H35.0003V48.3334C35.0003 49.2539 35.7465 50 36.667 50H40.0003C40.9209 50 41.667 49.2539 41.667 48.3334V36.6666C41.6688 36.3492 41.49 36.0584 41.2062 35.9166ZM16.1185 29.6274C16.2586 29.3443 16.5476 29.1655 16.8635 29.1666H33.137C33.4529 29.1655 33.7419 29.3443 33.882 29.6274L36.152 34.1666H13.8485L16.1185 29.6274ZM13.3335 48.3334H10.0002V45.8333H13.3335V48.3334ZM40.0003 48.3334H36.667V45.8333H40.0003V48.3334ZM40.0003 44.1667H10.0002V37.1816L12.6969 35.8333H37.3037L40.0003 37.1816V44.1667Z M15.8337 37.4999H13.3337C12.4131 37.4999 11.667 38.246 11.667 39.1666V40.8332C11.667 41.7538 12.4131 42.4999 13.3337 42.4999H15.8337C16.7542 42.4999 17.5004 41.7538 17.5004 40.8332V39.1666C17.5004 38.246 16.7542 37.4999 15.8337 37.4999ZM15.8337 40.8332H13.3337V39.1666H15.8337V40.8332Z M36.6672 37.4999H34.1672C33.2466 37.4999 32.5005 38.246 32.5005 39.1666V40.8332C32.5005 41.7538 33.2466 42.4999 34.1672 42.4999H36.6672C37.5877 42.4999 38.3339 41.7538 38.3339 40.8332V39.1666C38.3339 38.246 37.5877 37.4999 36.6672 37.4999ZM36.6672 40.8332H34.1672V39.1666H36.6672V40.8332Z M29.167 37.4999H20.8337C19.9131 37.4999 19.167 38.246 19.167 39.1666V40.8332C19.167 41.7538 19.9131 42.4999 20.8337 42.4999H29.167C30.0876 42.4999 30.8337 41.7538 30.8337 40.8332V39.1666C30.8337 38.246 30.0876 37.4999 29.167 37.4999ZM29.167 40.8332H20.8337V39.1666H29.167V40.8332Z"/>
</svg>
