<svg width="50" height="50" viewBox="0 0 50 50" xmlns="http://www.w3.org/2000/svg">
<path d="M0.920153 13.8116C0.901976 13.9104 0.891731 14.0106 0.888427 14.1107V16.1676C0.89107 17.0153 1.41752 17.7731 2.21166 18.0708V21.0973C2.2153 22.1106 3.01208 22.9434 4.02401 22.9913V40.4759C3.01208 40.5242 2.2153 41.357 2.21166 42.3699V45.3875C1.41587 45.6932 0.889749 46.4566 0.888427 47.3086V49.3205C0.888427 49.6956 1.19313 50 1.56822 50H47.403C47.778 50 48.0824 49.6956 48.0824 49.3205V47.3086C48.0811 46.4563 47.555 45.6929 46.7595 45.3875V42.3521C46.7559 41.3388 45.9588 40.506 44.9472 40.4581V22.9913C45.9588 22.9434 46.7559 22.1106 46.7595 21.0973V18.0708C47.5533 17.7731 48.0798 17.0153 48.0824 16.1676V14.1242C48.0794 14.0241 48.0689 13.924 48.0507 13.8252C48.3924 13.9765 48.792 13.8225 48.9433 13.4808C49.0947 13.1394 48.9407 12.7399 48.5993 12.5882L24.7982 0.0785713C24.5996 -0.0261904 24.3623 -0.0261904 24.1637 0.0785713L0.362966 12.5746C0.0308347 12.7501 -0.0963995 13.1609 0.0784236 13.493C0.238375 13.7964 0.599258 13.9332 0.920153 13.8116ZM3.57092 19.2486V18.202H11.4092V19.2397L3.57092 19.2486ZM21.0238 22.9959V40.4759C20.0119 40.5242 19.2151 41.357 19.2115 42.3699V45.2606H12.7592V42.3699C12.7556 41.357 11.9588 40.5242 10.9469 40.4759V22.9913C11.9588 22.9434 12.7556 22.1106 12.7592 21.0973V18.202H19.2022V21.093C19.2039 22.1079 20.0013 22.9427 21.0149 22.9913L21.0238 22.9959ZM20.5707 19.2486V18.202H28.4094V19.2397L20.5707 19.2486ZM38.024 22.9959V40.4759C37.012 40.5242 36.2149 41.357 36.2113 42.3699V45.2606H29.7594V42.3699C29.7557 41.357 28.9586 40.5242 27.947 40.4759V22.9913C28.9586 22.9434 29.7557 22.1106 29.7594 21.0973V18.202H36.2024V21.093C36.2037 22.1079 37.0011 22.9427 38.0147 22.9913L38.024 22.9959ZM37.5709 19.2486V18.202H45.4092V19.2397L37.5709 19.2486ZM45.4092 44.2232V45.2606H37.5616V44.2232H45.4092ZM28.4094 44.2232V45.2606H20.5618V44.2232H28.4094ZM21.1055 21.6456C20.805 21.6456 20.5618 21.4024 20.5618 21.102V20.6079H28.4001V21.102C28.4001 21.4024 28.1569 21.6456 27.8565 21.6456H21.1055ZM26.5924 23.0049V40.467H22.3742V23.0049H26.5924ZM27.8565 41.8263C28.1569 41.8263 28.4001 42.0695 28.4001 42.3699V42.864H20.5618V42.3699C20.5618 42.0695 20.805 41.8263 21.1055 41.8263H27.8565ZM11.4003 44.2232V45.2606H3.56167V44.2232H11.4003ZM3.56167 21.1155V20.6079H11.4003V21.102C11.4003 21.4024 11.1571 21.6456 10.8563 21.6456H4.09176C3.79499 21.6383 3.55902 21.3941 3.56167 21.0973V21.1155ZM9.58794 23.0184V40.467H5.37401V23.0049L9.58794 23.0184ZM3.56167 42.3838C3.56167 42.0831 3.8049 41.8398 4.10531 41.8398H10.8563C11.1571 41.8398 11.4003 42.0831 11.4003 42.3838V42.8775H3.56167V42.3838ZM46.7232 48.6678H2.23876V47.336C2.23876 46.948 2.55305 46.6334 2.94103 46.6334H46.0209C46.4033 46.6334 46.7159 46.9398 46.7232 47.3221V48.6678ZM45.4003 42.8775H37.5616V42.3838C37.5616 42.0831 37.8049 41.8398 38.1053 41.8398H44.8702C45.16 41.8471 45.393 42.0801 45.4003 42.3699V42.8775ZM39.374 40.4806V23.0049H43.5922V40.467L39.374 40.4806ZM45.4003 21.1155C45.4003 21.4159 45.157 21.6591 44.8566 21.6591H38.1099C37.8095 21.6591 37.5663 21.4159 37.5663 21.1155V20.6079H45.4045L45.4003 21.1155ZM24.481 1.43783L44.7205 12.0763H4.24146L24.481 1.43783ZM2.23876 14.1242C2.23876 13.7491 2.54313 13.4448 2.91823 13.4448H46.0437C46.4188 13.4448 46.7232 13.7491 46.7232 14.1242V16.1815C46.7232 16.5566 46.4188 16.8609 46.0437 16.8609H2.91823C2.54313 16.8609 2.23876 16.5566 2.23876 16.1815V14.1242Z"/>
</svg>
