<svg width="22" height="20" viewBox="0 0 22 20" xmlns="http://www.w3.org/2000/svg">
<path d="M6.7838 2.80019C6.7838 2.09364 6.21947 1.52097 5.52323 1.52097H3.27748C2.58141 1.52097 2.01709 2.09364 2.01709 2.80019V4.21867H6.7838V2.80019Z"/>
<path d="M14.4834 9.60583C12.8285 9.60583 11.4829 10.9721 11.4829 12.6511C11.4829 14.3304 12.8286 15.6966 14.4834 15.6966C16.1386 15.6966 17.4841 14.3304 17.4841 12.6511C17.4842 10.9721 16.1386 9.60583 14.4834 9.60583Z"/>
<path d="M20.35 5.30229H19.6397L18.6456 1.26811C18.4624 0.522782 17.8021 0 17.0451 0H11.5551C10.798 0 10.1379 0.522782 9.9545 1.26811L8.96045 5.30229H1.64996C0.73903 5.30229 0 6.05189 0 6.97667V18.3256C0 19.2504 0.73903 20 1.64996 20H4.49172V8.4903C4.49172 8.07934 4.81977 7.74607 5.22509 7.74607C5.63042 7.74607 5.95846 8.07934 5.95846 8.4903V20H20.35C21.261 20 22 19.2504 22 18.3256V6.97667C22 6.05189 21.261 5.30229 20.35 5.30229ZM11.4584 2.14139C11.4584 1.98725 11.5817 1.86233 11.7334 1.86233H16.9585C17.1102 1.86233 17.2335 1.98725 17.2335 2.14139V3.93963C17.2335 4.09377 17.1101 4.21869 16.9585 4.21869H11.7334C11.5816 4.21869 11.4584 4.09377 11.4584 3.93963V2.14139ZM14.4833 18.1969C11.4698 18.1969 9.01839 15.7091 9.01839 12.6511C9.01839 9.59343 11.4697 7.10536 14.4833 7.10536C17.4969 7.10536 19.9482 9.59343 19.9482 12.6511C19.9482 15.7091 17.497 18.1969 14.4833 18.1969Z"/>
</svg>