<svg width="40" height="39" viewBox="0 0 40 39" xmlns="http://www.w3.org/2000/svg">
<path d="M15.625 8.75C15.2794 8.75 15 9.02938 15 9.375V26.25C15 26.5956 15.2794 26.875 15.625 26.875C15.9706 26.875 16.25 26.5956 16.25 26.25V9.375C16.25 9.02938 15.9706 8.75 15.625 8.75Z M24.375 8.75C24.0294 8.75 23.75 9.02938 23.75 9.375V26.25C23.75 26.5956 24.0294 26.875 24.375 26.875C24.7206 26.875 25 26.5956 25 26.25V9.375C25 9.02938 24.7206 8.75 24.375 8.75Z M24.375 8.75H15.625C15.2794 8.75 15 9.02938 15 9.375C15 9.72062 15.2794 10 15.625 10H24.375C24.7206 10 25 9.72062 25 9.375C25 9.02938 24.7206 8.75 24.375 8.75Z M18.75 11.875C18.4044 11.875 18.125 12.1544 18.125 12.5V23.75C18.125 24.0956 18.4044 24.375 18.75 24.375C19.0956 24.375 19.375 24.0956 19.375 23.75V12.5C19.375 12.1544 19.0956 11.875 18.75 11.875Z M21.25 11.875C20.9044 11.875 20.625 12.1544 20.625 12.5V23.75C20.625 24.0956 20.9044 24.375 21.25 24.375C21.5956 24.375 21.875 24.0956 21.875 23.75V12.5C21.875 12.1544 21.5956 11.875 21.25 11.875Z M18.125 6.25C17.7794 6.25 17.5 6.52938 17.5 6.875V9.375C17.5 9.72062 17.7794 10 18.125 10C18.4706 10 18.75 9.72062 18.75 9.375V6.875C18.75 6.52938 18.4706 6.25 18.125 6.25Z M21.875 6.25H18.125C17.7794 6.25 17.5 6.52938 17.5 6.875C17.5 7.22062 17.7794 7.5 18.125 7.5H21.875C22.2206 7.5 22.5 7.22062 22.5 6.875C22.5 6.52938 22.2206 6.25 21.875 6.25Z M21.875 6.25C21.5294 6.25 21.25 6.52938 21.25 6.875V9.375C21.25 9.72062 21.5294 10 21.875 10C22.2206 10 22.5 9.72062 22.5 9.375V6.875C22.5 6.52938 22.2206 6.25 21.875 6.25Z M20 2.5C19.6544 2.5 19.375 2.77938 19.375 3.125V6.875C19.375 7.22062 19.6544 7.5 20 7.5C20.3456 7.5 20.625 7.22062 20.625 6.875V3.125C20.625 2.77938 20.3456 2.5 20 2.5Z M26.875 15.625C26.5294 15.625 26.25 15.9044 26.25 16.25V26.25C26.25 26.5956 26.5294 26.875 26.875 26.875C27.2206 26.875 27.5 26.5956 27.5 26.25V16.25C27.5 15.9044 27.2206 15.625 26.875 15.625Z M33.125 15.625H26.875C26.5294 15.625 26.25 15.9044 26.25 16.25C26.25 16.5956 26.5294 16.875 26.875 16.875H33.125C33.4706 16.875 33.75 16.5956 33.75 16.25C33.75 15.9044 33.4706 15.625 33.125 15.625Z M33.125 15.625C32.7794 15.625 32.5 15.9044 32.5 16.25V26.25C32.5 26.5956 32.7794 26.875 33.125 26.875C33.4706 26.875 33.75 26.5956 33.75 26.25V16.25C33.75 15.9044 33.4706 15.625 33.125 15.625Z M31.25 18.125H28.75C28.4044 18.125 28.125 18.4044 28.125 18.75C28.125 19.0956 28.4044 19.375 28.75 19.375H31.25C31.5956 19.375 31.875 19.0956 31.875 18.75C31.875 18.4044 31.5956 18.125 31.25 18.125Z M31.25 20.625H28.75C28.4044 20.625 28.125 20.9044 28.125 21.25C28.125 21.5956 28.4044 21.875 28.75 21.875H31.25C31.5956 21.875 31.875 21.5956 31.875 21.25C31.875 20.9044 31.5956 20.625 31.25 20.625Z M31.25 23.125H28.75C28.4044 23.125 28.125 23.4044 28.125 23.75C28.125 24.0956 28.4044 24.375 28.75 24.375H31.25C31.5956 24.375 31.875 24.0956 31.875 23.75C31.875 23.4044 31.5956 23.125 31.25 23.125Z M6.875 15.625C6.52938 15.625 6.25 15.9044 6.25 16.25V26.25C6.25 26.5956 6.52938 26.875 6.875 26.875C7.22062 26.875 7.5 26.5956 7.5 26.25V16.25C7.5 15.9044 7.22062 15.625 6.875 15.625Z M13.125 15.625H6.875C6.52938 15.625 6.25 15.9044 6.25 16.25C6.25 16.5956 6.52938 16.875 6.875 16.875H13.125C13.4706 16.875 13.75 16.5956 13.75 16.25C13.75 15.9044 13.4706 15.625 13.125 15.625Z M13.125 15.625C12.7794 15.625 12.5 15.9044 12.5 16.25V26.25C12.5 26.5956 12.7794 26.875 13.125 26.875C13.4706 26.875 13.75 26.5956 13.75 26.25V16.25C13.75 15.9044 13.4706 15.625 13.125 15.625Z M11.25 18.125H8.75C8.40438 18.125 8.125 18.4044 8.125 18.75C8.125 19.0956 8.40438 19.375 8.75 19.375H11.25C11.5956 19.375 11.875 19.0956 11.875 18.75C11.875 18.4044 11.5956 18.125 11.25 18.125Z M11.25 20.625H8.75C8.40438 20.625 8.125 20.9044 8.125 21.25C8.125 21.5956 8.40438 21.875 8.75 21.875H11.25C11.5956 21.875 11.875 21.5956 11.875 21.25C11.875 20.9044 11.5956 20.625 11.25 20.625Z M11.25 23.125H8.75C8.40438 23.125 8.125 23.4044 8.125 23.75C8.125 24.0956 8.40438 24.375 8.75 24.375H11.25C11.5956 24.375 11.875 24.0956 11.875 23.75C11.875 23.4044 11.5956 23.125 11.25 23.125Z M35.625 25.625H4.375C4.02938 25.625 3.75 25.9044 3.75 26.25C3.75 26.5956 4.02938 26.875 4.375 26.875H35.625C35.9706 26.875 36.25 26.5956 36.25 26.25C36.25 25.9044 35.9706 25.625 35.625 25.625Z M35.8715 25.6756C35.5571 25.5388 35.1871 25.6856 35.0509 26.0038L33.1759 30.3788C33.0396 30.6956 33.1865 31.0631 33.504 31.1994C33.584 31.2344 33.6677 31.25 33.7502 31.25C33.9927 31.25 34.2234 31.1081 34.3246 30.8713L36.1996 26.4963C36.3359 26.1794 36.189 25.8119 35.8715 25.6756Z M6.82453 30.3788L4.94953 26.0038C4.81328 25.6856 4.4439 25.5381 4.1289 25.6756C3.81203 25.8119 3.66453 26.1794 3.80078 26.4963L5.67578 30.8713C5.77703 31.1081 6.00765 31.25 6.25015 31.25C6.33265 31.25 6.4164 31.2344 6.4964 31.1994C6.81328 31.0631 6.96078 30.6956 6.82453 30.3788Z M20.2991 37.5769L6.54911 30.0769C6.24723 29.9113 5.86723 30.0231 5.70161 30.3263C5.53598 30.6288 5.64786 31.0081 5.95098 31.1738L19.701 38.6738C19.796 38.7256 19.8985 38.75 19.9997 38.75C20.2216 38.75 20.4354 38.6325 20.5485 38.4244C20.7141 38.1219 20.6022 37.7425 20.2991 37.5769Z M34.2985 30.3263C34.1329 30.0231 33.7529 29.9113 33.451 30.0769L19.701 37.5769C19.3979 37.7419 19.286 38.1219 19.4516 38.4244C19.5654 38.6325 19.7797 38.75 20.001 38.75C20.1022 38.75 20.2047 38.7256 20.2991 38.6738L34.0491 31.1738C34.3522 31.0088 34.4641 30.6288 34.2985 30.3263Z M24.6901 30.085C24.3933 29.9125 24.0095 30.0119 23.8351 30.31L19.4601 37.81C19.2864 38.1081 19.387 38.4912 19.6851 38.665C19.7839 38.7225 19.8929 38.75 19.9997 38.75C20.2147 38.75 20.4239 38.6387 20.5401 38.44L24.9151 30.94C25.0889 30.6419 24.9883 30.2587 24.6901 30.085Z M24.375 25.625C24.0294 25.625 23.75 25.9044 23.75 26.25V30.625C23.75 30.9706 24.0294 31.25 24.375 31.25C24.7206 31.25 25 30.9706 25 30.625V26.25C25 25.9044 24.7206 25.625 24.375 25.625Z M34.0625 35.625C33.8906 35.625 33.75 35.4844 33.75 35.3125C33.75 35.1406 33.8906 35 34.0625 35C34.4081 35 34.6875 34.7206 34.6875 34.375C34.6875 34.0294 34.4081 33.75 34.0625 33.75C33.2006 33.75 32.5 34.4506 32.5 35.3125C32.5 36.1744 33.2006 36.875 34.0625 36.875C34.4081 36.875 34.6875 36.5956 34.6875 36.25C34.6875 35.9044 34.4081 35.625 34.0625 35.625Z M37.5 31.875C36.1212 31.875 35 32.9962 35 34.375C35 34.7206 35.2794 35 35.625 35C35.9706 35 36.25 34.7206 36.25 34.375C36.25 33.6856 36.8106 33.125 37.5 33.125C38.1894 33.125 38.75 33.6856 38.75 34.375C38.75 35.0644 38.1894 35.625 37.5 35.625C37.1544 35.625 36.875 35.9044 36.875 36.25C36.875 36.5956 37.1544 36.875 37.5 36.875C38.8788 36.875 40 35.7538 40 34.375C40 32.9962 38.8788 31.875 37.5 31.875Z M37.5 35.625H34.0625C33.7169 35.625 33.4375 35.9044 33.4375 36.25C33.4375 36.5956 33.7169 36.875 34.0625 36.875H37.5C37.8456 36.875 38.125 36.5956 38.125 36.25C38.125 35.9044 37.8456 35.625 37.5 35.625Z M35.625 33.75H34.0625C33.7169 33.75 33.4375 34.0294 33.4375 34.375C33.4375 34.7206 33.7169 35 34.0625 35H35.625C35.9706 35 36.25 34.7206 36.25 34.375C36.25 34.0294 35.9706 33.75 35.625 33.75Z M8.4375 35.625C8.09188 35.625 7.8125 35.9044 7.8125 36.25C7.8125 36.5956 8.09188 36.875 8.4375 36.875C8.60938 36.875 8.75 37.0156 8.75 37.1875C8.75 37.3594 8.60938 37.5 8.4375 37.5C8.09188 37.5 7.8125 37.7794 7.8125 38.125C7.8125 38.4706 8.09188 38.75 8.4375 38.75C9.29937 38.75 10 38.0494 10 37.1875C10 36.3256 9.29937 35.625 8.4375 35.625Z M3.75 33.75C2.37125 33.75 1.25 34.8712 1.25 36.25C1.25 37.6288 2.37125 38.75 3.75 38.75C4.09562 38.75 4.375 38.4706 4.375 38.125C4.375 37.7794 4.09562 37.5 3.75 37.5C3.06062 37.5 2.5 36.9394 2.5 36.25C2.5 35.5606 3.06062 35 3.75 35C4.43937 35 5 35.5606 5 36.25C5 36.5956 5.27938 36.875 5.625 36.875C5.97062 36.875 6.25 36.5956 6.25 36.25C6.25 34.8712 5.12875 33.75 3.75 33.75Z M8.4375 37.5H3.75C3.40438 37.5 3.125 37.7794 3.125 38.125C3.125 38.4706 3.40438 38.75 3.75 38.75H8.4375C8.78312 38.75 9.0625 38.4706 9.0625 38.125C9.0625 37.7794 8.78312 37.5 8.4375 37.5Z M8.4375 35.625H5.625C5.27938 35.625 5 35.9044 5 36.25C5 36.5956 5.27938 36.875 5.625 36.875H8.4375C8.78312 36.875 9.0625 36.5956 9.0625 36.25C9.0625 35.9044 8.78312 35.625 8.4375 35.625Z M5.625 3.125C4.24625 3.125 3.125 4.24625 3.125 5.625C3.125 7.00375 4.24625 8.125 5.625 8.125C7.00375 8.125 8.125 7.00375 8.125 5.625C8.125 4.24625 7.00375 3.125 5.625 3.125ZM5.625 6.875C4.93563 6.875 4.375 6.31437 4.375 5.625C4.375 4.93562 4.93563 4.375 5.625 4.375C6.31438 4.375 6.875 4.93562 6.875 5.625C6.875 6.31437 6.31438 6.875 5.625 6.875Z M5.625 0C5.27938 0 5 0.279375 5 0.625V1.875C5 2.22062 5.27938 2.5 5.625 2.5C5.97062 2.5 6.25 2.22062 6.25 1.875V0.625C6.25 0.279375 5.97062 0 5.625 0Z M5.625 8.75C5.27938 8.75 5 9.02938 5 9.375V10.625C5 10.9706 5.27938 11.25 5.625 11.25C5.97062 11.25 6.25 10.9706 6.25 10.625V9.375C6.25 9.02938 5.97062 8.75 5.625 8.75Z M3.41563 2.53187L2.53188 1.6475C2.2875 1.40312 1.8925 1.40312 1.64812 1.6475C1.40375 1.89125 1.40375 2.28687 1.64812 2.53125L2.53188 3.41562C2.65375 3.5375 2.81375 3.59875 2.97375 3.59875C3.13375 3.59875 3.29375 3.5375 3.41563 3.41562C3.66 3.17187 3.66 2.77625 3.41563 2.53187Z M9.60312 8.71812L8.71938 7.83437C8.475 7.59 8.08 7.59 7.83563 7.83437C7.59125 8.07875 7.59125 8.47375 7.83563 8.71812L8.71938 9.60187C8.84125 9.72375 9.00125 9.785 9.16125 9.785C9.32125 9.785 9.48125 9.72437 9.60312 9.60187C9.8475 9.3575 9.8475 8.9625 9.60312 8.71812Z M1.87562 5H0.625C0.279375 5 0 5.27938 0 5.625C0 5.97062 0.279375 6.25 0.625 6.25H1.87562C2.22125 6.25 2.50062 5.97062 2.50062 5.625C2.50062 5.27938 2.22125 5 1.87562 5Z M10.625 4.99937H9.375C9.02937 4.99937 8.75 5.27875 8.75 5.62437C8.75 5.97 9.02937 6.24937 9.375 6.24937H10.625C10.9706 6.24937 11.25 5.97 11.25 5.62437C11.25 5.27875 10.9706 4.99937 10.625 4.99937Z M3.41625 7.83437C3.17188 7.59 2.77687 7.59 2.5325 7.83437L1.64812 8.71875C1.40375 8.96312 1.40375 9.35812 1.64812 9.6025C1.77 9.72437 1.93 9.78562 2.09 9.78562C2.25 9.78562 2.40938 9.725 2.53188 9.6025L3.41625 8.71812C3.66062 8.47375 3.66062 8.07875 3.41625 7.83437Z M9.6018 1.64687C9.35742 1.4025 8.96242 1.4025 8.71805 1.64687L7.83367 2.53062C7.5893 2.77437 7.5893 3.17 7.83367 3.41437C7.95555 3.53625 8.11555 3.5975 8.27555 3.5975C8.43555 3.5975 8.59555 3.53625 8.71742 3.41437L9.6018 2.53062C9.84617 2.28687 9.84617 1.89125 9.6018 1.64687Z M35.6214 3.75C34.112 3.75 32.8502 4.82562 32.5595 6.25H29.3789C28.3452 6.25 27.5039 7.09125 27.5039 8.125C27.5039 9.15875 28.3452 10 29.3789 10H35.6214C37.3445 10 38.7464 8.59812 38.7464 6.875C38.7464 5.15188 37.3445 3.75 35.6214 3.75ZM35.6214 8.75H29.3789C29.0339 8.75 28.7539 8.47 28.7539 8.125C28.7539 7.78 29.0339 7.5 29.3789 7.5H33.1214C33.467 7.5 33.7464 7.22062 33.7464 6.875C33.7464 5.84125 34.5877 5 35.6214 5C36.6552 5 37.4964 5.84125 37.4964 6.875C37.4964 7.90875 36.6552 8.75 35.6214 8.75Z"/>
</svg>
