<svg width="40" height="36" viewBox="0 0 40 36" xmlns="http://www.w3.org/2000/svg">
<path d="M21.9364 15.6031L20.6335 11.5703C20.5431 11.2953 20.2879 11.1095 20 11.1095C19.712 11.1095 19.4568 11.2953 19.3666 11.5703L18.0623 15.6031H13.8443C13.5558 15.6031 13.2995 15.7901 13.2106 16.0662C13.121 16.3425 13.2189 16.645 13.4527 16.8157L16.8662 19.3081L15.5631 23.3411C15.4735 23.6174 15.5716 23.92 15.8052 24.0903C16.0391 24.2612 16.3556 24.2612 16.5889 24.0903L19.9995 21.5979L23.4118 24.0903C23.6452 24.2612 23.962 24.2612 24.1958 24.0903C24.4293 23.92 24.5271 23.6174 24.4379 23.3411L23.1327 19.3081L26.5441 16.8157C26.7777 16.6452 26.8756 16.3431 26.7868 16.0673C26.6977 15.7914 26.4425 15.6041 26.1543 15.6031H21.9364ZM21.9585 18.5098C21.7252 18.6809 21.6273 18.9832 21.7166 19.2595L22.5325 21.7934L20.3914 20.2276C20.1575 20.0569 19.8412 20.0569 19.6075 20.2276L17.4664 21.7934L18.285 19.2595C18.3741 18.9832 18.2766 18.6809 18.0427 18.5098L15.8964 16.9436H18.546C18.8352 16.9436 19.0908 16.7568 19.1802 16.4805L19.9995 13.9462L20.8187 16.4805C20.9077 16.7568 21.1637 16.9436 21.4529 16.9436H24.1023L21.9585 18.5098Z M20.0002 6.89024C14.1094 6.89024 9.33398 11.6916 9.33398 17.6139C9.33398 23.5363 14.1094 28.3376 20.0002 28.3376C25.8907 28.3376 30.6661 23.5363 30.6661 17.6139C30.6592 11.6943 25.8878 6.89695 20.0002 6.89024ZM20.0002 26.997C14.8459 26.997 10.6673 22.7963 10.6673 17.6139C10.6673 12.4316 14.8459 8.2306 20.0002 8.2306C25.1544 8.2306 29.3328 12.4316 29.3328 17.6139C29.3273 22.7937 25.1521 26.9916 20.0002 26.997Z M37.4336 18.2842L39.9109 13.9278C40.0298 13.72 40.0296 13.4642 39.9107 13.2567C39.7911 13.0493 39.5703 12.9219 39.3323 12.9224H34.6657V7.12128C34.6657 6.85924 34.5142 6.6215 34.2771 6.51216L20.2779 0.0611109C20.1017 -0.0203703 19.8986 -0.0203703 19.7221 0.0611109L5.72313 6.51216C5.48605 6.6215 5.33438 6.85924 5.33438 7.12128V12.9224H0.667918C0.429792 12.9219 0.208959 13.0493 0.0895838 13.2567C-0.0295831 13.4642 -0.0299998 13.72 0.0891671 13.9278L2.56667 18.2842L0.0891671 22.6406C-0.0299998 22.8482 -0.0295831 23.1042 0.0895838 23.3117C0.208959 23.5191 0.429792 23.6463 0.667918 23.646H6.31897C7.87647 28.1277 11.1783 31.7806 15.4671 33.7669L19.7246 35.7285C19.9013 35.8098 20.1044 35.8098 20.2807 35.7285L24.5329 33.7669C28.8219 31.7806 32.1236 28.1277 33.6811 23.646H39.3323C39.5703 23.6463 39.7911 23.5191 39.9107 23.3117C40.0296 23.1042 40.0298 22.8482 39.9109 22.6406L37.4336 18.2842ZM1.81667 22.3055L3.91313 18.6193C4.03021 18.4134 4.03021 18.1604 3.91313 17.9543L1.81667 14.2629H5.33438V17.8954C5.33772 19.3843 5.53188 20.8665 5.91251 22.3055H1.81667ZM23.9804 32.5491L20.0002 34.3833L16.0194 32.5491C10.3281 29.9144 6.67793 24.1951 6.66751 17.8954V7.55152L20.0002 1.40733L33.3328 7.55152V17.8954C33.3223 24.1951 29.6721 29.9144 23.9804 32.5491ZM34.0875 22.3055C34.4684 20.8665 34.6625 19.3843 34.6657 17.8954V14.2629H38.1834L36.0871 17.9491C35.97 18.1552 35.97 18.4078 36.0871 18.6141L38.1834 22.3055H34.0875Z"/>
</svg>
