<svg width="50" height="50" viewBox="0 0 50 50" xmlns="http://www.w3.org/2000/svg">
<path d="M11.6671 19.5838C11.6671 18.7985 11.3488 18.0472 10.7855 17.5C11.6354 16.673 11.8994 15.4135 11.4523 14.3148C11.0052 13.2162 9.93677 12.4987 8.75086 12.5002H7.50055C6.58014 12.5002 5.83398 13.2464 5.83398 14.1668V20.8335C5.83398 21.7539 6.58014 22.5004 7.50055 22.5004H8.75086C10.3613 22.5004 11.6671 21.1942 11.6671 19.5838ZM7.50055 14.1668H8.75086C9.44086 14.1668 10.0006 14.7265 10.0006 15.4168C10.0006 16.1075 9.44086 16.6669 8.75086 16.6669H7.50055V14.1668ZM7.50055 18.3337H8.75086C9.44086 18.3337 10.0006 18.8931 10.0006 19.5838C10.0006 20.2738 9.44086 20.8335 8.75086 20.8335H7.50055V18.3337Z M48.3334 25.8334C48.3334 24.4528 47.2144 23.3334 45.8334 23.3334H43.3334V19.1668C43.3282 19.1186 43.3188 19.071 43.305 19.0243C42.98 12.5111 36.9235 11.667 31.6668 11.667C26.3861 11.667 20.2926 12.5151 20.0262 19.0392C20.0143 19.0813 20.0054 19.1235 20.0006 19.1668V23.3334H17.5002C16.1199 23.3334 15.0005 24.4528 15.0005 25.8334C14.0801 25.8334 13.3337 26.5796 13.3337 27.5003V32.5001C13.3337 33.4205 14.0801 34.1667 15.0005 34.1667H16.6671C17.5878 34.1667 18.334 33.4205 18.334 32.5001V27.5003C18.334 26.5796 17.5878 25.8334 16.6671 25.8334C16.6671 25.3732 17.0403 25 17.5002 25H20.0006V42.4999C20.0048 43.5558 20.6719 44.4951 21.6671 44.8467V47.5002C21.6699 47.7844 21.7218 48.0663 21.8203 48.3334H16.6671V47.5002C16.6671 46.1193 15.5477 45.0002 14.1671 45.0002H10.834V25.4495C14.7585 24.2151 17.1948 20.3015 16.5707 16.2349C15.9463 12.1687 12.4477 9.16638 8.33367 9.16638C4.2202 9.16638 0.721655 12.1687 0.0972643 16.2349C-0.527126 20.3015 1.9094 24.2151 5.83397 25.4495V45.0002H2.50083C1.11991 45.0002 0.000828577 46.1193 0.000828577 47.5002V49.1668C0.000828577 49.627 0.373754 50 0.833655 50H49.1666C49.6271 50 50 49.627 50 49.1668C50 48.7063 49.6271 48.3334 49.1666 48.3334H41.5137C41.6119 48.0663 41.6638 47.7844 41.6669 47.5002V44.8467C42.662 44.4951 43.3288 43.5558 43.3334 42.4999V25H45.8334C46.2936 25 46.6669 25.3732 46.6669 25.8334C45.7465 25.8334 45.0003 26.5796 45.0003 27.5003V32.5001C45.0003 33.4205 45.7465 34.1667 46.6669 34.1667H48.3334C49.2538 34.1667 50 33.4205 50 32.5001V27.5003C50 26.5796 49.2538 25.8334 48.3334 25.8334ZM16.6671 32.5001H15.0005V27.5003H16.6671V32.5001ZM41.6669 20.0002V21.6668H21.6671V20.0002H41.6669ZM21.6671 23.3334H41.6669V33.3332H21.6671V23.3334ZM31.6668 13.3336C38.0551 13.3336 41.0068 14.7844 41.56 18.3337H21.7669C22.2927 14.7985 25.2429 13.3336 31.6668 13.3336ZM1.6674 17.4999C1.6674 13.8182 4.65202 10.8336 8.33367 10.8336C12.0156 10.8336 15.0005 13.8182 15.0005 17.4999C15.0005 21.1819 12.0156 24.1669 8.33367 24.1669C4.65385 24.1629 1.67136 21.1804 1.6674 17.4999ZM7.50054 25.7907C8.05443 25.8478 8.6129 25.8478 9.16741 25.7907V45.0002H7.50054V25.7907ZM1.6674 48.3334V47.5002C1.6674 47.0397 2.04032 46.6668 2.50083 46.6668H14.1671C14.6273 46.6668 15.0005 47.0397 15.0005 47.5002V48.3334H1.6674ZM24.1668 48.3334C23.7069 48.3334 23.3337 47.9601 23.3337 47.5002V45.0002H25.8334V47.5002C25.8334 47.9601 25.4605 48.3334 25.0003 48.3334H24.1668ZM35.8337 45.0002V47.5002C35.8362 47.7844 35.888 48.0663 35.9869 48.3334H27.3471C27.4456 48.0663 27.4975 47.7844 27.5006 47.5002V45.0002H35.8337ZM38.3334 48.3334C37.8732 48.3334 37.5003 47.9601 37.5003 47.5002V45.0002H40.0003V47.5002C40.0003 47.9601 39.6268 48.3334 39.1669 48.3334H38.3334ZM40.8334 43.3333H22.5003C22.0401 43.3333 21.6671 42.9604 21.6671 42.4999V35.0004H41.6669V42.4999C41.6669 42.9604 41.2939 43.3333 40.8334 43.3333ZM46.6669 32.5001V27.5003H48.3334V32.5001H46.6669Z M29.3096 37.5886C29.0292 37.0216 28.4509 36.6643 27.8189 36.667H25.0006C24.0801 36.667 23.334 37.4132 23.334 38.3336V40.0002C23.334 40.9206 24.0801 41.6668 25.0006 41.6668H28.6523C29.2312 41.6677 29.7692 41.3677 30.0729 40.8754C30.3771 40.3826 30.4037 39.767 30.1431 39.2503L29.3096 37.5886ZM25.0006 40.0002V38.3336H27.8189L28.6563 40.0002H25.0006Z M38.3333 36.667H35.515C34.8839 36.6634 34.3062 37.0189 34.0242 37.5835L33.1911 39.2504C32.9305 39.767 32.9567 40.3826 33.261 40.8754C33.565 41.3677 34.1027 41.6677 34.6819 41.6668H38.3333C39.2537 41.6668 40.0002 40.9206 40.0002 40.0002V38.3336C40.0002 37.4132 39.2537 36.667 38.3333 36.667ZM38.3333 40.0002H34.6819L35.515 38.3336H38.3333V40.0002Z M29.1674 16.6668H34.1671C34.6273 16.6668 35.0003 16.2939 35.0003 15.8334C35.0003 15.3735 34.6273 15.0002 34.1671 15.0002H29.1674C28.7069 15.0002 28.334 15.3735 28.334 15.8334C28.334 16.2939 28.7069 16.6668 29.1674 16.6668Z M27.2558 25.2442C26.9304 24.9189 26.4034 24.9189 26.0781 25.2442L23.5778 27.7446C23.3611 27.9536 23.2741 28.2637 23.3504 28.5548C23.4267 28.8463 23.6544 29.0739 23.9455 29.1499C24.237 29.2262 24.5467 29.1395 24.7561 28.9229L27.2558 26.4225C27.5814 26.0972 27.5814 25.5699 27.2558 25.2442Z M31.078 25.2442L26.0783 30.2442C25.8616 30.4536 25.7746 30.7633 25.8509 31.0548C25.9272 31.3462 26.1546 31.5736 26.4457 31.6499C26.7371 31.7262 27.0469 31.6392 27.2559 31.4225L32.2563 26.4225C32.5721 26.0956 32.5675 25.5759 32.2459 25.2545C31.9245 24.9329 31.4048 24.9283 31.078 25.2442Z M36.7561 4.27196C37.2355 3.80779 37.5041 3.16752 37.5004 2.5004C37.5004 1.11946 36.381 6.68578e-05 35.0001 6.68578e-05H11.6672C11.0074 -0.00481601 10.3739 0.257943 9.91155 0.728529C9.43212 1.19301 9.16326 1.83267 9.16753 2.5004C9.16753 3.88103 10.2866 5.00012 11.6672 5.00012H20.8338V5.15118C20.4859 5.2699 20.1701 5.46735 19.9113 5.72858C19.4318 6.19307 19.1633 6.83303 19.1672 7.50015C19.1672 8.88078 20.2863 10.0005 21.6672 10.0005H45.0004C46.3777 9.99255 47.4925 8.87773 47.5001 7.50015C47.5001 6.11921 46.3807 5.00012 45.0004 5.00012H35.8338V4.84936C36.1817 4.73095 36.4976 4.5332 36.7561 4.27196ZM45.8336 7.50015C45.8339 7.72445 45.7414 7.9393 45.5787 8.09342C45.4264 8.24906 45.2177 8.33573 45.0004 8.33329H21.6672C21.2067 8.33329 20.8338 7.96036 20.8338 7.50015C20.8335 7.27584 20.9257 7.0613 21.0889 6.90719C21.2406 6.75154 21.4497 6.66487 21.6672 6.6667C22.1271 6.6667 22.5004 6.29378 22.5004 5.83357V4.16698C22.5004 3.70647 22.1271 3.33354 21.6672 3.33354H11.6672C11.207 3.33354 10.8341 2.9603 10.8341 2.5004C10.8335 2.27579 10.926 2.06125 11.0889 1.90683C11.2409 1.75149 11.4496 1.66451 11.6672 1.66696H35.0001C35.4606 1.66696 35.8338 2.03988 35.8338 2.5004C35.8341 2.72471 35.7417 2.93955 35.5784 3.09367C35.4267 3.24931 35.2177 3.33567 35.0001 3.33354C34.5402 3.33354 34.167 3.70647 34.167 4.16698V5.83357C34.167 6.29378 34.5402 6.6667 35.0001 6.6667H45.0004C45.4603 6.6667 45.8336 7.03994 45.8336 7.50015Z"/>
</svg>
