<svg width="99" height="76" viewBox="0 0 99 76" xmlns="http://www.w3.org/2000/svg">
<path d="M85.2614 11.5057C85.2158 10.9599 85.2158 10.3687 85.1701 9.82302L85.1245 9.86849C86.8133 9.77754 88.5934 9.41373 90.1452 10.778C89.8714 11.7785 90.7842 12.0969 91.5145 12.5516C92.0166 12.87 92.61 13.1428 93.0664 13.5521C94.5726 14.7345 96.1701 15.3712 98.0871 15.0529C98.7261 14.9619 99 15.2348 99 15.9169C99 16.6446 98.8174 16.8719 98.0415 16.8719C95.8506 16.8265 93.6141 16.8719 91.4232 16.8719C91.0581 16.8719 90.6473 16.9174 90.1452 16.9174C90.1452 17.3722 90.1452 17.736 90.1452 18.1453C90.1452 32.4705 90.1452 46.8412 90.1452 61.1665C90.1452 62.5308 90.1452 62.5308 91.5145 62.5308C92.2448 62.5308 92.9295 62.5763 93.6598 62.5308C94.4357 62.4853 94.7552 62.7582 94.4813 63.6222C63.0332 63.6222 31.5851 63.6222 0.0912863 63.6222C0.0456432 63.4403 0 63.3039 0 63.1675C0 63.031 0.0456432 62.8491 0.0912863 62.5763C1.04979 62.5763 1.96266 62.5308 2.87552 62.5763C3.83402 62.6672 4.15353 62.3489 4.15353 61.3484C4.10788 53.3899 4.24481 45.4769 4.06224 37.5185C4.0166 34.9263 4.70125 33.2436 6.84647 31.7429C9.72199 29.7419 12.3693 27.3771 15.1079 25.1487C15.3817 24.9214 15.6556 24.7395 16.112 24.3756C16.112 25.0123 16.112 25.4216 16.112 25.8764C16.112 37.7004 16.112 49.5244 16.112 61.3484C16.112 61.7122 16.2033 62.3944 16.3859 62.4398C16.9793 62.5763 17.6183 62.4853 18.2116 62.4853C18.3029 62.4853 18.4398 62.167 18.4398 62.0305C18.4855 61.7122 18.4398 61.3939 18.4398 61.0755C18.4398 49.206 18.4398 37.382 18.4398 25.5126C18.4398 25.1487 18.4398 24.7395 18.4398 24.1028C19.3983 24.8304 20.1743 25.3307 20.8133 25.9673C21.0415 26.1947 21.0415 26.7404 21.0415 27.1497C21.0415 36.5635 21.0415 45.9317 21.0415 55.3454C21.0415 57.3009 21.0415 59.3019 21.0415 61.2574C21.0415 62.6217 21.0415 62.6217 22.4108 62.6217C22.6846 62.6217 22.9129 62.5763 23.278 62.5763C23.278 51.0706 23.278 39.5649 23.278 27.8319C24.2365 28.514 25.0581 28.9688 25.7427 29.56C25.971 29.7419 25.9253 30.2876 25.9253 30.6515C25.9253 40.8383 25.9253 50.9796 25.9253 61.1665C25.9253 62.5308 26.7469 63.122 28.0249 62.6217C28.1618 62.5763 28.2988 62.3034 28.3444 62.1215C28.39 61.8941 28.3444 61.6212 28.3444 61.3484C28.3444 47.7963 28.3444 34.1987 28.3444 20.6465C28.3444 19.737 28.5726 19.1458 29.3485 18.5546C32.9544 15.8714 36.5145 13.0974 40.0747 10.3687C40.3029 10.1868 40.5311 10.0504 40.9419 9.77754C40.9419 10.3687 40.9419 10.8235 40.9419 11.2783C40.9419 27.9228 40.9419 44.5219 40.9419 61.1665C40.9419 61.6667 40.9876 62.4853 41.2158 62.5763C41.8091 62.7582 42.5394 62.6672 43.2241 62.6217C43.361 62.6217 43.4979 62.3034 43.5436 62.1215C43.5892 61.8032 43.5436 61.4848 43.5436 61.1665C43.5436 44.2945 43.5436 27.4681 43.5436 10.5961C43.5436 10.2323 43.5436 9.86849 43.5436 9.18634C44.8672 10.6871 46.0996 11.6876 46.0539 13.825C45.9627 29.6964 46.0083 45.5224 46.0083 61.3939C46.0083 61.8032 46.0996 62.5308 46.2822 62.5763C46.8755 62.7127 47.5602 62.6672 48.1992 62.6217C48.2905 62.6217 48.4274 62.2579 48.4274 62.0305C48.473 61.6667 48.4274 61.2574 48.4274 60.8481C48.4274 45.5224 48.4274 30.1512 48.4274 14.8255C48.4274 14.4617 48.4274 14.1433 48.4274 13.5066C49.7054 14.871 50.9834 15.6895 50.9378 17.7815C50.8008 25.8309 50.8921 33.8803 50.8921 41.8843C50.8921 42.2936 50.8921 42.7028 50.8921 43.294C52.0788 42.5209 52.9461 41.9297 52.9004 40.3835C52.8091 33.1527 52.8548 25.9219 52.8548 18.691C52.8548 18.3272 52.8548 18.0089 52.8548 17.6451C52.9461 17.5996 52.9917 17.5996 53.083 17.5541C53.7676 18.1908 54.4979 18.8275 55.1369 19.5551C55.3651 19.7825 55.3651 20.2827 55.3651 20.6465C55.3651 26.5131 55.3651 32.3796 55.3651 38.2916C55.3651 38.6554 55.3651 39.0192 55.3651 39.7014C57.3734 38.0187 59.1535 36.518 61.2075 34.8353C61.2075 35.4265 61.2075 35.7903 61.2075 36.1542C61.2075 44.6129 61.2075 53.0716 61.2075 61.5303C61.2075 61.8941 61.39 62.5763 61.527 62.5763C62.166 62.6672 62.8506 62.6217 63.5353 62.5308C63.6266 62.5308 63.7178 61.9396 63.7178 61.6667C63.7178 58.165 63.7178 54.7088 63.7178 51.207C63.7178 46.2955 63.7178 41.384 63.7178 36.4725C63.7178 36.1087 63.7178 35.6994 63.7178 35.2901C65.4066 35.5175 66.3195 36.5635 66.3195 38.1097C66.3195 45.8407 66.3195 53.5263 66.3195 61.2574C66.3195 61.7122 66.3651 62.167 66.3651 62.5763C66.5477 62.6217 66.639 62.6672 66.7303 62.6672C68.3734 62.8036 68.3734 62.8036 68.3734 61.121C68.3734 54.1176 68.3734 47.1141 68.3734 40.1107C68.3734 39.7468 68.3734 39.383 68.3734 38.7009C69.3319 39.474 70.1079 40.0197 70.7925 40.7019C71.0207 40.9292 71.0207 41.4295 71.0207 41.7933C71.0207 48.342 71.0207 54.8907 71.0207 61.4393C71.0207 61.8486 71.112 62.5308 71.249 62.5763C71.888 62.7127 72.527 62.6672 73.166 62.5763C73.3029 62.5763 73.3942 61.9396 73.3942 61.6212C73.3942 55.8911 73.3942 50.1156 73.3942 44.3855C73.3942 43.9762 73.3942 43.5669 73.3942 42.8393C74.3527 43.6579 75.1286 44.2491 75.8133 44.9312C76.0415 45.1586 75.9958 45.6588 75.9958 46.0227C75.9958 51.207 75.9958 56.4369 75.9958 61.6212C75.9958 62.2579 75.9959 62.7127 76.9087 62.7127C77.8216 62.7127 77.8672 62.3034 77.8672 61.5758C77.8672 54.0721 77.8672 46.5684 77.8672 39.1102C77.8672 36.4725 77.9129 33.8348 77.8672 31.1517C77.8672 30.3786 78.0498 30.0603 78.917 30.1057C80.6514 30.1512 80.4232 30.0603 80.4232 31.6519C80.4232 41.6114 80.4232 51.5254 80.4232 61.4848C80.4232 62.7127 80.4689 62.7127 81.6556 62.7127C82.2946 62.7127 82.4315 62.4398 82.4315 61.8941C82.4315 60.0296 82.4315 58.165 82.4315 56.255C82.4315 43.6579 82.4315 31.0607 82.4315 18.4636C82.4315 18.0543 82.4772 17.2812 82.6597 17.2358C83.2987 17.0993 83.9834 17.1448 84.6681 17.1448C84.7593 17.1448 84.8963 17.4177 84.9419 17.5996C84.9875 17.9179 84.9875 18.2362 84.9875 18.5546C84.9875 32.8343 84.9875 47.1141 84.9875 61.3939C84.9875 61.7577 84.9875 62.167 84.9875 62.7127C85.6722 62.7127 86.3112 62.7582 86.9046 62.6672C87.0871 62.6672 87.361 62.3489 87.4066 62.1215C87.4979 61.6667 87.4523 61.212 87.4523 60.7572C87.4523 46.7503 87.4523 32.7434 87.4523 18.691C87.4523 16.6446 87.5892 17.0539 85.8091 17.0084C85.6266 17.0084 85.444 16.9629 85.1245 16.9629C85.0788 16.3717 84.9875 15.7805 84.9419 15.1893L84.8963 15.2348C85.4896 15.2348 86.1286 15.2802 86.722 15.2348C86.9502 15.2348 87.3154 15.0529 87.4066 14.871C87.7261 13.9159 88 12.9154 88.3651 11.733C87.4066 11.4602 86.3112 11.4602 85.2614 11.5057ZM94.4813 15.0074C94.527 14.9164 94.527 14.871 94.5726 14.78C93.2033 13.9159 91.834 13.0519 90.2822 12.0969C90.2822 13.0519 90.2365 13.7795 90.3278 14.4617C90.3278 14.6436 90.7386 14.9619 90.9212 14.9619C92.1079 15.0074 93.2946 15.0074 94.4813 15.0074Z"/>
<path d="M78.2781 14.9619C78.1411 16.8265 78.1411 16.8265 76.1785 16.8265C72.1619 16.8265 68.1453 16.8265 64.1287 16.8265C63.7635 16.8265 63.444 16.8265 62.942 16.8265C63.581 15.6896 64.1743 14.7345 65.6349 15.0074C65.9088 15.0529 66.2283 15.0074 66.5021 14.9164C68.9669 13.8705 71.4316 12.8245 73.8963 11.5966C67.0042 11.5966 60.1121 11.5966 53.1743 11.5966C53.6307 10.1868 54.1785 9.77755 55.4565 9.77755C58.1951 9.77755 60.888 9.77755 63.7635 9.77755C63.5353 9.23183 63.3984 8.82254 63.1702 8.27681C63.9005 8.27681 64.5851 8.27681 65.361 8.27681C65.1785 8.73158 64.9959 9.14088 64.8133 9.6866C65.2241 9.73208 65.5436 9.73208 65.9088 9.73208C69.8797 9.73208 73.805 9.6866 77.776 9.77755C78.6432 9.77755 79.054 9.50469 79.0083 8.64063C79.0083 7.82205 79.3735 7.36728 80.2407 7.54918C80.4233 7.59466 80.6971 7.86752 80.7428 8.09491C80.8797 8.59515 80.7428 9.32278 81.0166 9.59565C81.2905 9.86851 81.9752 9.73208 82.4772 9.77755C82.9337 11.1873 82.7967 11.4147 81.4274 11.5057C80.8341 11.5512 80.7428 11.7785 80.7428 12.2788C80.7428 13.1883 80.6971 14.0979 80.6971 15.0074L80.7428 14.9619C79.9212 14.9619 79.054 14.9619 78.2781 14.9619C78.3237 13.8705 78.415 12.779 78.5063 11.5057C76.9544 11.5966 75.5395 11.3238 74.0789 12.0059C72.2075 12.9155 70.1992 13.6886 68.2822 14.5072C68.054 14.5981 67.8714 14.7345 67.4606 14.9619C71.2034 14.9619 74.7179 14.9619 78.2781 14.9619Z"/>
<path d="M85.1701 9.82302C84.3942 9.77754 83.6639 9.68659 82.7966 9.64111C82.8423 8.95896 82.8879 8.2768 82.9336 7.64013C82.751 7.59465 82.6141 7.54917 82.4771 7.54917C80.7883 7.41274 80.7883 7.41274 80.6971 5.73009C81.3361 5.73009 81.9751 5.77557 82.6597 5.73009C82.8879 5.73009 83.2531 5.50271 83.2531 5.3208C83.4356 4.22936 83.5726 3.09243 83.7551 1.7736C80.6971 3.09243 77.8215 4.27483 74.9004 5.50271C74.9004 5.59366 74.946 5.63914 74.946 5.73009C76.4066 5.73009 77.8672 5.73009 79.2821 5.73009C78.8713 7.54917 78.8713 7.54917 76.9543 7.54917C69.9709 7.54917 63.0332 7.54917 56.0498 7.54917C55.639 7.54917 55.2282 7.54917 54.8174 7.54917C55.2738 5.82105 55.3651 5.68462 56.917 5.77557C60.9792 6.00296 64.9502 5.41176 68.9211 4.50222C73.5311 3.41077 78.1867 2.54671 82.7966 1.59169C83.39 1.45526 83.7551 1.31883 83.8921 0.636677C83.9377 0.363815 84.5311 0.227385 84.8506 0C84.8506 0.136431 84.8049 0.272862 84.8049 0.454769C85.307 1.00049 85.7634 1.63717 86.3112 2.04646C87.6348 3.04695 89.0954 3.95649 90.419 4.95699C91.2406 5.59366 92.0622 5.912 93.112 5.77557C93.6141 5.73009 94.1161 5.77557 94.7095 5.77557C94.7095 6.41225 94.7095 6.91249 94.7095 7.50369C94.2987 7.54917 93.9336 7.59465 93.5684 7.59465C91.1037 7.59465 88.639 7.64012 86.1742 7.59465C85.3983 7.59465 85.0332 7.77656 85.1244 8.64062C85.307 8.91348 85.2158 9.36825 85.1701 9.82302ZM65.4522 5.50271C65.4522 5.59366 65.4522 5.63914 65.4522 5.73009C66.1825 5.73009 66.9585 5.68462 67.6888 5.73009C71.751 6.13939 75.585 5.36628 79.1908 3.41077C79.9668 3.00148 80.834 2.68314 81.7012 2.31932C81.7012 2.27385 81.6556 2.18289 81.6556 2.13742C76.1784 3.22886 70.8381 4.36579 65.4522 5.50271ZM85.3527 5.63914C87.224 5.63914 89.0498 5.63914 90.8298 5.63914C90.8755 5.59366 90.8755 5.50271 90.9211 5.45723C89.141 4.22936 87.3153 2.956 85.3527 1.63717C85.3527 3.04695 85.3527 4.27483 85.3527 5.63914Z"/>
<path d="M26.5644 69.5797C26.2905 70.6257 27.0208 71.8536 25.6972 72.6267C27.1577 73.3998 26.2905 74.7186 26.61 75.7191C25.1494 76.0374 25.0582 75.9465 25.0125 74.5822C25.0125 74.1274 24.8756 73.6272 24.8299 73.1724C24.693 73.1724 24.5561 73.2179 24.4192 73.2179C24.4192 74.0819 24.4192 74.9005 24.4192 75.8101C24.0084 75.8555 23.7345 75.8555 23.4606 75.901C22.776 75.992 22.4565 75.7646 22.5021 74.9915C22.5478 74.4003 22.5021 73.8091 22.5021 73.2179C22.3652 73.2179 22.2283 73.1724 22.0457 73.1724C22.0001 73.6272 21.8631 74.1274 21.8631 74.5822C21.8175 75.901 21.7718 75.9465 20.2656 75.7646C20.6308 74.7641 19.7635 73.4453 21.1785 72.6267C19.8092 71.899 20.5851 70.5802 20.3113 69.5797C21.7718 69.3069 21.8631 69.3978 21.9088 70.6712C21.9088 71.1259 22.0001 71.5807 22.0914 72.0355C22.2283 72.0355 22.3652 72.0355 22.5021 72.0355C22.5021 71.6717 22.5478 71.3078 22.5478 70.944C22.5478 69.3069 22.5478 69.3069 24.4192 69.5342C24.4192 70.3528 24.4192 71.1714 24.4192 71.99C24.5561 71.99 24.693 72.0355 24.8756 72.0355C24.9669 71.5807 25.0582 71.0805 25.0582 70.6257C25.0125 69.3523 25.0582 69.2614 26.5644 69.5797Z"/>
<path d="M36.6972 75.8101C36.1495 75.8101 35.6474 75.8101 34.9171 75.8101C34.9171 74.0819 34.9171 72.3993 34.9171 70.7621C34.8258 70.7621 34.6889 70.7166 34.5976 70.7166C34.5063 70.944 34.3694 71.1714 34.3694 71.3988C34.3238 72.2174 34.3694 73.0814 34.3694 73.9C34.3694 75.7191 33.9586 76.0374 31.996 75.8101C31.996 75.6282 31.859 75.3098 31.9503 75.2189C32.9545 74.0819 32.4524 72.7176 32.498 71.4443C32.5893 69.4888 32.498 69.4888 34.4607 69.4888C36.8341 69.4888 36.8341 69.4888 36.8341 71.8536C36.8341 73.0814 36.8341 74.3093 36.7885 75.5372C36.7885 75.5827 36.7429 75.6736 36.6972 75.8101Z"/>
<path d="M56.0041 72.5812C56.0041 72.9905 56.0041 73.3998 56.0041 73.8546C55.9585 75.3098 55.2738 75.992 53.8132 75.992C52.3983 75.992 51.668 75.3098 51.6224 73.8546C51.5767 72.8995 51.5767 71.99 51.6224 71.035C51.7137 69.8526 52.4439 69.2614 53.722 69.2614C55.0912 69.2614 55.8215 69.8071 55.9128 71.035C56.0041 71.5807 55.9585 72.081 56.0041 72.5812ZM53.6763 70.2164C53.6763 71.899 53.6763 73.3543 53.6763 74.9915C54.2697 74.2184 54.3153 71.1259 53.6763 70.2164Z"/>
<path d="M4.61008 72.6721C4.61008 73.0814 4.61008 73.4907 4.61008 73.9455C4.51879 75.3553 3.87979 75.992 2.46485 75.992C1.04991 75.992 0.319622 75.3553 0.273978 73.9C0.228335 73.036 0.228335 72.1719 0.273978 71.3078C0.319622 69.8981 1.04991 69.3069 2.46485 69.3069C3.87979 69.3069 4.56444 69.9435 4.61008 71.3533C4.65572 71.7626 4.61008 72.2174 4.61008 72.6721ZM2.32792 75.0369C2.96692 74.0364 2.92128 70.9895 2.23663 70.2164C2.14535 71.899 2.00842 73.3543 2.32792 75.0369Z"/>
<path d="M66.9584 73.4453C66.8215 73.8546 66.6845 74.2639 66.502 74.6731C66.0455 75.9465 66.0455 75.9465 64.4937 75.7646C64.4937 74.8096 64.4937 73.8091 64.4937 72.8541C64.4937 72.0355 64.4937 71.1714 64.4937 70.3528C64.4937 69.8071 64.5393 69.4433 65.2696 69.4433C65.9542 69.4433 66.0912 69.8071 66.0455 70.3528C65.9999 70.8531 66.0455 71.3533 66.2737 71.8991C66.4563 71.4898 66.6389 71.035 66.7302 70.6257C66.9584 69.5797 67.5517 69.2614 68.6015 69.6252C68.6015 71.6717 68.6015 73.7181 68.6015 75.8556C68.1451 75.8556 67.7343 75.8556 67.1866 75.8556C67.1866 75.0824 67.1866 74.3093 67.1866 73.5362C67.0953 73.4453 67.0497 73.4453 66.9584 73.4453Z"/>
<path d="M9.67647 72.7176C9.67647 73.1269 9.72211 73.5362 9.67647 73.991C9.58518 75.4008 8.85489 76.0829 7.43995 75.992C6.07066 75.9465 5.38601 75.2643 5.38601 73.8546C5.38601 72.8995 5.34037 71.99 5.38601 71.035C5.4773 69.8981 6.20759 69.2614 7.48559 69.2614C8.80925 69.2614 9.53954 69.8071 9.67647 70.944C9.72211 71.5352 9.72211 72.0809 9.76775 72.6721C9.72211 72.7176 9.67647 72.7176 9.67647 72.7176ZM7.66817 70.2164C7.02916 71.1259 7.02916 74.1729 7.66817 74.9915C7.66817 73.3543 7.66817 71.899 7.66817 70.2164Z"/>
<path d="M14.7427 72.6267C14.7427 73.1269 14.7883 73.5817 14.7427 74.0819C14.6514 75.4008 13.8754 76.0375 12.5061 75.992C11.1825 75.9465 10.4978 75.2643 10.4522 73.9455C10.4066 72.9905 10.4066 72.0355 10.4522 71.035C10.4978 69.8981 11.2738 69.2614 12.5518 69.2614C13.8754 69.2614 14.6057 69.8071 14.7427 70.944C14.7427 71.4898 14.697 72.0809 14.7427 72.6267ZM12.4149 75.0369C13.0539 74.1729 13.0539 71.0805 12.4149 70.2619C12.4149 71.899 12.4149 73.3543 12.4149 75.0369Z"/>
<path d="M58.5145 71.8536C58.7427 71.2169 59.0165 70.6257 59.1991 69.989C59.4273 69.2614 59.975 69.3523 60.4315 69.4888C60.6597 69.5342 60.8879 70.0345 60.9335 70.3074C60.9792 71.99 60.9335 73.6726 60.9335 75.3553C60.9335 75.4917 60.8879 75.5827 60.8423 75.8101C60.3858 75.8101 59.975 75.8101 59.4273 75.8101C59.4273 75.0369 59.4273 74.2638 59.4273 73.5362C59.336 73.5362 59.2447 73.4907 59.1991 73.4907C59.0622 73.9 58.9252 74.3093 58.7883 74.7186C58.3775 76.0374 58.3775 76.0374 56.7344 75.8555C56.7344 75.1734 56.7344 74.4457 56.7344 73.7181C56.7344 72.5357 56.7344 71.3988 56.7344 70.2164C56.7344 69.6707 56.9626 69.4888 57.5103 69.4888C58.0124 69.4888 58.3319 69.6252 58.2862 70.1709C58.2862 70.7166 58.2862 71.3078 58.2862 71.8536C58.3775 71.8081 58.4232 71.8081 58.5145 71.8536Z"/>
<path d="M29.8963 73.3998C28.9835 74.4003 29.5312 76.4467 27.249 75.7191C27.249 75.0824 27.249 74.3548 27.249 73.6272C27.249 72.4902 27.249 71.3078 27.249 70.1709C27.249 69.6252 27.4772 69.4433 27.9793 69.4433C28.4814 69.4433 28.7552 69.6252 28.7552 70.1709C28.7552 70.7166 28.7552 71.3078 28.9835 71.899C29.166 71.4443 29.3943 70.9895 29.4855 70.4892C29.7138 69.4433 30.3528 69.2614 31.3569 69.5342C31.3569 71.5807 31.3569 73.6726 31.3569 75.81C30.8548 75.81 30.444 75.81 29.942 75.81C29.8963 75.0369 29.8963 74.3548 29.8963 73.3998Z"/>
<path d="M41.9916 72.1264C41.3526 72.1264 40.8049 72.1264 40.2572 72.1264C40.1659 71.5352 40.0746 70.944 39.9833 70.2619C39.2987 70.8985 39.2074 73.8091 39.9377 74.855C40.0746 74.3548 40.1659 73.8545 40.3029 73.3088C40.8049 73.3088 41.3526 73.3088 41.8547 73.3088C42.1286 74.946 41.5809 75.7646 40.0746 75.901C38.4771 76.0829 37.6099 75.4008 37.5643 73.8545C37.5186 72.945 37.5186 72.0355 37.5643 71.1259C37.6099 69.8526 38.3402 69.2159 39.7095 69.1704C41.1701 69.1704 41.9004 69.7616 41.946 71.0804C42.0373 71.4897 41.9916 71.7626 41.9916 72.1264Z"/>
<path d="M77.6391 73.036C78.6432 73.5362 78.7345 74.2184 78.5063 75.0369C78.2781 75.8555 77.5478 75.81 76.9088 75.8555C74.3984 75.992 74.3984 75.992 74.3984 73.5362C74.3984 72.8086 74.3984 72.0355 74.3984 71.3078C74.3984 70.8076 74.581 70.5802 75.0831 70.6257C75.6764 70.6712 76.3155 70.5347 76.9088 70.6712C77.4109 70.8076 78.0499 71.0804 78.2781 71.4897C78.6889 71.99 78.4607 72.6267 77.6391 73.036Z"/>
<path d="M73.6225 70.5802C73.6225 72.3538 73.6225 73.991 73.6225 75.7646C73.1204 75.7646 72.6183 75.7646 71.9793 75.7646C71.9793 75.4462 71.9793 75.0824 71.888 74.7641C71.7967 74.4912 71.6598 74.2184 71.5229 73.9C71.4316 74.1729 71.249 74.4003 71.2034 74.7186C71.1577 75.037 71.2034 75.3553 71.2034 75.7646C70.61 75.7646 70.1079 75.7646 69.4689 75.7646C69.4689 74.1729 69.4233 72.5812 69.5146 70.9895C69.5146 70.8531 70.1992 70.6257 70.5187 70.6257C70.7469 70.6257 71.0208 70.944 71.1577 71.1714C71.3403 71.5352 71.4316 71.99 71.5229 72.3993C71.6598 71.99 71.7967 71.5807 71.888 71.1714C72.1619 70.0345 72.9834 70.8076 73.6225 70.5802Z"/>
<path d="M83.2074 73.2179C82.4315 73.2633 81.7012 73.3088 81.0166 73.3088C81.0166 73.9 81.0166 74.4003 81.0166 74.946C81.1078 74.946 81.1991 74.9915 81.2904 74.9915C81.4274 74.6277 81.5643 74.2184 81.7012 73.7636C82.112 73.7636 82.6141 73.7636 83.0705 73.7636C83.2987 74.946 82.8423 75.6736 81.7468 75.8555C80.2863 76.1284 79.2365 75.5827 79.1452 74.4458C79.0539 73.8091 79.0995 73.1724 79.0995 72.4902C79.1452 71.035 79.6929 70.4893 81.1078 70.4438C82.4771 70.4438 83.2074 71.0805 83.2531 72.4902C83.2531 72.7631 83.2074 72.945 83.2074 73.2179Z"/>
<path d="M48.8838 73.3088C48.8838 74.1274 48.8838 74.9005 48.8838 75.7646C48.2448 75.7646 47.7428 75.7646 47.0581 75.7646C47.0581 73.8546 47.0581 71.899 47.1038 69.9435C47.1038 69.7616 47.4233 69.4888 47.6515 69.4433C48.1079 69.3523 48.5643 69.3978 49.0208 69.3978C50.8008 69.4433 51.166 69.7616 51.1203 71.5807C51.0747 72.8086 50.8921 73.036 49.6598 73.1724C49.4316 73.2634 49.249 73.2634 48.8838 73.3088ZM49.2946 70.5802C49.2033 70.5802 49.0664 70.5802 48.9751 70.6257C48.9751 71.1259 48.9751 71.6262 48.9751 72.1264C49.0664 72.1264 49.2033 72.1264 49.2946 72.1264C49.6141 71.5807 49.6598 71.0805 49.2946 70.5802Z"/>
<path d="M87.7719 72.4902C87.2699 72.4902 86.8134 72.4902 86.357 72.4902C86.2657 72.1719 86.1288 71.8081 86.0375 71.3988C85.4441 72.1264 85.4898 74.3548 86.1288 75.0824C86.2657 74.6277 86.357 74.2184 86.4483 73.8091C86.8591 73.8091 87.2699 73.8091 87.7263 73.8091C88.0002 75.0369 87.5437 75.7191 86.4026 75.9465C84.9877 76.1739 84.0748 75.6281 83.9379 74.4457C83.8466 73.7636 83.8923 73.036 83.8923 72.3083C83.9379 71.0804 84.6226 70.4892 85.9462 70.5347C87.2242 70.5347 87.7719 71.0804 87.7719 72.4902Z"/>
<path d="M45.4148 75.8101C44.9584 75.8101 44.6845 75.8555 44.4107 75.8555C43.8173 75.901 43.5891 75.6736 43.6348 75.0824C43.6804 73.9455 43.5891 72.8086 43.6348 71.7171C43.6804 70.9895 43.4522 70.5347 42.585 70.6257C42.585 70.2619 42.585 69.8981 42.585 69.4433C43.7717 69.4433 44.9128 69.3978 46.0538 69.4888C46.2821 69.4888 46.5103 70.0345 46.9211 70.5802C45.2323 70.4893 45.4148 71.3988 45.4148 72.1719C45.4148 73.3088 45.4148 74.4912 45.4148 75.8101Z"/>
<path d="M89.278 71.7626C88.8672 71.6716 88.5477 71.5807 88.3195 71.5352C88.0912 70.8076 88.3195 70.5347 89.0041 70.5802C89.9626 70.6257 90.9211 70.5802 92.2448 70.5802C91.9709 71.0804 91.834 71.5352 91.6514 71.5807C91.0581 71.6717 91.0124 72.0355 91.0124 72.4448C91.0124 73.5362 91.0124 74.6277 91.0124 75.7646C90.3734 75.7646 89.8713 75.7646 89.278 75.7646C89.278 74.4457 89.278 73.1269 89.278 71.7626Z"/>
<path d="M85.2613 14.9619C84.3941 14.9619 83.5725 14.9619 82.7053 14.9164L82.751 14.9619C82.751 14.1433 82.8423 13.2792 82.7966 12.4607C82.751 11.733 83.0705 11.5056 83.7551 11.5511C84.2572 11.5966 84.7593 11.5056 85.307 11.5056L85.2614 11.5057C85.2158 12.6426 85.2157 13.825 85.2613 14.9619Z"/>
<path d="M80.7885 18.2363C80.7885 19.4187 80.7884 19.4187 79.4648 19.4187C78.2781 19.4187 78.2781 19.4187 78.2781 18.0998C78.2781 16.8719 78.2781 16.8719 79.6474 16.8719C80.7884 16.8719 80.7885 16.8719 80.7885 18.2363Z"/>
<path d="M80.6972 29.2417C79.8756 29.2417 79.1453 29.2417 78.3237 29.2417C78.3237 28.6505 78.3237 28.1502 78.3237 27.5135C79.0997 27.5135 79.83 27.5135 80.6972 27.5135C80.6972 28.0593 80.6972 28.605 80.6972 29.2417Z"/>
<path d="M80.8797 21.8289C79.8756 21.8289 79.1453 21.8289 78.2324 21.8289C78.2781 21.2377 78.1868 20.2827 78.4606 20.2372C79.0996 20.0099 79.8756 19.9644 80.5146 20.1918C80.7428 20.2372 80.7428 21.1468 80.8797 21.8289Z"/>
<path d="M79.5104 26.8314C78.278 26.8314 78.1411 26.7404 78.3237 25.649C78.3693 25.4216 78.6888 25.1487 78.917 25.0123C79.1453 24.9213 79.4648 25.0123 79.7843 24.9668C80.4233 24.9213 80.8341 25.0123 80.8341 25.8764C80.8341 26.6949 80.5146 26.8769 79.7843 26.8314C79.693 26.8314 79.6017 26.8314 79.5104 26.8314Z"/>
<path d="M78.1411 22.5566C79.1453 22.5566 79.8756 22.5566 80.7884 22.5566C80.7428 23.1478 80.8341 24.0573 80.6058 24.1483C80.0125 24.3757 79.1909 24.4211 78.5519 24.1938C78.278 24.1483 78.278 23.2387 78.1411 22.5566Z"/>
<path d="M80.6971 15.0074C81.3818 15.0074 82.0207 15.0074 82.7053 14.9619L82.6597 14.9164C82.6597 15.2803 82.7053 15.6441 82.6597 15.9624C82.614 16.2353 82.4771 16.69 82.2945 16.69C81.8381 16.781 81.3817 16.69 80.8796 16.5991C80.7883 16.5991 80.7883 16.2808 80.7427 16.0988C80.7883 15.735 80.7884 15.3712 80.6971 15.0074Z"/>
<path d="M66.0002 17.3267C65.635 18.0544 65.3155 18.7365 64.8591 19.6006C64.4483 18.782 64.0832 18.0998 63.6724 17.3267C64.5396 17.3267 65.1786 17.3267 66.0002 17.3267Z"/>
<path d="M54.7261 12.3242C55.5933 12.3242 56.2323 12.3242 57.0539 12.3242C56.6887 13.0974 56.3692 13.734 55.9128 14.6436C55.4564 13.7795 55.1369 13.0974 54.7261 12.3242Z"/>
<path d="M62.7138 73.7181C62.44 73.7181 62.1661 73.7636 61.9379 73.7181C61.801 73.6726 61.5728 73.3998 61.5728 73.2634C61.6184 73.0814 61.801 72.7631 61.9379 72.7176C62.3487 72.6267 62.7595 72.6267 63.1703 72.7176C63.3985 72.7631 63.6267 73.036 63.8549 73.1724C63.6267 73.3543 63.3985 73.5817 63.1703 73.7181C63.0333 73.8091 62.8508 73.7636 62.7138 73.7181Z"/>
<path d="M92.473 71.3079C92.4274 70.8986 92.2904 70.5347 92.3361 70.1255C92.3817 69.8526 92.6556 69.6707 92.8382 69.4433C93.0207 69.6707 93.4315 69.9435 93.3859 70.08C93.249 70.5802 92.9751 71.035 92.7469 71.4898C92.6556 71.3988 92.5643 71.3533 92.473 71.3079Z"/>
<path d="M17.025 71.3078C16.9793 70.08 17.0706 69.9435 17.9835 69.5342C18.1204 71.4897 18.1204 71.4897 17.025 71.3078Z"/>
<path d="M94.0705 71.2624C94.0248 70.8531 93.8879 70.3983 93.9792 69.989C94.0248 69.7616 94.39 69.5797 94.5726 69.3978C94.7551 69.6252 95.0746 69.8526 95.029 70.0345C94.8921 70.5347 94.5726 70.944 94.3443 71.4443C94.2987 71.3988 94.2074 71.3533 94.0705 71.2624Z"/>
<path d="M18.5769 71.3078C18.4856 70.4438 18.6682 69.8071 19.5354 69.4888C19.7636 71.5352 19.7636 71.5352 18.5769 71.3078Z"/>
<path d="M57.7385 67.988C58.5145 68.5337 59.2447 68.4883 60.0663 67.7606C59.975 68.7156 59.6099 69.034 59.0165 69.1249C58.2862 69.2159 57.7842 68.943 57.7385 67.988Z"/>
</svg>
